G04 This is an RS-274x file exported by *
G04 gerbv version 2.7.0 *
G04 More information is available about gerbv at *
G04 http://gerbv.geda-project.org/ *
G04 --End of header info--*
%MOIN*%
%FSLAX36Y36*%
%IPPOS*%
G04 --Define apertures--*
%ADD10R,0.0433X0.0669*%
%ADD11R,0.0827X0.0669*%
%ADD12R,0.0669X0.0827*%
%ADD13R,0.0213X0.0827*%
%ADD14R,0.0827X0.0213*%
%ADD15R,0.1378X0.0551*%
%ADD16R,0.0551X0.1378*%
%ADD17R,0.0394X0.0394*%
%ADD18R,0.0669X0.0433*%
%ADD19R,0.0276X0.1024*%
%ADD20R,0.1024X0.0276*%
%ADD21R,0.0906X0.0118*%
%ADD22R,0.1220X0.0551*%
%ADD23R,0.0551X0.1220*%
%ADD24R,0.0276X0.0827*%
%ADD25R,0.1181X0.0669*%
%ADD26R,0.0669X0.1181*%
%ADD27R,0.1220X0.0866*%
%ADD28R,0.0866X0.1220*%
%ADD29R,0.1260X0.0906*%
%ADD30R,0.0669X0.1063*%
%ADD31R,0.0886X0.0118*%
%ADD32R,0.0118X0.0886*%
G04 --Start main section--*
G54D10*
G01X8031252Y0325000D03*
G01X8031252Y0459374D03*
G54D11*
G01X7409374Y-4278618D03*
G01X7409378Y-4412996D03*
G01X7050000Y-893756D03*
G01X7050000Y-759374D03*
G01X8209378Y-1034378D03*
G01X8209374Y-900000D03*
G01X7809378Y-1956252D03*
G01X7809374Y-1821874D03*
G01X6809378Y-2681252D03*
G01X6809374Y-2546874D03*
G01X7750000Y-2646878D03*
G01X7750000Y-2512500D03*
G54D12*
G01X7093748Y-2653126D03*
G01X7228130Y-2653122D03*
G01X6984374Y-3706252D03*
G01X7118756Y-3706248D03*
G01X6665626Y-3706252D03*
G01X6800004Y-3706248D03*
G01X11440626Y-700000D03*
G01X11575004Y-700000D03*
G01X12153126Y-740626D03*
G01X12287504Y-740622D03*
G01X12515626Y-1718748D03*
G01X12650004Y-1718748D03*
G01X11300000Y-1615626D03*
G01X11434378Y-1615622D03*
G54D11*
G01X11631252Y-131252D03*
G01X11631252Y-265630D03*
G01X9978126Y1253126D03*
G01X9978126Y1118748D03*
G01X9900000Y2021874D03*
G01X9900000Y1887496D03*
G54D12*
G01X12118756Y2846878D03*
G01X11984374Y2846874D03*
G54D14*
G01X7512500Y0475000D03*
G01X7512500Y0425000D03*
G01X7512500Y0375000D03*
G54D13*
G01X7581791Y0305709D03*
G01X7631791Y0305709D03*
G01X7681791Y0305709D03*
G01X7731791Y0305709D03*
G01X7781791Y0305709D03*
G54D14*
G01X7851083Y0375000D03*
G01X7851083Y0425000D03*
G01X7851083Y0475000D03*
G01X7851083Y0525000D03*
G01X7851083Y0575000D03*
G54D13*
G01X7781791Y0644291D03*
G01X7731791Y0644291D03*
G01X7681791Y0644291D03*
G01X7631791Y0644291D03*
G01X7581791Y0644291D03*
G54D14*
G01X7512500Y0575000D03*
G01X7512500Y0525000D03*
G01X6812500Y0343748D03*
G01X6812500Y0293748D03*
G01X6812500Y0243748D03*
G54D13*
G01X6881791Y0174457D03*
G01X6931791Y0174457D03*
G01X6981791Y0174457D03*
G01X7031791Y0174457D03*
G01X7081791Y0174457D03*
G54D14*
G01X7151083Y0243748D03*
G01X7151083Y0293748D03*
G01X7151083Y0343748D03*
G01X7151083Y0393748D03*
G01X7151083Y0443748D03*
G54D13*
G01X7081791Y0513039D03*
G01X7031791Y0513039D03*
G01X6981791Y0513039D03*
G01X6931791Y0513039D03*
G01X6881791Y0513039D03*
G54D14*
G01X6812500Y0443748D03*
G01X6812500Y0393748D03*
G54D15*
G01X6893752Y-4346878D03*
G01X6684378Y-4346878D03*
G01X6893748Y-5146874D03*
G01X6684374Y-5146874D03*
G01X6890626Y-5950004D03*
G01X6681252Y-5950004D03*
G01X6890626Y-6750000D03*
G01X6681252Y-6750000D03*
G01X7037500Y-7587500D03*
G01X6828126Y-7587500D03*
G01X9775000Y-3568752D03*
G01X9565626Y-3568752D03*
G01X7684378Y-1440630D03*
G01X7475000Y-1440630D03*
G54D13*
G01X7362500Y-997957D03*
G01X7412500Y-997957D03*
G01X7462500Y-997957D03*
G54D14*
G01X7531791Y-928665D03*
G01X7531791Y-878665D03*
G01X7531791Y-828665D03*
G01X7531791Y-778665D03*
G01X7531791Y-728665D03*
G54D13*
G01X7462500Y-659374D03*
G01X7412500Y-659374D03*
G01X7362500Y-659374D03*
G01X7312500Y-659374D03*
G01X7262500Y-659374D03*
G54D14*
G01X7193209Y-728665D03*
G01X7193209Y-778665D03*
G01X7193209Y-828665D03*
G01X7193209Y-878665D03*
G01X7193209Y-928665D03*
G54D13*
G01X7262500Y-997957D03*
G01X7312500Y-997957D03*
G54D14*
G01X9478126Y3475000D03*
G01X9478126Y3425000D03*
G01X9478126Y3375000D03*
G01X9478126Y3325000D03*
G54D13*
G01X9548598Y3254528D03*
G01X9598598Y3254528D03*
G01X9648598Y3254528D03*
G01X9698598Y3254528D03*
G01X9748598Y3254528D03*
G01X9798598Y3254528D03*
G01X9848598Y3254528D03*
G54D14*
G01X9919071Y3325000D03*
G01X9919071Y3375000D03*
G01X9919071Y3425000D03*
G01X9919071Y3475000D03*
G01X9919071Y3525000D03*
G01X9919071Y3575000D03*
G01X9919071Y3625000D03*
G54D13*
G01X9848598Y3695472D03*
G01X9798598Y3695472D03*
G01X9748598Y3695472D03*
G01X9698598Y3695472D03*
G01X9648598Y3695472D03*
G01X9598598Y3695472D03*
G01X9548598Y3695472D03*
G54D14*
G01X9478126Y3625000D03*
G01X9478126Y3575000D03*
G01X9478126Y3525000D03*
G01X11078126Y3115626D03*
G01X11078126Y3065626D03*
G01X11078126Y3015626D03*
G01X11078126Y2965626D03*
G54D13*
G01X11148598Y2895154D03*
G01X11198598Y2895154D03*
G01X11248598Y2895154D03*
G01X11298598Y2895154D03*
G01X11348598Y2895154D03*
G01X11398598Y2895154D03*
G01X11448598Y2895154D03*
G54D14*
G01X11519071Y2965626D03*
G01X11519071Y3015626D03*
G01X11519071Y3065626D03*
G01X11519071Y3115626D03*
G01X11519071Y3165626D03*
G01X11519071Y3215626D03*
G01X11519071Y3265626D03*
G54D13*
G01X11448598Y3336098D03*
G01X11398598Y3336098D03*
G01X11348598Y3336098D03*
G01X11298598Y3336098D03*
G01X11248598Y3336098D03*
G01X11198598Y3336098D03*
G01X11148598Y3336098D03*
G54D14*
G01X11078126Y3265626D03*
G01X11078126Y3215626D03*
G01X11078126Y3165626D03*
G54D15*
G01X10993752Y3621874D03*
G01X10784378Y3621874D03*
G54D17*
G01X12243748Y-5059374D03*
G01X12243748Y-5134177D03*
G01X12156346Y-5096776D03*
G01X12462500Y-5056252D03*
G01X12462500Y-5131055D03*
G01X12375098Y-5093654D03*
G01X12243748Y-5218748D03*
G01X12243748Y-5293551D03*
G01X12156346Y-5256150D03*
G01X12421874Y-5218748D03*
G01X12421874Y-5293551D03*
G01X12334472Y-5256150D03*
G01X12762500Y-6193748D03*
G01X12762500Y-6268551D03*
G01X12675098Y-6231150D03*
G01X12571874Y-6193748D03*
G01X12571874Y-6268551D03*
G01X12484472Y-6231150D03*
G01X11937500Y-3543748D03*
G01X11937500Y-3618551D03*
G01X11850098Y-3581150D03*
G01X11812500Y3153126D03*
G01X11812500Y3078323D03*
G01X11725098Y3115724D03*
G54D16*
G01X9156252Y0300000D03*
G01X9156252Y0509374D03*
G54D10*
G01X6681252Y3631252D03*
G01X6681252Y3496874D03*
G01X6781252Y3631252D03*
G01X6781252Y3496874D03*
G01X6881252Y3631252D03*
G01X6881252Y3496874D03*
G01X6981252Y3631252D03*
G01X6981252Y3496874D03*
G01X7081252Y3631252D03*
G01X7081252Y3496874D03*
G01X7181252Y3496874D03*
G01X7181252Y3631252D03*
G01X7281252Y3496874D03*
G01X7281252Y3631252D03*
G01X7381252Y3496874D03*
G01X7381252Y3631252D03*
G01X7481252Y3496874D03*
G01X7481252Y3631252D03*
G01X7581252Y3496874D03*
G01X7581252Y3631252D03*
G01X7681252Y3496874D03*
G01X7681252Y3631252D03*
G01X7781252Y3496874D03*
G01X7781252Y3631252D03*
G01X7881252Y3496874D03*
G01X7881252Y3631252D03*
G01X7981252Y3496874D03*
G01X7981252Y3631252D03*
G01X8081252Y3496874D03*
G01X8081252Y3631252D03*
G01X8181252Y3496874D03*
G01X8181252Y3631252D03*
G01X8281252Y3496874D03*
G01X8281252Y3631252D03*
G01X8381252Y3496874D03*
G01X8381252Y3631252D03*
G01X8481252Y3496874D03*
G01X8481252Y3631252D03*
G01X8581252Y3496874D03*
G01X8581252Y3631252D03*
G01X8981252Y3496874D03*
G01X8981252Y3631252D03*
G01X8781252Y3496874D03*
G01X8781252Y3631252D03*
G01X8881252Y3496874D03*
G01X8881252Y3631252D03*
G54D18*
G01X11982811Y3267189D03*
G01X12117185Y3267189D03*
G01X11982811Y3167189D03*
G01X12117185Y3167189D03*
G01X11982811Y3067189D03*
G01X12117185Y3067189D03*
G01X11982811Y2967189D03*
G01X12117185Y2967189D03*
G54D12*
G01X8878130Y0662504D03*
G01X8743748Y0662500D03*
G54D18*
G01X8745311Y0545315D03*
G01X8879685Y0545315D03*
G01X8745311Y0445315D03*
G01X8879685Y0445315D03*
G01X8745311Y0345315D03*
G01X8879685Y0345315D03*
G01X8745311Y0245315D03*
G01X8879685Y0245315D03*
G01X8098437Y2339063D03*
G01X8232811Y2339063D03*
G01X8098437Y2239063D03*
G01X8232811Y2239063D03*
G01X8098437Y2139063D03*
G01X8232811Y2139063D03*
G01X8098437Y2039063D03*
G01X8232811Y2039063D03*
G01X8098437Y1939063D03*
G01X8232811Y1939063D03*
G01X8098437Y1839063D03*
G01X8232811Y1839063D03*
G36*
G01X6578343Y0445965D02*
G01X6621650Y0445965D01*
G01X6621650Y0379035D01*
G01X6578343Y0379035D01*
G01X6578343Y0445965D01*
G37*
G36*
G01X6578343Y0311587D02*
G01X6621650Y0311591D01*
G01X6621650Y0244661D01*
G01X6578343Y0244657D01*
G01X6578343Y0311587D01*
G37*
G36*
G01X6478343Y0445965D02*
G01X6521650Y0445965D01*
G01X6521650Y0379035D01*
G01X6478343Y0379035D01*
G01X6478343Y0445965D01*
G37*
G54D10*
G01X6499996Y0278126D03*
G01X10706252Y-1275000D03*
G01X10706252Y-1140626D03*
G01X10806252Y-1275000D03*
G01X10806252Y-1140626D03*
G01X10606252Y-1634374D03*
G01X10606252Y-1500000D03*
G01X10706252Y-1634374D03*
G01X10706252Y-1500000D03*
G01X10806252Y-1634374D03*
G01X10806252Y-1500000D03*
G54D11*
G01X9967189Y-1239063D03*
G01X9967189Y-1373441D03*
G54D10*
G01X9846874Y-1375000D03*
G01X9846874Y-1240626D03*
G01X10084374Y-1375000D03*
G01X10084374Y-1240626D03*
G54D18*
G01X12435937Y-507811D03*
G01X12570307Y-507811D03*
G01X12432811Y0092189D03*
G01X12567185Y0092189D03*
G54D10*
G01X12006252Y0206252D03*
G01X12006252Y0340626D03*
G01X12006252Y-153126D03*
G01X12006252Y-018748D03*
G54D20*
G01X6812500Y-2840622D03*
G01X6812500Y-2890622D03*
G01X6812500Y-2940622D03*
G01X6812500Y-2990622D03*
G01X6812500Y-3040622D03*
G01X6812500Y-3090622D03*
G01X6812500Y-3140622D03*
G01X6565626Y-2840622D03*
G01X6565626Y-2890622D03*
G01X6565626Y-2940622D03*
G01X6565626Y-2990622D03*
G01X6565626Y-3040622D03*
G01X6565626Y-3090622D03*
G01X6565626Y-3140622D03*
G01X6812500Y-3290622D03*
G01X6812500Y-3340622D03*
G01X6812500Y-3390622D03*
G01X6812500Y-3440622D03*
G01X6812500Y-3490622D03*
G01X6812500Y-3540622D03*
G01X6812500Y-3590622D03*
G01X6565626Y-3290622D03*
G01X6565626Y-3340622D03*
G01X6565626Y-3390622D03*
G01X6565626Y-3440622D03*
G01X6565626Y-3490622D03*
G01X6565626Y-3540622D03*
G01X6565626Y-3590622D03*
G01X8506252Y0540626D03*
G01X8506252Y0490626D03*
G01X8506252Y0440626D03*
G01X8506252Y0390626D03*
G01X8506252Y0340626D03*
G01X8506252Y0290626D03*
G01X8506252Y0240626D03*
G01X8259378Y0540626D03*
G01X8259378Y0490626D03*
G01X8259378Y0440626D03*
G01X8259378Y0390626D03*
G01X8259378Y0340626D03*
G01X8259378Y0290626D03*
G01X8259378Y0240626D03*
G01X7815626Y1868748D03*
G01X7815626Y1818748D03*
G01X7815626Y1768748D03*
G01X7815626Y1718748D03*
G01X7815626Y1668748D03*
G01X7815626Y1618748D03*
G01X7815626Y1568748D03*
G01X7568752Y1868748D03*
G01X7568752Y1818748D03*
G01X7568752Y1768748D03*
G01X7568752Y1718748D03*
G01X7568752Y1668748D03*
G01X7568752Y1618748D03*
G01X7568752Y1568748D03*
G01X7818752Y2368748D03*
G01X7818752Y2318748D03*
G01X7818752Y2268748D03*
G01X7818752Y2218748D03*
G01X7818752Y2168748D03*
G01X7818752Y2118748D03*
G01X7818752Y2068748D03*
G01X7571874Y2368748D03*
G01X7571874Y2318748D03*
G01X7571874Y2268748D03*
G01X7571874Y2218748D03*
G01X7571874Y2168748D03*
G01X7571874Y2118748D03*
G01X7571874Y2068748D03*
G01X12621874Y-031252D03*
G01X12621874Y-081252D03*
G01X12621874Y-131252D03*
G01X12621874Y-181252D03*
G01X12621874Y-231252D03*
G01X12621874Y-281252D03*
G01X12621874Y-331252D03*
G01X12621874Y-381252D03*
G01X12378126Y-031252D03*
G01X12378126Y-081252D03*
G01X12378126Y-131252D03*
G01X12378126Y-181252D03*
G01X12378126Y-231252D03*
G01X12378126Y-281252D03*
G01X12378126Y-331252D03*
G01X12378126Y-381252D03*
G54D16*
G01X11931252Y-1321874D03*
G01X11931252Y-1112500D03*
G54D20*
G01X12175000Y3737500D03*
G01X12175000Y3687500D03*
G01X12175000Y3637500D03*
G01X12175000Y3587500D03*
G01X12175000Y3537500D03*
G01X12175000Y3487500D03*
G01X12175000Y3437500D03*
G01X12175000Y3387500D03*
G01X11931252Y3737500D03*
G01X11931252Y3687500D03*
G01X11931252Y3637500D03*
G01X11931252Y3587500D03*
G01X11931252Y3537500D03*
G01X11931252Y3487500D03*
G01X11931252Y3437500D03*
G01X11931252Y3387500D03*
G01X10484374Y3675000D03*
G01X10484374Y3625000D03*
G01X10484374Y3575000D03*
G01X10484374Y3525000D03*
G01X10484374Y3475000D03*
G01X10484374Y3425000D03*
G01X10484374Y3375000D03*
G01X10237500Y3675000D03*
G01X10237500Y3625000D03*
G01X10237500Y3575000D03*
G01X10237500Y3525000D03*
G01X10237500Y3475000D03*
G01X10237500Y3425000D03*
G01X10237500Y3375000D03*
G54D21*
G01X6475000Y-1804713D03*
G01X6475000Y-1829713D03*
G01X6475000Y-1854713D03*
G01X6475000Y-1879713D03*
G01X6475000Y-1904713D03*
G01X6475000Y-1929713D03*
G01X6475000Y-1954713D03*
G01X6475000Y-1979713D03*
G01X6475000Y-2004713D03*
G01X6475000Y-2029713D03*
G01X6475000Y-2054713D03*
G01X6475000Y-2079713D03*
G01X6475000Y-2104713D03*
G01X6475000Y-2129713D03*
G01X6475000Y-2154713D03*
G01X6475000Y-2179713D03*
G01X6475000Y-2204713D03*
G01X6475000Y-2229713D03*
G01X6475000Y-2254713D03*
G01X6475000Y-2279713D03*
G01X6475000Y-2304713D03*
G01X6475000Y-2329713D03*
G01X6475000Y-2354713D03*
G01X6475000Y-2379713D03*
G01X6817189Y-1804713D03*
G01X6817189Y-1829713D03*
G01X6817189Y-1854713D03*
G01X6817189Y-1879713D03*
G01X6817189Y-1904713D03*
G01X6817189Y-1929713D03*
G01X6817189Y-1954713D03*
G01X6817189Y-1979713D03*
G01X6817189Y-2004713D03*
G01X6817189Y-2029713D03*
G01X6817189Y-2054713D03*
G01X6817189Y-2079713D03*
G01X6817189Y-2104713D03*
G01X6817189Y-2129713D03*
G01X6817189Y-2154713D03*
G01X6817189Y-2179713D03*
G01X6817189Y-2204713D03*
G01X6817189Y-2229713D03*
G01X6817189Y-2254713D03*
G01X6817189Y-2279713D03*
G01X6817189Y-2304713D03*
G01X6817189Y-2329713D03*
G01X6817189Y-2354713D03*
G01X6817189Y-2379713D03*
G01X11203126Y-900000D03*
G01X11203126Y-925000D03*
G01X11203126Y-950000D03*
G01X11203126Y-975000D03*
G01X11203126Y-1000000D03*
G01X11203126Y-1025000D03*
G01X11203126Y-1050000D03*
G01X11203126Y-1075000D03*
G01X11203126Y-1100000D03*
G01X11203126Y-1125000D03*
G01X11203126Y-1150000D03*
G01X11203126Y-1175000D03*
G01X11203126Y-1200000D03*
G01X11203126Y-1225000D03*
G01X11203126Y-1250000D03*
G01X11203126Y-1275000D03*
G01X11203126Y-1300000D03*
G01X11203126Y-1325000D03*
G01X11203126Y-1350000D03*
G01X11203126Y-1375000D03*
G01X11203126Y-1400000D03*
G01X11203126Y-1425000D03*
G01X11203126Y-1450000D03*
G01X11203126Y-1475000D03*
G01X11545311Y-900000D03*
G01X11545311Y-925000D03*
G01X11545311Y-950000D03*
G01X11545311Y-975000D03*
G01X11545315Y-1000000D03*
G01X11545315Y-1025000D03*
G01X11545315Y-1050000D03*
G01X11545315Y-1075000D03*
G01X11545311Y-1100000D03*
G01X11545311Y-1125000D03*
G01X11545311Y-1150000D03*
G01X11545311Y-1175000D03*
G01X11545315Y-1200000D03*
G01X11545315Y-1225000D03*
G01X11545315Y-1250000D03*
G01X11545315Y-1275000D03*
G01X11545311Y-1300000D03*
G01X11545311Y-1325000D03*
G01X11545311Y-1350000D03*
G01X11545311Y-1375000D03*
G01X11545315Y-1400000D03*
G01X11545315Y-1425000D03*
G01X11545315Y-1450000D03*
G01X11545315Y-1475000D03*
G01X12335937Y1032811D03*
G01X12335937Y1007811D03*
G01X12335937Y0982811D03*
G01X12335937Y0957811D03*
G01X12335937Y0932811D03*
G01X12335937Y0907811D03*
G01X12335937Y0882811D03*
G01X12335937Y0857811D03*
G01X12335937Y0832811D03*
G01X12335937Y0807811D03*
G01X12335937Y0782811D03*
G01X12335937Y0757811D03*
G01X12335937Y0732811D03*
G01X12335937Y0707811D03*
G01X12335937Y0682811D03*
G01X12335937Y0657811D03*
G01X12335937Y0632811D03*
G01X12335937Y0607811D03*
G01X12335937Y0582811D03*
G01X12335937Y0557811D03*
G01X12335937Y0532811D03*
G01X12335937Y0507811D03*
G01X12335937Y0482811D03*
G01X12335937Y0457811D03*
G01X12678126Y1032811D03*
G01X12678126Y1007811D03*
G01X12678126Y0982811D03*
G01X12678126Y0957811D03*
G01X12678126Y0932811D03*
G01X12678126Y0907811D03*
G01X12678126Y0882811D03*
G01X12678126Y0857811D03*
G01X12678126Y0832811D03*
G01X12678126Y0807811D03*
G01X12678126Y0782811D03*
G01X12678126Y0757811D03*
G01X12678126Y0732811D03*
G01X12678126Y0707811D03*
G01X12678126Y0682811D03*
G01X12678126Y0657811D03*
G01X12678126Y0632811D03*
G01X12678126Y0607811D03*
G01X12678126Y0582811D03*
G01X12678126Y0557811D03*
G01X12678126Y0532811D03*
G01X12678126Y0507811D03*
G01X12678126Y0482811D03*
G01X12678126Y0457811D03*
G01X12335937Y-901563D03*
G01X12335937Y-926563D03*
G01X12335937Y-951563D03*
G01X12335937Y-976563D03*
G01X12335937Y-1001563D03*
G01X12335937Y-1026563D03*
G01X12335937Y-1051563D03*
G01X12335937Y-1076563D03*
G01X12335937Y-1101563D03*
G01X12335937Y-1126563D03*
G01X12335937Y-1151563D03*
G01X12335937Y-1176563D03*
G01X12335937Y-1201563D03*
G01X12335937Y-1226563D03*
G01X12335937Y-1251563D03*
G01X12335937Y-1276563D03*
G01X12335937Y-1301563D03*
G01X12335937Y-1326563D03*
G01X12335937Y-1351563D03*
G01X12335937Y-1376563D03*
G01X12335937Y-1401563D03*
G01X12335937Y-1426563D03*
G01X12335937Y-1451563D03*
G01X12335937Y-1476563D03*
G01X12678126Y-901563D03*
G01X12678126Y-926563D03*
G01X12678126Y-951563D03*
G01X12678126Y-976563D03*
G01X12678126Y-1001563D03*
G01X12678126Y-1026563D03*
G01X12678126Y-1051563D03*
G01X12678126Y-1076563D03*
G01X12678126Y-1101563D03*
G01X12678126Y-1126563D03*
G01X12678126Y-1151563D03*
G01X12678126Y-1176563D03*
G01X12678126Y-1201563D03*
G01X12678126Y-1226563D03*
G01X12678126Y-1251563D03*
G01X12678126Y-1276563D03*
G01X12678126Y-1301563D03*
G01X12678126Y-1326563D03*
G01X12678126Y-1351563D03*
G01X12678126Y-1376563D03*
G01X12678126Y-1401563D03*
G01X12678126Y-1426563D03*
G01X12678126Y-1451563D03*
G01X12678126Y-1476563D03*
G01X7207811Y-1823465D03*
G01X7207811Y-1848465D03*
G01X7207811Y-1873465D03*
G01X7207811Y-1898465D03*
G01X7207811Y-1923465D03*
G01X7207811Y-1948465D03*
G01X7207811Y-1973465D03*
G01X7207811Y-1998465D03*
G01X7207811Y-2023465D03*
G01X7207811Y-2048465D03*
G01X7207811Y-2073465D03*
G01X7207811Y-2098465D03*
G01X7207811Y-2123465D03*
G01X7207811Y-2148465D03*
G01X7207811Y-2173465D03*
G01X7207811Y-2198465D03*
G01X7207811Y-2223465D03*
G01X7207811Y-2248465D03*
G01X7207811Y-2273465D03*
G01X7207811Y-2298465D03*
G01X7207811Y-2323465D03*
G01X7207811Y-2348465D03*
G01X7207811Y-2373465D03*
G01X7207811Y-2398465D03*
G01X7207811Y-2423465D03*
G01X7207811Y-2448465D03*
G01X7207811Y-2473465D03*
G01X7207811Y-2498465D03*
G01X7551563Y-1823465D03*
G01X7551563Y-1848465D03*
G01X7551563Y-1873465D03*
G01X7551563Y-1898465D03*
G01X7551563Y-1923465D03*
G01X7551563Y-1948465D03*
G01X7551563Y-1973465D03*
G01X7551563Y-1998465D03*
G01X7551563Y-2023465D03*
G01X7551563Y-2048465D03*
G01X7551563Y-2073465D03*
G01X7551563Y-2098465D03*
G01X7551563Y-2123465D03*
G01X7551563Y-2148465D03*
G01X7551563Y-2173465D03*
G01X7551563Y-2198465D03*
G01X7551563Y-2223465D03*
G01X7551563Y-2248465D03*
G01X7551563Y-2273465D03*
G01X7551563Y-2298465D03*
G01X7551563Y-2323465D03*
G01X7551563Y-2348465D03*
G01X7551563Y-2373465D03*
G01X7551563Y-2398465D03*
G01X7551563Y-2423465D03*
G01X7551563Y-2448465D03*
G01X7551563Y-2473465D03*
G01X7551563Y-2498465D03*
G01X7207811Y-2835961D03*
G01X7207811Y-2860961D03*
G01X7207811Y-2885961D03*
G01X7207811Y-2910961D03*
G01X7207811Y-2935961D03*
G01X7207811Y-2960961D03*
G01X7207811Y-2985961D03*
G01X7207811Y-3010961D03*
G01X7207811Y-3035961D03*
G01X7207811Y-3060961D03*
G01X7207811Y-3085961D03*
G01X7207811Y-3110961D03*
G01X7207811Y-3135961D03*
G01X7207811Y-3160961D03*
G01X7207811Y-3185961D03*
G01X7207811Y-3210961D03*
G01X7207811Y-3235961D03*
G01X7207811Y-3260961D03*
G01X7207811Y-3285961D03*
G01X7207811Y-3310961D03*
G01X7207811Y-3335961D03*
G01X7207811Y-3360961D03*
G01X7207811Y-3385961D03*
G01X7207811Y-3410961D03*
G01X7207811Y-3435961D03*
G01X7207811Y-3460961D03*
G01X7207811Y-3485961D03*
G01X7207811Y-3510961D03*
G01X7551563Y-2835961D03*
G01X7551563Y-2860961D03*
G01X7551563Y-2885961D03*
G01X7551563Y-2910961D03*
G01X7551563Y-2935961D03*
G01X7551563Y-2960961D03*
G01X7551563Y-2985961D03*
G01X7551563Y-3010961D03*
G01X7551563Y-3035961D03*
G01X7551563Y-3060961D03*
G01X7551563Y-3085961D03*
G01X7551563Y-3110961D03*
G01X7551563Y-3135961D03*
G01X7551563Y-3160961D03*
G01X7551563Y-3185961D03*
G01X7551563Y-3210961D03*
G01X7551563Y-3235961D03*
G01X7551563Y-3260961D03*
G01X7551563Y-3285961D03*
G01X7551563Y-3310961D03*
G01X7551563Y-3335961D03*
G01X7551563Y-3360961D03*
G01X7551563Y-3385961D03*
G01X7551563Y-3410961D03*
G01X7551563Y-3435961D03*
G01X7551563Y-3460961D03*
G01X7551563Y-3485961D03*
G01X7551563Y-3510961D03*
G54D23*
G01X12387500Y-4662500D03*
G01X12387500Y-4831252D03*
M02*
