%FSLAX34Y34*%
%MOMM*%
%LNSMDMASK_BOTTOM*%
G71*
G01*
%ADD10R,1.100X1.700*%
%ADD11R,1.700X1.100*%
%ADD12R,2.100X1.700*%
%LPD*%
X1016794Y929481D02*
G54D10*
D03*
X1016794Y895350D02*
G54D10*
D03*
X1042194Y929481D02*
G54D10*
D03*
X1042194Y895350D02*
G54D10*
D03*
X1067594Y929481D02*
G54D10*
D03*
X1067594Y895350D02*
G54D10*
D03*
X1118394Y929481D02*
G54D10*
D03*
X1118394Y895350D02*
G54D10*
D03*
X1143794Y929481D02*
G54D10*
D03*
X1143794Y895350D02*
G54D10*
D03*
X1169194Y929481D02*
G54D10*
D03*
X1169194Y895350D02*
G54D10*
D03*
X1194594Y929481D02*
G54D10*
D03*
X1194594Y895350D02*
G54D10*
D03*
X1219994Y929481D02*
G54D10*
D03*
X1219994Y895350D02*
G54D10*
D03*
X1245394Y895350D02*
G54D10*
D03*
X1245394Y929481D02*
G54D10*
D03*
X1270794Y895350D02*
G54D10*
D03*
X1270794Y929481D02*
G54D10*
D03*
X264319Y894556D02*
G54D10*
D03*
X264319Y928688D02*
G54D10*
D03*
X454819Y781050D02*
G54D10*
D03*
X454819Y815181D02*
G54D10*
D03*
X606425Y750094D02*
G54D10*
D03*
X606425Y784225D02*
G54D10*
D03*
X692944Y884238D02*
G54D10*
D03*
X692944Y918369D02*
G54D10*
D03*
X753269Y750094D02*
G54D10*
D03*
X753269Y784225D02*
G54D10*
D03*
X860425Y882650D02*
G54D10*
D03*
X860425Y916781D02*
G54D10*
D03*
X1296194Y895350D02*
G54D10*
D03*
X1296194Y929481D02*
G54D10*
D03*
X1321594Y895350D02*
G54D10*
D03*
X1321594Y929481D02*
G54D10*
D03*
X1346994Y895350D02*
G54D10*
D03*
X1346994Y929481D02*
G54D10*
D03*
X1372394Y895350D02*
G54D10*
D03*
X1372394Y929481D02*
G54D10*
D03*
X1397794Y895350D02*
G54D10*
D03*
X1397794Y929481D02*
G54D10*
D03*
X1423194Y895350D02*
G54D10*
D03*
X1423194Y929481D02*
G54D10*
D03*
X1448594Y895350D02*
G54D10*
D03*
X1448594Y929481D02*
G54D10*
D03*
X1473994Y895350D02*
G54D10*
D03*
X1473994Y929481D02*
G54D10*
D03*
X1499394Y895350D02*
G54D10*
D03*
X1499394Y929481D02*
G54D10*
D03*
X1524794Y895350D02*
G54D10*
D03*
X1524794Y929481D02*
G54D10*
D03*
X1550194Y895350D02*
G54D10*
D03*
X1550194Y929481D02*
G54D10*
D03*
X1575594Y895350D02*
G54D10*
D03*
X1575594Y929481D02*
G54D10*
D03*
X1600994Y895350D02*
G54D10*
D03*
X1600994Y929481D02*
G54D10*
D03*
X1626394Y895350D02*
G54D10*
D03*
X1626394Y929481D02*
G54D10*
D03*
X1754188Y896144D02*
G54D10*
D03*
X1754188Y930275D02*
G54D10*
D03*
X1779588Y896144D02*
G54D10*
D03*
X1779588Y930275D02*
G54D10*
D03*
X1804194Y896144D02*
G54D10*
D03*
X1804194Y930275D02*
G54D10*
D03*
X1829594Y896144D02*
G54D10*
D03*
X1829594Y930275D02*
G54D10*
D03*
X1855788Y896144D02*
G54D10*
D03*
X1855788Y930275D02*
G54D10*
D03*
X1906588Y896144D02*
G54D10*
D03*
X1906588Y930275D02*
G54D10*
D03*
X1931988Y896144D02*
G54D10*
D03*
X1931988Y930275D02*
G54D10*
D03*
X1957388Y896144D02*
G54D10*
D03*
X1957388Y930275D02*
G54D10*
D03*
X1982788Y896144D02*
G54D10*
D03*
X1982788Y930275D02*
G54D10*
D03*
X2008188Y896144D02*
G54D10*
D03*
X2008188Y930275D02*
G54D10*
D03*
X2033588Y896144D02*
G54D10*
D03*
X2033588Y930275D02*
G54D10*
D03*
X2058988Y896144D02*
G54D10*
D03*
X2058988Y930275D02*
G54D10*
D03*
X2084388Y896144D02*
G54D10*
D03*
X2084388Y930275D02*
G54D10*
D03*
X2109788Y896144D02*
G54D10*
D03*
X2109788Y930275D02*
G54D10*
D03*
X2135188Y896144D02*
G54D10*
D03*
X2135188Y930275D02*
G54D10*
D03*
X2159794Y895350D02*
G54D10*
D03*
X2159794Y929481D02*
G54D10*
D03*
X2287588Y895350D02*
G54D10*
D03*
X2287588Y929481D02*
G54D10*
D03*
X2262188Y895350D02*
G54D10*
D03*
X2262188Y929481D02*
G54D10*
D03*
X2236788Y895350D02*
G54D10*
D03*
X2236788Y929481D02*
G54D10*
D03*
X2210594Y895350D02*
G54D10*
D03*
X2210594Y929481D02*
G54D10*
D03*
X2185194Y895350D02*
G54D10*
D03*
X2185194Y929481D02*
G54D10*
D03*
X2453481Y807244D02*
G54D10*
D03*
X2453481Y841375D02*
G54D10*
D03*
X2478881Y807244D02*
G54D10*
D03*
X2478881Y841375D02*
G54D10*
D03*
X2870200Y792162D02*
G54D10*
D03*
X2870200Y826294D02*
G54D10*
D03*
X2895600Y792162D02*
G54D10*
D03*
X2895600Y826294D02*
G54D10*
D03*
X2921000Y792162D02*
G54D10*
D03*
X2921000Y826294D02*
G54D10*
D03*
X2921000Y695325D02*
G54D10*
D03*
X2921000Y729456D02*
G54D10*
D03*
X2895600Y695325D02*
G54D10*
D03*
X2895600Y729456D02*
G54D10*
D03*
X2870200Y695325D02*
G54D10*
D03*
X2870200Y729456D02*
G54D10*
D03*
X2718594Y579438D02*
G54D10*
D03*
X2718594Y613569D02*
G54D10*
D03*
X2463006Y578644D02*
G54D10*
D03*
X2463006Y612775D02*
G54D10*
D03*
X2310606Y616744D02*
G54D10*
D03*
X2310606Y650875D02*
G54D10*
D03*
X2195512Y654844D02*
G54D10*
D03*
X2195512Y688975D02*
G54D10*
D03*
X2170112Y654844D02*
G54D10*
D03*
X2170112Y688975D02*
G54D10*
D03*
X2144712Y654844D02*
G54D10*
D03*
X2144712Y688975D02*
G54D10*
D03*
X2119312Y654844D02*
G54D10*
D03*
X2119312Y688975D02*
G54D10*
D03*
X2093912Y654844D02*
G54D10*
D03*
X2093912Y688975D02*
G54D10*
D03*
X2008188Y571500D02*
G54D10*
D03*
X2008188Y605631D02*
G54D10*
D03*
X1707356Y568325D02*
G54D10*
D03*
X1707356Y602456D02*
G54D10*
D03*
X822325Y335756D02*
G54D10*
D03*
X822325Y369888D02*
G54D10*
D03*
X1064419Y527050D02*
G54D10*
D03*
X1064419Y561181D02*
G54D10*
D03*
X1115219Y527050D02*
G54D10*
D03*
X1115219Y561181D02*
G54D10*
D03*
X1064419Y400050D02*
G54D10*
D03*
X1064419Y434181D02*
G54D10*
D03*
X1089819Y400050D02*
G54D10*
D03*
X1089819Y434181D02*
G54D10*
D03*
X1727994Y288131D02*
G54D10*
D03*
X1727994Y322262D02*
G54D10*
D03*
X1708150Y461169D02*
G54D10*
D03*
X1708150Y495300D02*
G54D10*
D03*
X1369219Y425450D02*
G54D10*
D03*
X1369219Y459581D02*
G54D10*
D03*
X1343819Y425450D02*
G54D10*
D03*
X1343819Y459581D02*
G54D10*
D03*
X1244600Y488950D02*
G54D10*
D03*
X1244600Y523081D02*
G54D10*
D03*
X1369219Y552450D02*
G54D10*
D03*
X1369219Y586581D02*
G54D10*
D03*
X1343819Y552450D02*
G54D10*
D03*
X1343819Y586581D02*
G54D10*
D03*
X1318419Y552450D02*
G54D10*
D03*
X1318419Y586581D02*
G54D10*
D03*
X1270000Y552450D02*
G54D10*
D03*
X1270000Y586581D02*
G54D10*
D03*
X1244600Y552450D02*
G54D10*
D03*
X1244600Y586581D02*
G54D10*
D03*
X1776412Y501650D02*
G54D10*
D03*
X1776412Y535781D02*
G54D10*
D03*
X1801812Y501650D02*
G54D10*
D03*
X1801812Y535781D02*
G54D10*
D03*
X1852612Y502444D02*
G54D10*
D03*
X1852612Y536575D02*
G54D10*
D03*
X1881188Y301625D02*
G54D10*
D03*
X1881188Y335756D02*
G54D10*
D03*
X1955006Y400844D02*
G54D10*
D03*
X1955006Y434975D02*
G54D10*
D03*
X2055812Y362744D02*
G54D10*
D03*
X2055812Y396875D02*
G54D10*
D03*
X2008188Y454025D02*
G54D10*
D03*
X2008188Y488156D02*
G54D10*
D03*
X2055812Y438944D02*
G54D10*
D03*
X2055812Y473075D02*
G54D10*
D03*
X2106612Y388144D02*
G54D10*
D03*
X2106612Y422275D02*
G54D10*
D03*
X2132012Y388144D02*
G54D10*
D03*
X2132012Y422275D02*
G54D10*
D03*
X2157412Y387350D02*
G54D10*
D03*
X2157412Y421481D02*
G54D10*
D03*
X2210594Y400050D02*
G54D10*
D03*
X2210594Y434181D02*
G54D10*
D03*
X2374106Y400844D02*
G54D10*
D03*
X2374106Y434975D02*
G54D10*
D03*
X2439988Y400844D02*
G54D10*
D03*
X2439988Y434975D02*
G54D10*
D03*
X2338388Y489744D02*
G54D10*
D03*
X2338388Y523875D02*
G54D10*
D03*
X2312988Y489744D02*
G54D10*
D03*
X2312988Y523875D02*
G54D10*
D03*
X2195512Y553244D02*
G54D10*
D03*
X2195512Y587375D02*
G54D10*
D03*
X2170112Y553244D02*
G54D10*
D03*
X2170112Y587375D02*
G54D10*
D03*
X2093912Y553244D02*
G54D10*
D03*
X2093912Y587375D02*
G54D10*
D03*
X2119312Y553244D02*
G54D10*
D03*
X2119312Y587375D02*
G54D10*
D03*
X2144712Y553244D02*
G54D10*
D03*
X2144712Y587375D02*
G54D10*
D03*
X1955006Y502444D02*
G54D10*
D03*
X1955006Y536575D02*
G54D10*
D03*
X1878012Y502444D02*
G54D10*
D03*
X1878012Y536575D02*
G54D10*
D03*
X1903412Y502444D02*
G54D10*
D03*
X1903412Y536575D02*
G54D10*
D03*
X1929606Y502444D02*
G54D10*
D03*
X1929606Y536575D02*
G54D10*
D03*
X2466181Y400844D02*
G54D10*
D03*
X2466181Y434975D02*
G54D10*
D03*
X2690019Y415925D02*
G54D10*
D03*
X2690019Y450056D02*
G54D10*
D03*
X2715419Y415925D02*
G54D10*
D03*
X2715419Y450056D02*
G54D10*
D03*
X2798762Y431800D02*
G54D10*
D03*
X2798762Y465931D02*
G54D10*
D03*
X2798762Y357981D02*
G54D10*
D03*
X2798762Y392112D02*
G54D10*
D03*
X2794000Y248444D02*
G54D10*
D03*
X2794000Y282575D02*
G54D10*
D03*
X2892425Y245269D02*
G54D10*
D03*
X2892425Y279400D02*
G54D10*
D03*
X2895600Y420688D02*
G54D10*
D03*
X2895600Y454819D02*
G54D10*
D03*
X2921000Y421481D02*
G54D10*
D03*
X2921000Y455612D02*
G54D10*
D03*
X3026569Y849313D02*
G54D11*
D03*
X3060700Y849313D02*
G54D11*
D03*
X3026569Y823913D02*
G54D11*
D03*
X3060700Y823913D02*
G54D11*
D03*
X3026569Y798513D02*
G54D11*
D03*
X3060700Y798513D02*
G54D11*
D03*
X3026569Y773113D02*
G54D11*
D03*
X3060700Y773113D02*
G54D11*
D03*
X3026569Y747713D02*
G54D11*
D03*
X3060700Y747713D02*
G54D11*
D03*
X3026569Y722313D02*
G54D11*
D03*
X3060700Y722313D02*
G54D11*
D03*
X3026569Y696913D02*
G54D11*
D03*
X3060700Y696913D02*
G54D11*
D03*
X3026569Y671513D02*
G54D11*
D03*
X3060700Y671513D02*
G54D11*
D03*
X3026569Y646113D02*
G54D11*
D03*
X3060700Y646113D02*
G54D11*
D03*
X3026569Y620713D02*
G54D11*
D03*
X3060700Y620713D02*
G54D11*
D03*
X3025775Y596106D02*
G54D11*
D03*
X3059906Y596106D02*
G54D11*
D03*
X3025775Y469106D02*
G54D11*
D03*
X3059906Y469106D02*
G54D11*
D03*
X3025775Y494506D02*
G54D11*
D03*
X3059906Y494506D02*
G54D11*
D03*
X3025775Y519113D02*
G54D11*
D03*
X3059906Y519113D02*
G54D11*
D03*
X3025775Y545306D02*
G54D11*
D03*
X3059906Y545306D02*
G54D11*
D03*
X3025775Y570706D02*
G54D11*
D03*
X3059906Y570706D02*
G54D11*
D03*
X3178969Y836613D02*
G54D11*
D03*
X3213100Y836613D02*
G54D11*
D03*
X3178969Y811213D02*
G54D11*
D03*
X3213100Y811213D02*
G54D11*
D03*
X3178969Y785813D02*
G54D11*
D03*
X3213100Y785813D02*
G54D11*
D03*
X3178969Y760413D02*
G54D11*
D03*
X3213100Y760413D02*
G54D11*
D03*
X3178969Y735013D02*
G54D11*
D03*
X3213100Y735013D02*
G54D11*
D03*
X3178969Y709613D02*
G54D11*
D03*
X3213100Y709613D02*
G54D11*
D03*
X3178969Y684213D02*
G54D11*
D03*
X3213100Y684213D02*
G54D11*
D03*
X3178969Y658813D02*
G54D11*
D03*
X3213100Y658813D02*
G54D11*
D03*
X3178969Y633413D02*
G54D11*
D03*
X3213100Y633413D02*
G54D11*
D03*
X3178969Y608013D02*
G54D11*
D03*
X3213100Y608013D02*
G54D11*
D03*
X3178175Y583406D02*
G54D11*
D03*
X3212306Y583406D02*
G54D11*
D03*
X3178175Y455613D02*
G54D11*
D03*
X3212306Y455613D02*
G54D11*
D03*
X3178175Y481013D02*
G54D11*
D03*
X3212306Y481013D02*
G54D11*
D03*
X3178175Y506413D02*
G54D11*
D03*
X3212306Y506413D02*
G54D11*
D03*
X3178175Y532606D02*
G54D11*
D03*
X3212306Y532606D02*
G54D11*
D03*
X3178175Y558006D02*
G54D11*
D03*
X3212306Y558006D02*
G54D11*
D03*
X2794000Y120650D02*
G54D10*
D03*
X2794000Y154781D02*
G54D10*
D03*
X2768600Y120650D02*
G54D10*
D03*
X2768600Y154781D02*
G54D10*
D03*
X2743200Y120650D02*
G54D10*
D03*
X2743200Y154781D02*
G54D10*
D03*
X2717800Y120650D02*
G54D10*
D03*
X2717800Y154781D02*
G54D10*
D03*
X2692400Y120650D02*
G54D10*
D03*
X2692400Y154781D02*
G54D10*
D03*
X2667000Y-209550D02*
G54D10*
D03*
X2667000Y-175419D02*
G54D10*
D03*
X2692400Y-209550D02*
G54D10*
D03*
X2692400Y-175419D02*
G54D10*
D03*
X2717800Y-209550D02*
G54D10*
D03*
X2717800Y-175419D02*
G54D10*
D03*
X2743200Y-209550D02*
G54D10*
D03*
X2743200Y-175419D02*
G54D10*
D03*
X2768600Y-209550D02*
G54D10*
D03*
X2768600Y-175419D02*
G54D10*
D03*
X2794000Y-209550D02*
G54D10*
D03*
X2794000Y-175419D02*
G54D10*
D03*
X2819400Y-209550D02*
G54D10*
D03*
X2819400Y-175419D02*
G54D10*
D03*
X2844800Y-209550D02*
G54D10*
D03*
X2844800Y-175419D02*
G54D10*
D03*
X2870200Y-209550D02*
G54D10*
D03*
X2870200Y-175419D02*
G54D10*
D03*
X2895600Y-209550D02*
G54D10*
D03*
X2895600Y-175419D02*
G54D10*
D03*
X2692400Y-285750D02*
G54D10*
D03*
X2692400Y-251619D02*
G54D10*
D03*
X2717800Y-285750D02*
G54D10*
D03*
X2717800Y-251619D02*
G54D10*
D03*
X2743200Y-285750D02*
G54D10*
D03*
X2743200Y-251619D02*
G54D10*
D03*
X2768600Y-285750D02*
G54D10*
D03*
X2768600Y-251619D02*
G54D10*
D03*
X2895600Y-286544D02*
G54D10*
D03*
X2895600Y-252412D02*
G54D10*
D03*
X2870200Y-286544D02*
G54D10*
D03*
X2870200Y-252412D02*
G54D10*
D03*
X2844800Y-286544D02*
G54D10*
D03*
X2844800Y-252412D02*
G54D10*
D03*
X2819400Y-285750D02*
G54D10*
D03*
X2819400Y-251619D02*
G54D10*
D03*
X2794000Y-285750D02*
G54D10*
D03*
X2794000Y-251619D02*
G54D10*
D03*
X2101850Y-923131D02*
G54D10*
D03*
X2101850Y-889000D02*
G54D10*
D03*
X2127250Y-923131D02*
G54D10*
D03*
X2127250Y-889000D02*
G54D10*
D03*
X2152650Y-923131D02*
G54D10*
D03*
X2152650Y-889000D02*
G54D10*
D03*
X2178050Y-923131D02*
G54D10*
D03*
X2178050Y-889000D02*
G54D10*
D03*
X2203450Y-923131D02*
G54D10*
D03*
X2203450Y-889000D02*
G54D10*
D03*
X2228850Y-923131D02*
G54D10*
D03*
X2228850Y-889000D02*
G54D10*
D03*
X2254250Y-923131D02*
G54D10*
D03*
X2254250Y-889000D02*
G54D10*
D03*
X2279650Y-923131D02*
G54D10*
D03*
X2279650Y-889000D02*
G54D10*
D03*
X2305050Y-923131D02*
G54D10*
D03*
X2305050Y-889000D02*
G54D10*
D03*
X2330450Y-923131D02*
G54D10*
D03*
X2330450Y-889000D02*
G54D10*
D03*
X2355850Y-923131D02*
G54D10*
D03*
X2355850Y-889000D02*
G54D10*
D03*
X2381250Y-923131D02*
G54D10*
D03*
X2381250Y-889000D02*
G54D10*
D03*
X2407444Y-922338D02*
G54D10*
D03*
X2407444Y-888206D02*
G54D10*
D03*
X2432844Y-922338D02*
G54D10*
D03*
X2432844Y-888206D02*
G54D10*
D03*
X2458244Y-922338D02*
G54D10*
D03*
X2458244Y-888206D02*
G54D10*
D03*
X2483644Y-922338D02*
G54D10*
D03*
X2483644Y-888206D02*
G54D10*
D03*
X3025775Y392906D02*
G54D11*
D03*
X3059906Y392906D02*
G54D11*
D03*
X3025775Y418306D02*
G54D11*
D03*
X3059906Y418306D02*
G54D11*
D03*
X3025775Y443706D02*
G54D11*
D03*
X3059906Y443706D02*
G54D11*
D03*
X3178175Y430213D02*
G54D11*
D03*
X3212306Y430213D02*
G54D11*
D03*
X3178175Y404813D02*
G54D11*
D03*
X3212306Y404813D02*
G54D11*
D03*
X3178175Y380206D02*
G54D11*
D03*
X3212306Y380206D02*
G54D11*
D03*
X3178175Y252413D02*
G54D11*
D03*
X3212306Y252413D02*
G54D11*
D03*
X3178175Y277813D02*
G54D11*
D03*
X3212306Y277813D02*
G54D11*
D03*
X3178175Y303213D02*
G54D11*
D03*
X3212306Y303213D02*
G54D11*
D03*
X3178175Y329406D02*
G54D11*
D03*
X3212306Y329406D02*
G54D11*
D03*
X3178175Y354806D02*
G54D11*
D03*
X3212306Y354806D02*
G54D11*
D03*
X3209131Y125413D02*
G54D11*
D03*
X3243262Y125413D02*
G54D11*
D03*
X3209131Y150813D02*
G54D11*
D03*
X3243262Y150813D02*
G54D11*
D03*
X3209131Y176213D02*
G54D11*
D03*
X3243262Y176213D02*
G54D11*
D03*
X3209131Y201613D02*
G54D11*
D03*
X3243262Y201613D02*
G54D11*
D03*
X3209131Y227013D02*
G54D11*
D03*
X3243262Y227013D02*
G54D11*
D03*
X3026569Y354013D02*
G54D11*
D03*
X3060700Y354013D02*
G54D11*
D03*
X3026569Y315913D02*
G54D11*
D03*
X3060700Y315913D02*
G54D11*
D03*
X2667000Y-305594D02*
G54D10*
D03*
X2667000Y-271462D02*
G54D10*
D03*
X2733675Y-477044D02*
G54D10*
D03*
X2733675Y-442912D02*
G54D10*
D03*
X2759075Y-477044D02*
G54D10*
D03*
X2759075Y-442912D02*
G54D10*
D03*
X2271712Y41275D02*
G54D10*
D03*
X2271712Y75406D02*
G54D10*
D03*
X2297112Y41275D02*
G54D10*
D03*
X2297112Y75406D02*
G54D10*
D03*
X2398712Y31750D02*
G54D10*
D03*
X2398712Y65881D02*
G54D10*
D03*
X2424112Y31750D02*
G54D10*
D03*
X2424112Y65881D02*
G54D10*
D03*
X2938462Y21431D02*
G54D10*
D03*
X2938462Y55562D02*
G54D10*
D03*
X2963862Y21431D02*
G54D10*
D03*
X2963862Y55562D02*
G54D10*
D03*
X2834481Y-46831D02*
G54D10*
D03*
X2834481Y-12700D02*
G54D10*
D03*
X2809081Y-46831D02*
G54D10*
D03*
X2809081Y-12700D02*
G54D10*
D03*
X2783681Y-46831D02*
G54D10*
D03*
X2783681Y-12700D02*
G54D10*
D03*
X2758281Y-46831D02*
G54D10*
D03*
X2758281Y-12700D02*
G54D10*
D03*
X3086100Y21431D02*
G54D10*
D03*
X3086100Y55562D02*
G54D10*
D03*
X3060700Y21431D02*
G54D10*
D03*
X3060700Y55562D02*
G54D10*
D03*
X3035300Y21431D02*
G54D10*
D03*
X3035300Y55562D02*
G54D10*
D03*
X3058319Y-184150D02*
G54D10*
D03*
X3058319Y-150019D02*
G54D10*
D03*
X3083719Y-184150D02*
G54D10*
D03*
X3083719Y-150019D02*
G54D10*
D03*
X3058319Y-247650D02*
G54D10*
D03*
X3058319Y-213519D02*
G54D10*
D03*
X3083719Y-247650D02*
G54D10*
D03*
X3083719Y-213519D02*
G54D10*
D03*
X3134519Y-184150D02*
G54D10*
D03*
X3134519Y-150019D02*
G54D10*
D03*
X3083719Y-311944D02*
G54D10*
D03*
X3083719Y-277812D02*
G54D10*
D03*
X3198019Y-62706D02*
G54D10*
D03*
X3198019Y-28575D02*
G54D10*
D03*
X3258344Y-316706D02*
G54D10*
D03*
X3258344Y-282575D02*
G54D10*
D03*
X3225800Y-441325D02*
G54D10*
D03*
X3225800Y-407194D02*
G54D10*
D03*
X2788444Y-792956D02*
G54D10*
D03*
X2788444Y-758825D02*
G54D10*
D03*
X2532062Y-828675D02*
G54D10*
D03*
X2532062Y-794544D02*
G54D10*
D03*
X2493169Y-765175D02*
G54D10*
D03*
X2493169Y-731044D02*
G54D10*
D03*
X2383631Y-581819D02*
G54D10*
D03*
X2383631Y-547688D02*
G54D10*
D03*
X2493169Y-828675D02*
G54D10*
D03*
X2493169Y-794544D02*
G54D10*
D03*
X2580481Y-940594D02*
G54D10*
D03*
X2580481Y-906462D02*
G54D10*
D03*
X730250Y-319088D02*
G54D10*
D03*
X730250Y-284956D02*
G54D10*
D03*
X704850Y-319088D02*
G54D10*
D03*
X704850Y-284956D02*
G54D10*
D03*
X679450Y-319088D02*
G54D10*
D03*
X679450Y-284956D02*
G54D10*
D03*
X654050Y-319088D02*
G54D10*
D03*
X654050Y-284956D02*
G54D10*
D03*
X628650Y-319088D02*
G54D10*
D03*
X628650Y-284956D02*
G54D10*
D03*
X730250Y-411162D02*
G54D10*
D03*
X730250Y-377031D02*
G54D10*
D03*
X704850Y-411162D02*
G54D10*
D03*
X704850Y-377031D02*
G54D10*
D03*
X679450Y-411162D02*
G54D10*
D03*
X679450Y-377031D02*
G54D10*
D03*
X654050Y-411162D02*
G54D10*
D03*
X654050Y-377031D02*
G54D10*
D03*
X628650Y-411162D02*
G54D10*
D03*
X628650Y-377031D02*
G54D10*
D03*
X760412Y-344488D02*
G54D10*
D03*
X760412Y-310356D02*
G54D10*
D03*
X681831Y-7938D02*
G54D10*
D03*
X681831Y26194D02*
G54D10*
D03*
X656431Y-7938D02*
G54D10*
D03*
X656431Y26194D02*
G54D10*
D03*
X94456Y49212D02*
G54D10*
D03*
X94456Y83344D02*
G54D10*
D03*
X69056Y49212D02*
G54D10*
D03*
X69056Y83344D02*
G54D10*
D03*
X319088Y183356D02*
G54D10*
D03*
X319088Y217488D02*
G54D10*
D03*
X1554956Y76994D02*
G54D10*
D03*
X1554956Y111125D02*
G54D10*
D03*
X1529556Y76994D02*
G54D10*
D03*
X1529556Y111125D02*
G54D10*
D03*
X1663700Y76994D02*
G54D10*
D03*
X1663700Y111125D02*
G54D10*
D03*
X1638300Y76994D02*
G54D10*
D03*
X1638300Y111125D02*
G54D10*
D03*
X1416844Y109538D02*
G54D10*
D03*
X1416844Y143669D02*
G54D10*
D03*
X1391444Y109538D02*
G54D10*
D03*
X1391444Y143669D02*
G54D10*
D03*
X1366044Y109538D02*
G54D10*
D03*
X1366044Y143669D02*
G54D10*
D03*
X2551906Y-62706D02*
G54D10*
D03*
X2551906Y-28575D02*
G54D10*
D03*
X2526506Y-62706D02*
G54D10*
D03*
X2526506Y-28575D02*
G54D10*
D03*
X2501106Y-62706D02*
G54D10*
D03*
X2501106Y-28575D02*
G54D10*
D03*
X2474912Y-62706D02*
G54D10*
D03*
X2474912Y-28575D02*
G54D10*
D03*
X2449512Y-62706D02*
G54D10*
D03*
X2449512Y-28575D02*
G54D10*
D03*
X2516188Y-126206D02*
G54D10*
D03*
X2516188Y-92075D02*
G54D10*
D03*
X2490788Y-126206D02*
G54D10*
D03*
X2490788Y-92075D02*
G54D10*
D03*
X2465388Y-126206D02*
G54D10*
D03*
X2465388Y-92075D02*
G54D10*
D03*
X2439988Y-126206D02*
G54D10*
D03*
X2439988Y-92075D02*
G54D10*
D03*
X2424906Y-52388D02*
G54D10*
D03*
X2424906Y-18256D02*
G54D10*
D03*
X1796256Y-1320800D02*
G54D10*
D03*
X1796256Y-1286669D02*
G54D10*
D03*
X1821656Y-1320800D02*
G54D10*
D03*
X1821656Y-1286669D02*
G54D10*
D03*
X1847056Y-1320800D02*
G54D10*
D03*
X1847056Y-1286669D02*
G54D10*
D03*
X1872456Y-1320800D02*
G54D10*
D03*
X1872456Y-1286669D02*
G54D10*
D03*
X1898650Y-1320006D02*
G54D10*
D03*
X1898650Y-1285875D02*
G54D10*
D03*
X1923256Y-1320006D02*
G54D10*
D03*
X1923256Y-1285875D02*
G54D10*
D03*
X1948656Y-1320006D02*
G54D10*
D03*
X1948656Y-1285875D02*
G54D10*
D03*
X1974056Y-1320006D02*
G54D10*
D03*
X1974056Y-1285875D02*
G54D10*
D03*
X2050256Y-1320800D02*
G54D10*
D03*
X2050256Y-1286669D02*
G54D10*
D03*
X2075656Y-1320800D02*
G54D10*
D03*
X2075656Y-1286669D02*
G54D10*
D03*
X2101056Y-1320800D02*
G54D10*
D03*
X2101056Y-1286669D02*
G54D10*
D03*
X2126456Y-1320800D02*
G54D10*
D03*
X2126456Y-1286669D02*
G54D10*
D03*
X2152650Y-1320800D02*
G54D10*
D03*
X2152650Y-1286669D02*
G54D10*
D03*
X2177256Y-1320800D02*
G54D10*
D03*
X2177256Y-1286669D02*
G54D10*
D03*
X2202656Y-1320800D02*
G54D10*
D03*
X2202656Y-1286669D02*
G54D10*
D03*
X2228056Y-1320800D02*
G54D10*
D03*
X2228056Y-1286669D02*
G54D10*
D03*
X2330450Y-1320800D02*
G54D10*
D03*
X2330450Y-1286669D02*
G54D10*
D03*
X2355850Y-1320800D02*
G54D10*
D03*
X2355850Y-1286669D02*
G54D10*
D03*
X2381250Y-1320800D02*
G54D10*
D03*
X2381250Y-1286669D02*
G54D10*
D03*
X2406650Y-1320800D02*
G54D10*
D03*
X2406650Y-1286669D02*
G54D10*
D03*
X2432050Y-1320800D02*
G54D10*
D03*
X2432050Y-1286669D02*
G54D10*
D03*
X2457450Y-1320800D02*
G54D10*
D03*
X2457450Y-1286669D02*
G54D10*
D03*
X2482850Y-1320800D02*
G54D10*
D03*
X2482850Y-1286669D02*
G54D10*
D03*
X2508250Y-1320800D02*
G54D10*
D03*
X2508250Y-1286669D02*
G54D10*
D03*
X2533650Y-1320006D02*
G54D10*
D03*
X2533650Y-1285875D02*
G54D10*
D03*
X2559050Y-1320006D02*
G54D10*
D03*
X2559050Y-1285875D02*
G54D10*
D03*
X2585244Y-1320006D02*
G54D10*
D03*
X2585244Y-1285875D02*
G54D10*
D03*
X2610644Y-1320006D02*
G54D10*
D03*
X2610644Y-1285875D02*
G54D10*
D03*
X2636044Y-1320006D02*
G54D10*
D03*
X2636044Y-1285875D02*
G54D10*
D03*
X2661444Y-1320006D02*
G54D10*
D03*
X2661444Y-1285875D02*
G54D10*
D03*
X2686844Y-1320006D02*
G54D10*
D03*
X2686844Y-1285875D02*
G54D10*
D03*
X2712244Y-1320006D02*
G54D10*
D03*
X2712244Y-1285875D02*
G54D10*
D03*
X2737644Y-1320006D02*
G54D10*
D03*
X2737644Y-1285875D02*
G54D10*
D03*
X2763044Y-1320006D02*
G54D10*
D03*
X2763044Y-1285875D02*
G54D10*
D03*
X2788444Y-1320006D02*
G54D10*
D03*
X2788444Y-1285875D02*
G54D10*
D03*
X2813844Y-1320006D02*
G54D10*
D03*
X2813844Y-1285875D02*
G54D10*
D03*
X2890044Y-1320006D02*
G54D10*
D03*
X2890044Y-1285875D02*
G54D10*
D03*
X2915444Y-1320006D02*
G54D10*
D03*
X2915444Y-1285875D02*
G54D10*
D03*
X2940844Y-1320006D02*
G54D10*
D03*
X2940844Y-1285875D02*
G54D10*
D03*
X2966244Y-1320006D02*
G54D10*
D03*
X2966244Y-1285875D02*
G54D10*
D03*
X2992438Y-1320006D02*
G54D10*
D03*
X2992438Y-1285875D02*
G54D10*
D03*
X3017044Y-1320006D02*
G54D10*
D03*
X3017044Y-1285875D02*
G54D10*
D03*
X3042444Y-1320006D02*
G54D10*
D03*
X3042444Y-1285875D02*
G54D10*
D03*
X3067844Y-1320006D02*
G54D10*
D03*
X3067844Y-1285875D02*
G54D10*
D03*
X99219Y-1525588D02*
G54D10*
D03*
X99219Y-1491456D02*
G54D10*
D03*
X124619Y-1525588D02*
G54D10*
D03*
X124619Y-1491456D02*
G54D10*
D03*
X150019Y-1525588D02*
G54D10*
D03*
X150019Y-1491456D02*
G54D10*
D03*
X211138Y-1307306D02*
G54D10*
D03*
X211138Y-1273175D02*
G54D10*
D03*
X236538Y-1307306D02*
G54D10*
D03*
X236538Y-1273175D02*
G54D10*
D03*
X287338Y-1306512D02*
G54D10*
D03*
X287338Y-1272381D02*
G54D10*
D03*
X287338Y-1141412D02*
G54D10*
D03*
X287338Y-1107281D02*
G54D10*
D03*
X498475Y-924719D02*
G54D10*
D03*
X498475Y-890588D02*
G54D10*
D03*
X185738Y-1217612D02*
G54D10*
D03*
X185738Y-1183481D02*
G54D10*
D03*
X211138Y-1217612D02*
G54D10*
D03*
X211138Y-1183481D02*
G54D10*
D03*
X236538Y-1217612D02*
G54D10*
D03*
X236538Y-1183481D02*
G54D10*
D03*
X261938Y-1217612D02*
G54D10*
D03*
X261938Y-1183481D02*
G54D10*
D03*
X287338Y-1217612D02*
G54D10*
D03*
X287338Y-1183481D02*
G54D10*
D03*
X1272381Y-1135062D02*
G54D10*
D03*
X1272381Y-1100931D02*
G54D10*
D03*
X1566862Y-1115219D02*
G54D10*
D03*
X1566862Y-1081088D02*
G54D10*
D03*
X1592262Y-1115219D02*
G54D10*
D03*
X1592262Y-1081088D02*
G54D10*
D03*
X1617662Y-1115219D02*
G54D10*
D03*
X1617662Y-1081088D02*
G54D10*
D03*
X1643062Y-1115219D02*
G54D10*
D03*
X1643062Y-1081088D02*
G54D10*
D03*
X1681956Y-1115219D02*
G54D10*
D03*
X1681956Y-1081088D02*
G54D10*
D03*
X1686719Y-885825D02*
G54D10*
D03*
X1686719Y-851694D02*
G54D10*
D03*
X1581944Y-771525D02*
G54D10*
D03*
X1581944Y-737394D02*
G54D10*
D03*
X1607344Y-771525D02*
G54D10*
D03*
X1607344Y-737394D02*
G54D10*
D03*
X2083594Y-615156D02*
G54D10*
D03*
X2083594Y-581025D02*
G54D10*
D03*
X1663700Y-230981D02*
G54D10*
D03*
X1663700Y-196850D02*
G54D10*
D03*
X1890712Y-215106D02*
G54D10*
D03*
X1890712Y-180975D02*
G54D10*
D03*
X1893094Y-19050D02*
G54D10*
D03*
X1893094Y15081D02*
G54D10*
D03*
X2005012Y21431D02*
G54D10*
D03*
X2005012Y55562D02*
G54D10*
D03*
X2005012Y121444D02*
G54D10*
D03*
X2005012Y155575D02*
G54D10*
D03*
X2157412Y120650D02*
G54D10*
D03*
X2157412Y154781D02*
G54D10*
D03*
X2254250Y120650D02*
G54D10*
D03*
X2254250Y154781D02*
G54D10*
D03*
X2309812Y120650D02*
G54D10*
D03*
X2309812Y154781D02*
G54D10*
D03*
X2412206Y120650D02*
G54D10*
D03*
X2412206Y154781D02*
G54D10*
D03*
X2559844Y96044D02*
G54D10*
D03*
X2559844Y130175D02*
G54D10*
D03*
X3057525Y-413544D02*
G54D10*
D03*
X3057525Y-379412D02*
G54D10*
D03*
X3083719Y-413544D02*
G54D10*
D03*
X3083719Y-379412D02*
G54D10*
D03*
X3108325Y-413544D02*
G54D10*
D03*
X3108325Y-379412D02*
G54D10*
D03*
X2654300Y-767556D02*
G54D10*
D03*
X2654300Y-733425D02*
G54D10*
D03*
X2679700Y-767556D02*
G54D10*
D03*
X2679700Y-733425D02*
G54D10*
D03*
X2572544Y-828675D02*
G54D10*
D03*
X2572544Y-794544D02*
G54D10*
D03*
X2597944Y-828675D02*
G54D10*
D03*
X2597944Y-794544D02*
G54D10*
D03*
X2654300Y-830262D02*
G54D10*
D03*
X2654300Y-796131D02*
G54D10*
D03*
X2679700Y-830262D02*
G54D10*
D03*
X2679700Y-796131D02*
G54D10*
D03*
X2679700Y-894556D02*
G54D10*
D03*
X2679700Y-860425D02*
G54D10*
D03*
X2705100Y-894556D02*
G54D10*
D03*
X2705100Y-860425D02*
G54D10*
D03*
X1219200Y89694D02*
G54D10*
D03*
X1219200Y123825D02*
G54D10*
D03*
X2228851Y-573087D02*
G54D12*
D03*
X2228850Y-607219D02*
G54D12*
D03*
M02*
