G04 This is an RS-274x file exported by *
G04 gerbv version 2.7.0 *
G04 More information is available about gerbv at *
G04 http://gerbv.geda-project.org/ *
G04 --End of header info--*
%MOIN*%
%FSLAX36Y36*%
%IPPOS*%
G04 --Define apertures--*
%ADD10R,0.0433X0.0669*%
%ADD11R,0.0827X0.0669*%
%ADD12R,0.0669X0.0827*%
%ADD13R,0.0213X0.0827*%
%ADD14R,0.0827X0.0213*%
%ADD15R,0.1378X0.0551*%
%ADD16R,0.0551X0.1378*%
%ADD17R,0.0394X0.0394*%
%ADD18R,0.0669X0.0433*%
%ADD19R,0.0276X0.1024*%
%ADD20R,0.1024X0.0276*%
%ADD21R,0.0906X0.0118*%
%ADD22R,0.1220X0.0551*%
%ADD23R,0.0551X0.1220*%
%ADD24R,0.0276X0.0827*%
%ADD25R,0.1181X0.0669*%
%ADD26R,0.0669X0.1181*%
%ADD27R,0.1220X0.0866*%
%ADD28R,0.0866X0.1220*%
%ADD29R,0.1260X0.0906*%
%ADD30R,0.0669X0.1063*%
%ADD31R,0.0886X0.0118*%
%ADD32R,0.0118X0.0886*%
G04 --Start main section--*
G54D11*
G01X1287500Y-875492D03*
G01X1287504Y-1009870D03*
G54D12*
G01X5746878Y0181252D03*
G01X5612500Y0181252D03*
G54D11*
G01X6250000Y-2150004D03*
G01X6250000Y-2015626D03*
G01X6250000Y-2400004D03*
G01X6250000Y-2265626D03*
G01X4756252Y-2512504D03*
G01X4756252Y-2378126D03*
G54D12*
G01X5821874Y-3646874D03*
G01X5956252Y-3646874D03*
G01X5118748Y-3646874D03*
G01X5253130Y-3646874D03*
G01X6084374Y-2743748D03*
G01X6218756Y-2743748D03*
G01X5721874Y-2746874D03*
G01X5856252Y-2746874D03*
G01X5387500Y-2743748D03*
G01X5521878Y-2743748D03*
G01X5028126Y-2746874D03*
G01X5162504Y-2746874D03*
G01X5118748Y-1843748D03*
G01X5253130Y-1843748D03*
G54D11*
G01X6390626Y2728122D03*
G01X6390626Y2862500D03*
G01X5000000Y2078122D03*
G01X5000000Y2212500D03*
G54D13*
G01X2487500Y1281252D03*
G01X2437500Y1281252D03*
G01X2387500Y1281252D03*
G01X2337500Y1281252D03*
G01X2287500Y1281252D03*
G01X2237500Y1281252D03*
G01X2187500Y1281252D03*
G01X2137500Y1281252D03*
G01X2087500Y1281252D03*
G01X2037500Y1281252D03*
G01X1987500Y1281252D03*
G54D14*
G01X1916634Y1210386D03*
G01X1916634Y1160386D03*
G01X1916634Y1110386D03*
G01X1916634Y1060386D03*
G01X1916634Y1010386D03*
G01X1916634Y0960386D03*
G01X1916634Y0910386D03*
G01X1916634Y0860386D03*
G01X1916634Y0810386D03*
G01X1916634Y0760386D03*
G01X1916634Y0710386D03*
G01X1916634Y0660386D03*
G01X1916634Y0610386D03*
G01X1916634Y0560386D03*
G01X1916634Y0510386D03*
G01X1916634Y0460386D03*
G01X1916634Y0410386D03*
G01X1916634Y0360386D03*
G01X1916634Y0310386D03*
G01X1916634Y0260386D03*
G01X1916634Y0210386D03*
G54D13*
G01X1987500Y0139520D03*
G01X2037500Y0139520D03*
G01X2087500Y0139520D03*
G01X2137500Y0139520D03*
G01X2187500Y0139520D03*
G01X2237500Y0139520D03*
G01X2287500Y0139520D03*
G01X2337500Y0139520D03*
G01X2387500Y0139520D03*
G01X2437500Y0139520D03*
G01X2487500Y0139520D03*
G01X2537500Y0139520D03*
G01X2587500Y0139520D03*
G01X2637500Y0139520D03*
G01X2687500Y0139520D03*
G01X2737500Y0139520D03*
G01X2787500Y0139520D03*
G01X2837500Y0139520D03*
G01X2887500Y0139520D03*
G01X2937500Y0139520D03*
G01X2987500Y0139520D03*
G54D14*
G01X3058366Y0210386D03*
G01X3058366Y0260386D03*
G01X3058366Y0310386D03*
G01X3058366Y0360386D03*
G01X3058366Y0410386D03*
G01X3058366Y0460386D03*
G01X3058366Y0510386D03*
G01X3058366Y0560386D03*
G01X3058366Y0610386D03*
G01X3058366Y0660386D03*
G01X3058366Y0710386D03*
G01X3058366Y0760386D03*
G01X3058366Y0810386D03*
G01X3058366Y0860386D03*
G01X3058366Y0910386D03*
G01X3058366Y0960386D03*
G01X3058366Y1010386D03*
G01X3058366Y1060386D03*
G01X3058366Y1110386D03*
G01X3058366Y1160386D03*
G01X3058366Y1210386D03*
G54D13*
G01X2987500Y1281252D03*
G01X2937500Y1281252D03*
G01X2887500Y1281252D03*
G01X2837500Y1281252D03*
G01X2787500Y1281252D03*
G01X2737500Y1281252D03*
G01X2687500Y1281252D03*
G01X2637500Y1281252D03*
G01X2587500Y1281252D03*
G01X2537500Y1281252D03*
G01X2184374Y-1663606D03*
G01X2234374Y-1663606D03*
G01X2284374Y-1663606D03*
G01X2334374Y-1663606D03*
G01X2384374Y-1663606D03*
G01X2434374Y-1663606D03*
G01X2484374Y-1663606D03*
G01X2534374Y-1663606D03*
G01X2584374Y-1663606D03*
G01X2634374Y-1663606D03*
G01X2684374Y-1663606D03*
G54D14*
G01X2755240Y-1592740D03*
G01X2755240Y-1542740D03*
G01X2755240Y-1492740D03*
G01X2755240Y-1442740D03*
G01X2755240Y-1392740D03*
G01X2755240Y-1342740D03*
G01X2755240Y-1292740D03*
G01X2755240Y-1242740D03*
G01X2755240Y-1192740D03*
G01X2755240Y-1142740D03*
G01X2755240Y-1092740D03*
G01X2755240Y-1042740D03*
G01X2755240Y-992740D03*
G01X2755240Y-942740D03*
G01X2755240Y-892740D03*
G01X2755240Y-842740D03*
G01X2755240Y-792740D03*
G01X2755240Y-742740D03*
G01X2755240Y-692740D03*
G01X2755240Y-642740D03*
G01X2755240Y-592740D03*
G54D13*
G01X2684374Y-521874D03*
G01X2634374Y-521874D03*
G01X2584374Y-521874D03*
G01X2534374Y-521874D03*
G01X2484374Y-521874D03*
G01X2434374Y-521874D03*
G01X2384374Y-521874D03*
G01X2334374Y-521874D03*
G01X2284374Y-521874D03*
G01X2234374Y-521874D03*
G01X2184374Y-521874D03*
G01X2134374Y-521874D03*
G01X2084374Y-521874D03*
G01X2034374Y-521874D03*
G01X1984374Y-521874D03*
G01X1934374Y-521874D03*
G01X1884374Y-521874D03*
G01X1834374Y-521874D03*
G01X1784374Y-521874D03*
G01X1734374Y-521874D03*
G01X1684374Y-521874D03*
G54D14*
G01X1613508Y-592740D03*
G01X1613508Y-642740D03*
G01X1613508Y-692740D03*
G01X1613508Y-742740D03*
G01X1613508Y-792740D03*
G01X1613508Y-842740D03*
G01X1613508Y-892740D03*
G01X1613508Y-942740D03*
G01X1613508Y-992740D03*
G01X1613508Y-1042740D03*
G01X1613508Y-1092740D03*
G01X1613508Y-1142740D03*
G01X1613508Y-1192740D03*
G01X1613508Y-1242740D03*
G01X1613508Y-1292740D03*
G01X1613508Y-1342740D03*
G01X1613508Y-1392740D03*
G01X1613508Y-1442740D03*
G01X1613508Y-1492740D03*
G01X1613508Y-1542740D03*
G01X1613508Y-1592740D03*
G54D13*
G01X1684374Y-1663606D03*
G01X1734374Y-1663606D03*
G01X1784374Y-1663606D03*
G01X1834374Y-1663606D03*
G01X1884374Y-1663606D03*
G01X1934374Y-1663606D03*
G01X1984374Y-1663606D03*
G01X2034374Y-1663606D03*
G01X2084374Y-1663606D03*
G01X2134374Y-1663606D03*
G01X1190626Y0681252D03*
G01X1140626Y0681252D03*
G01X1090626Y0681252D03*
G01X1040626Y0681252D03*
G01X0990626Y0681252D03*
G01X0940626Y0681252D03*
G01X0890626Y0681252D03*
G54D14*
G01X0820547Y0611173D03*
G01X0820547Y0561173D03*
G01X0820547Y0511173D03*
G01X0820547Y0461173D03*
G01X0820547Y0411173D03*
G01X0820547Y0361173D03*
G01X0820547Y0311173D03*
G01X0820547Y0261173D03*
G01X0820547Y0211173D03*
G01X0820547Y0161173D03*
G01X0820547Y0111173D03*
G01X0820547Y0061173D03*
G01X0820547Y0011173D03*
G54D13*
G01X0890626Y-058906D03*
G01X0940626Y-058906D03*
G01X0990626Y-058906D03*
G01X1040626Y-058906D03*
G01X1090626Y-058906D03*
G01X1140626Y-058906D03*
G01X1190626Y-058906D03*
G01X1240626Y-058906D03*
G01X1290626Y-058906D03*
G01X1340626Y-058906D03*
G01X1390626Y-058906D03*
G01X1440626Y-058906D03*
G01X1490626Y-058906D03*
G54D14*
G01X1560705Y0011173D03*
G01X1560705Y0061173D03*
G01X1560705Y0111173D03*
G01X1560705Y0161173D03*
G01X1560705Y0211173D03*
G01X1560705Y0261173D03*
G01X1560705Y0311173D03*
G01X1560705Y0361173D03*
G01X1560705Y0411173D03*
G01X1560705Y0461173D03*
G01X1560705Y0511173D03*
G01X1560705Y0561173D03*
G01X1560705Y0611173D03*
G54D13*
G01X1490626Y0681252D03*
G01X1440626Y0681252D03*
G01X1390626Y0681252D03*
G01X1340626Y0681252D03*
G01X1290626Y0681252D03*
G01X1240626Y0681252D03*
G54D14*
G01X2068748Y2309374D03*
G01X2068748Y2259374D03*
G01X2068748Y2209374D03*
G01X2068748Y2159374D03*
G01X2068748Y2109374D03*
G01X2068748Y2059374D03*
G54D13*
G01X2137646Y1990476D03*
G01X2187646Y1990476D03*
G01X2237646Y1990476D03*
G01X2287646Y1990476D03*
G01X2337646Y1990476D03*
G01X2387646Y1990476D03*
G01X2437646Y1990476D03*
G01X2487646Y1990476D03*
G01X2537646Y1990476D03*
G01X2587646Y1990476D03*
G01X2637646Y1990476D03*
G54D14*
G01X2706543Y2059374D03*
G01X2706543Y2109374D03*
G01X2706543Y2159374D03*
G01X2706543Y2209374D03*
G01X2706543Y2259374D03*
G01X2706543Y2309374D03*
G01X2706543Y2359374D03*
G01X2706543Y2409374D03*
G01X2706543Y2459374D03*
G01X2706543Y2509374D03*
G01X2706543Y2559374D03*
G54D13*
G01X2637646Y2628272D03*
G01X2587646Y2628272D03*
G01X2537646Y2628272D03*
G01X2487646Y2628272D03*
G01X2437646Y2628272D03*
G01X2387646Y2628272D03*
G01X2337646Y2628272D03*
G01X2287646Y2628272D03*
G01X2237646Y2628272D03*
G01X2187646Y2628272D03*
G01X2137646Y2628272D03*
G54D14*
G01X2068748Y2559374D03*
G01X2068748Y2509374D03*
G01X2068748Y2459374D03*
G01X2068748Y2409374D03*
G01X2068748Y2359374D03*
G54D13*
G01X3387500Y2631252D03*
G01X3337500Y2631252D03*
G01X3287500Y2631252D03*
G01X3237500Y2631252D03*
G01X3187500Y2631252D03*
G01X3137500Y2631252D03*
G54D14*
G01X3068602Y2562354D03*
G01X3068602Y2512354D03*
G01X3068602Y2462354D03*
G01X3068602Y2412354D03*
G01X3068602Y2362354D03*
G01X3068602Y2312354D03*
G01X3068602Y2262354D03*
G01X3068602Y2212354D03*
G01X3068602Y2162354D03*
G01X3068602Y2112354D03*
G01X3068602Y2062354D03*
G54D13*
G01X3137500Y1993457D03*
G01X3187500Y1993457D03*
G01X3237500Y1993457D03*
G01X3287500Y1993457D03*
G01X3337500Y1993457D03*
G01X3387500Y1993457D03*
G01X3437500Y1993457D03*
G01X3487500Y1993457D03*
G01X3537500Y1993457D03*
G01X3587500Y1993457D03*
G01X3637500Y1993457D03*
G54D14*
G01X3706398Y2062354D03*
G01X3706398Y2112354D03*
G01X3706398Y2162354D03*
G01X3706398Y2212354D03*
G01X3706398Y2262354D03*
G01X3706398Y2312354D03*
G01X3706398Y2362354D03*
G01X3706398Y2412354D03*
G01X3706398Y2462354D03*
G01X3706398Y2512354D03*
G01X3706398Y2562354D03*
G54D13*
G01X3637500Y2631252D03*
G01X3587500Y2631252D03*
G01X3537500Y2631252D03*
G01X3487500Y2631252D03*
G01X3437500Y2631252D03*
G54D14*
G01X3322024Y-3247024D03*
G01X3322024Y-3197024D03*
G01X3322024Y-3147024D03*
G01X3322024Y-3097024D03*
G01X3322024Y-3047024D03*
G01X3322024Y-2997024D03*
G54D13*
G01X3253126Y-2928126D03*
G01X3203126Y-2928126D03*
G01X3153126Y-2928126D03*
G01X3103126Y-2928126D03*
G01X3053126Y-2928126D03*
G01X3003126Y-2928126D03*
G01X2953126Y-2928126D03*
G01X2903126Y-2928126D03*
G01X2853126Y-2928126D03*
G01X2803126Y-2928126D03*
G01X2753126Y-2928126D03*
G54D14*
G01X2684228Y-2997024D03*
G01X2684228Y-3047024D03*
G01X2684228Y-3097024D03*
G01X2684228Y-3147024D03*
G01X2684228Y-3197024D03*
G01X2684228Y-3247024D03*
G01X2684228Y-3297024D03*
G01X2684228Y-3347024D03*
G01X2684228Y-3397024D03*
G01X2684228Y-3447024D03*
G01X2684228Y-3497024D03*
G54D13*
G01X2753126Y-3565921D03*
G01X2803126Y-3565921D03*
G01X2853126Y-3565921D03*
G01X2903126Y-3565921D03*
G01X2953126Y-3565921D03*
G01X3003126Y-3565921D03*
G01X3053126Y-3565921D03*
G01X3103126Y-3565921D03*
G01X3153126Y-3565921D03*
G01X3203126Y-3565921D03*
G01X3253126Y-3565921D03*
G54D14*
G01X3322024Y-3497024D03*
G01X3322024Y-3447024D03*
G01X3322024Y-3397024D03*
G01X3322024Y-3347024D03*
G01X3322024Y-3297024D03*
G54D15*
G01X1284378Y-5156252D03*
G01X1075000Y-5156252D03*
G01X0481252Y-1262504D03*
G01X0271878Y-1262504D03*
G01X1221878Y3121874D03*
G01X1012504Y3121874D03*
G01X3059378Y3146874D03*
G01X2850000Y3146874D03*
G01X2234378Y2924996D03*
G01X2025000Y2924996D03*
G54D16*
G01X1537500Y-3531252D03*
G01X1537500Y-3321874D03*
G01X2203126Y-3593748D03*
G01X2203126Y-3384374D03*
G01X5168748Y-1156252D03*
G01X5168748Y-946874D03*
G54D17*
G01X1628126Y1375000D03*
G01X1628126Y1300197D03*
G01X1540724Y1337598D03*
G01X1628126Y1228126D03*
G01X1628126Y1153323D03*
G01X1540724Y1190724D03*
G54D13*
G01X5690626Y0373917D03*
G01X5740626Y0373917D03*
G01X5790626Y0373917D03*
G54D14*
G01X5859917Y0443209D03*
G01X5859917Y0493209D03*
G01X5859917Y0543209D03*
G01X5859917Y0593209D03*
G01X5859917Y0643209D03*
G54D13*
G01X5790626Y0712500D03*
G01X5740626Y0712500D03*
G01X5690626Y0712500D03*
G01X5640626Y0712500D03*
G01X5590626Y0712500D03*
G54D14*
G01X5521335Y0643209D03*
G01X5521335Y0593209D03*
G01X5521335Y0543209D03*
G01X5521335Y0493209D03*
G01X5521335Y0443209D03*
G54D13*
G01X5590626Y0373917D03*
G01X5640626Y0373917D03*
G54D10*
G01X3981252Y3631252D03*
G01X3981252Y3496874D03*
G01X4081252Y3631252D03*
G01X4081252Y3496874D03*
G01X4181252Y3631252D03*
G01X4181252Y3496874D03*
G01X4281252Y3631252D03*
G01X4281252Y3496874D03*
G01X4381252Y3631252D03*
G01X4381252Y3496874D03*
G01X4481252Y3496874D03*
G01X4481252Y3631252D03*
G01X4581252Y3496874D03*
G01X4581252Y3631252D03*
G01X4681252Y3496874D03*
G01X4681252Y3631252D03*
G01X4781252Y3496874D03*
G01X4781252Y3631252D03*
G01X4881252Y3496874D03*
G01X4881252Y3631252D03*
G01X4981252Y3496874D03*
G01X4981252Y3631252D03*
G01X5081252Y3496874D03*
G01X5081252Y3631252D03*
G01X5181252Y3496874D03*
G01X5181252Y3631252D03*
G01X5281252Y3496874D03*
G01X5281252Y3631252D03*
G01X5381252Y3496874D03*
G01X5381252Y3631252D03*
G01X5481252Y3496874D03*
G01X5481252Y3631252D03*
G01X5581252Y3496874D03*
G01X5581252Y3631252D03*
G01X5681252Y3496874D03*
G01X5681252Y3631252D03*
G01X5781252Y3496874D03*
G01X5781252Y3631252D03*
G01X5881252Y3496874D03*
G01X5881252Y3631252D03*
G01X5981252Y3496874D03*
G01X5981252Y3631252D03*
G01X6081252Y3496874D03*
G01X6081252Y3631252D03*
G01X6181252Y3496874D03*
G01X6181252Y3631252D03*
G54D18*
G01X0573437Y3157811D03*
G01X0439059Y3157811D03*
G01X0573437Y3057811D03*
G01X0439059Y3057811D03*
G01X0573437Y2957811D03*
G01X0439059Y2957811D03*
G01X0573437Y2857811D03*
G01X0439059Y2857811D03*
G01X0573437Y2757811D03*
G01X0439059Y2757811D03*
G01X0439059Y2657811D03*
G01X0573437Y2657811D03*
G01X0439059Y2557811D03*
G01X0573437Y2557811D03*
G01X0439059Y2457811D03*
G01X0573437Y2457811D03*
G01X0439059Y2357811D03*
G01X0573437Y2357811D03*
G01X0439059Y2257811D03*
G01X0573437Y2257811D03*
G01X0439059Y2157811D03*
G01X0573437Y2157811D03*
G01X0439059Y2057811D03*
G01X0573437Y2057811D03*
G01X0439059Y1957811D03*
G01X0573437Y1957811D03*
G01X0439059Y1857811D03*
G01X0573437Y1857811D03*
G01X0439059Y1757811D03*
G01X0573437Y1757811D03*
G01X0439059Y1657811D03*
G01X0573437Y1657811D03*
G01X0439059Y1557811D03*
G01X0573437Y1557811D03*
G01X0439059Y1457811D03*
G01X0573437Y1457811D03*
G01X1173437Y2907811D03*
G01X1039059Y2907811D03*
G01X1173437Y2807811D03*
G01X1039059Y2807811D03*
G01X1039059Y2707811D03*
G01X1173437Y2707811D03*
G01X1039059Y2607811D03*
G01X1173437Y2607811D03*
G01X1039059Y2507811D03*
G01X1173437Y2507811D03*
G01X1039059Y2407811D03*
G01X1173437Y2407811D03*
G01X1039059Y2307811D03*
G01X1173437Y2307811D03*
G01X1039059Y2207811D03*
G01X1173437Y2207811D03*
G01X1039059Y2107811D03*
G01X1173437Y2107811D03*
G01X1039059Y2007811D03*
G01X1173437Y2007811D03*
G01X1039059Y1907811D03*
G01X1173437Y1907811D03*
G01X1039059Y1807811D03*
G01X1173437Y1807811D03*
G01X1039059Y1707811D03*
G01X1173437Y1707811D03*
G01X1039059Y1607811D03*
G01X1173437Y1607811D03*
G01X1039059Y1507811D03*
G01X1173437Y1507811D03*
G54D10*
G01X0621874Y-3365626D03*
G01X0621874Y-3231252D03*
G01X0721874Y-3365626D03*
G01X0721874Y-3231252D03*
G01X0821874Y-3365626D03*
G01X0821874Y-3231252D03*
G01X0921874Y-3365626D03*
G01X0921874Y-3231252D03*
G01X0621874Y-3618748D03*
G01X0621874Y-3484374D03*
G01X0721874Y-3618748D03*
G01X0721874Y-3484374D03*
G01X0821874Y-3618748D03*
G01X0821874Y-3484374D03*
G01X0921874Y-3618748D03*
G01X0921874Y-3484374D03*
G01X4303126Y-3662500D03*
G01X4303126Y-3528126D03*
G01X4403126Y-3662500D03*
G01X4403126Y-3528126D03*
G01X4503126Y-3662500D03*
G01X4503126Y-3528126D03*
G01X4603126Y-3662500D03*
G01X4603126Y-3528126D03*
G01X4703126Y-3662500D03*
G01X4703126Y-3528126D03*
G01X3500000Y-3662500D03*
G01X3500000Y-3528126D03*
G01X3600000Y-3662500D03*
G01X3600000Y-3528126D03*
G01X3440626Y-2740626D03*
G01X3440626Y-2606252D03*
G01X4756252Y-2106252D03*
G01X4756252Y-1971874D03*
G54D18*
G01X3020311Y-392189D03*
G01X3154685Y-392189D03*
G01X3020311Y-492189D03*
G01X3154685Y-492189D03*
G01X3020311Y-592189D03*
G01X3154685Y-592189D03*
G01X3020311Y-692189D03*
G01X3154685Y-692189D03*
G01X3020311Y-792189D03*
G01X3154685Y-792189D03*
G01X3020311Y-892189D03*
G01X3154685Y-892189D03*
G01X3020311Y-992189D03*
G01X3154685Y-992189D03*
G01X0920311Y-670315D03*
G01X1054685Y-670315D03*
G01X0920311Y-770315D03*
G01X1054685Y-770315D03*
G01X3520311Y0242189D03*
G01X3654685Y0242189D03*
G01X3520311Y0142189D03*
G01X3654685Y0142189D03*
G01X4020311Y0245315D03*
G01X4154685Y0245315D03*
G01X4020311Y0145315D03*
G01X4154685Y0145315D03*
G01X5610937Y0060937D03*
G01X5745311Y0060937D03*
G01X6029685Y0623437D03*
G01X6164063Y0623437D03*
G01X6029685Y0523437D03*
G01X6164063Y0523437D03*
G01X6029685Y0423437D03*
G01X6164063Y0423437D03*
G01X3914063Y-1757811D03*
G01X4048437Y-1757811D03*
G01X4217185Y-1760937D03*
G01X4351559Y-1760937D03*
G01X4489063Y-1760937D03*
G01X4623437Y-1760937D03*
G01X3417185Y-2495315D03*
G01X3551559Y-2495315D03*
G01X3670311Y-2492189D03*
G01X3804685Y-2492189D03*
G01X3676559Y-2595315D03*
G01X3810937Y-2595315D03*
G01X6260937Y-2867189D03*
G01X6395311Y-2867189D03*
G01X6260937Y-2967189D03*
G01X6395311Y-2967189D03*
G01X6260937Y-3067189D03*
G01X6395311Y-3067189D03*
G01X6260937Y-3167189D03*
G01X6395311Y-3167189D03*
G54D10*
G01X1806252Y-3590626D03*
G01X1806252Y-3456252D03*
G54D12*
G01X0375000Y-4846874D03*
G01X0509378Y-4846874D03*
G01X0378126Y-4987500D03*
G01X0512504Y-4987496D03*
G54D11*
G01X4184378Y-3659378D03*
G01X4184374Y-3525000D03*
G01X4825000Y-3662504D03*
G01X4825000Y-3528126D03*
G01X2203126Y-3150004D03*
G01X2203126Y-3015626D03*
G54D14*
G01X6104945Y-3518748D03*
G01X6104945Y-3468748D03*
G01X6104945Y-3418748D03*
G01X6104945Y-3368748D03*
G01X6104945Y-3318748D03*
G01X6104945Y-3268748D03*
G01X6104945Y-3218748D03*
G01X6104945Y-3168748D03*
G01X6104945Y-3118748D03*
G01X6104945Y-3068748D03*
G01X6104945Y-3018748D03*
G01X6104945Y-2968748D03*
G01X6104945Y-2918748D03*
G01X6104945Y-2868748D03*
G01X5671874Y-2868748D03*
G01X5671874Y-2918748D03*
G01X5671874Y-2968748D03*
G01X5671874Y-3018748D03*
G01X5671874Y-3068748D03*
G01X5671874Y-3118748D03*
G01X5671874Y-3168748D03*
G01X5671874Y-3218748D03*
G01X5671874Y-3268748D03*
G01X5671874Y-3318748D03*
G01X5671874Y-3368748D03*
G01X5671874Y-3418748D03*
G01X5671874Y-3468748D03*
G01X5671874Y-3518748D03*
G01X5401819Y-3518748D03*
G01X5401819Y-3468748D03*
G01X5401819Y-3418748D03*
G01X5401819Y-3368748D03*
G01X5401819Y-3318748D03*
G01X5401819Y-3268748D03*
G01X5401819Y-3218748D03*
G01X5401819Y-3168748D03*
G01X5401819Y-3118748D03*
G01X5401819Y-3068748D03*
G01X5401819Y-3018748D03*
G01X5401819Y-2968748D03*
G01X5401819Y-2918748D03*
G01X5401819Y-2868748D03*
G01X4968748Y-2868748D03*
G01X4968748Y-2918748D03*
G01X4968748Y-2968748D03*
G01X4968748Y-3018748D03*
G01X4968748Y-3068748D03*
G01X4968748Y-3118748D03*
G01X4968748Y-3168748D03*
G01X4968748Y-3218748D03*
G01X4968748Y-3268748D03*
G01X4968748Y-3318748D03*
G01X4968748Y-3368748D03*
G01X4968748Y-3418748D03*
G01X4968748Y-3468748D03*
G01X4968748Y-3518748D03*
G01X6104945Y-2618748D03*
G01X6104945Y-2568748D03*
G01X6104945Y-2518748D03*
G01X6104945Y-2468748D03*
G01X6104945Y-2418748D03*
G01X6104945Y-2368748D03*
G01X6104945Y-2318748D03*
G01X6104945Y-2268748D03*
G01X6104945Y-2218748D03*
G01X6104945Y-2168748D03*
G01X6104945Y-2118748D03*
G01X6104945Y-2068748D03*
G01X6104945Y-2018748D03*
G01X6104945Y-1968748D03*
G01X5671874Y-1968748D03*
G01X5671874Y-2018748D03*
G01X5671874Y-2068748D03*
G01X5671874Y-2118748D03*
G01X5671874Y-2168748D03*
G01X5671874Y-2218748D03*
G01X5671874Y-2268748D03*
G01X5671874Y-2318748D03*
G01X5671874Y-2368748D03*
G01X5671874Y-2418748D03*
G01X5671874Y-2468748D03*
G01X5671874Y-2518748D03*
G01X5671874Y-2568748D03*
G01X5671874Y-2618748D03*
G01X5401819Y-2618748D03*
G01X5401819Y-2568748D03*
G01X5401819Y-2518748D03*
G01X5401819Y-2468748D03*
G01X5401819Y-2418748D03*
G01X5401819Y-2368748D03*
G01X5401819Y-2318748D03*
G01X5401819Y-2268748D03*
G01X5401819Y-2218748D03*
G01X5401819Y-2168748D03*
G01X5401819Y-2118748D03*
G01X5401819Y-2068748D03*
G01X5401819Y-2018748D03*
G01X5401819Y-1968748D03*
G01X4968748Y-1968748D03*
G01X4968748Y-2018748D03*
G01X4968748Y-2068748D03*
G01X4968748Y-2118748D03*
G01X4968748Y-2168748D03*
G01X4968748Y-2218748D03*
G01X4968748Y-2268748D03*
G01X4968748Y-2318748D03*
G01X4968748Y-2368748D03*
G01X4968748Y-2418748D03*
G01X4968748Y-2468748D03*
G01X4968748Y-2518748D03*
G01X4968748Y-2568748D03*
G01X4968748Y-2618748D03*
G54D19*
G01X3253126Y1734374D03*
G01X3303126Y1734374D03*
G01X3353126Y1734374D03*
G01X3403126Y1734374D03*
G01X3453126Y1734374D03*
G01X3503126Y1734374D03*
G01X3553126Y1734374D03*
G01X3603126Y1734374D03*
G01X3253126Y1490626D03*
G01X3303126Y1490626D03*
G01X3353126Y1490626D03*
G01X3403126Y1490626D03*
G01X3453126Y1490626D03*
G01X3503126Y1490626D03*
G01X3553126Y1490626D03*
G01X3603126Y1490626D03*
G54D20*
G01X4212500Y0665626D03*
G01X4212500Y0615626D03*
G01X4212500Y0565626D03*
G01X4212500Y0515626D03*
G01X4212500Y0465626D03*
G01X4212500Y0415626D03*
G01X4212500Y0365626D03*
G01X3965626Y0665626D03*
G01X3965626Y0615626D03*
G01X3965626Y0565626D03*
G01X3965626Y0515626D03*
G01X3965626Y0465626D03*
G01X3965626Y0415626D03*
G01X3965626Y0365626D03*
G01X3709374Y0662500D03*
G01X3709374Y0612500D03*
G01X3709374Y0562500D03*
G01X3709374Y0512500D03*
G01X3709374Y0462500D03*
G01X3709374Y0412500D03*
G01X3709374Y0362500D03*
G01X3462500Y0662500D03*
G01X3462500Y0612500D03*
G01X3462500Y0562500D03*
G01X3462500Y0512500D03*
G01X3462500Y0462500D03*
G01X3462500Y0412500D03*
G01X3462500Y0362500D03*
G01X4815626Y1712500D03*
G01X4815626Y1662500D03*
G01X4815626Y1612500D03*
G01X4815626Y1562500D03*
G01X4815626Y1512500D03*
G01X4815626Y1462500D03*
G01X4815626Y1412500D03*
G01X4568748Y1712500D03*
G01X4568748Y1662500D03*
G01X4568748Y1612500D03*
G01X4568748Y1562500D03*
G01X4568748Y1512500D03*
G01X4568748Y1462500D03*
G01X4568748Y1412500D03*
G01X4759374Y0687500D03*
G01X4759374Y0637500D03*
G01X4759374Y0587500D03*
G01X4759374Y0537500D03*
G01X4759374Y0487500D03*
G01X4759374Y0437500D03*
G01X4759374Y0387500D03*
G01X4759374Y0337500D03*
G01X4421874Y0687500D03*
G01X4421874Y0637500D03*
G01X4421874Y0587500D03*
G01X4421874Y0537500D03*
G01X4421874Y0487500D03*
G01X4421874Y0437500D03*
G01X4421874Y0387500D03*
G01X4421874Y0337500D03*
G01X5359374Y0684374D03*
G01X5359374Y0634374D03*
G01X5359374Y0584374D03*
G01X5359374Y0534374D03*
G01X5359374Y0484374D03*
G01X5359374Y0434374D03*
G01X5359374Y0384374D03*
G01X5359374Y0334374D03*
G01X5021874Y0684374D03*
G01X5021874Y0634374D03*
G01X5021874Y0584374D03*
G01X5021874Y0534374D03*
G01X5021874Y0484374D03*
G01X5021874Y0434374D03*
G01X5021874Y0384374D03*
G01X5021874Y0334374D03*
G01X4840626Y2568748D03*
G01X4840626Y2518748D03*
G01X4840626Y2468748D03*
G01X4840626Y2418748D03*
G01X4840626Y2368748D03*
G01X4840626Y2318748D03*
G01X4840626Y2268748D03*
G01X4840626Y2218748D03*
G01X4503126Y2568748D03*
G01X4503126Y2518748D03*
G01X4503126Y2468748D03*
G01X4503126Y2418748D03*
G01X4503126Y2368748D03*
G01X4503126Y2318748D03*
G01X4503126Y2268748D03*
G01X4503126Y2218748D03*
G01X4840626Y2168748D03*
G01X4840626Y2118748D03*
G01X4503126Y2168748D03*
G01X4503126Y2118748D03*
G01X0553126Y-1475000D03*
G01X0553126Y-1525000D03*
G01X0553126Y-1575000D03*
G01X0553126Y-1625000D03*
G01X0553126Y-1675000D03*
G01X0553126Y-1725000D03*
G01X0553126Y-1775000D03*
G01X0553126Y-1825000D03*
G01X0215626Y-1475000D03*
G01X0215626Y-1525000D03*
G01X0215626Y-1575000D03*
G01X0215626Y-1625000D03*
G01X0215626Y-1675000D03*
G01X0215626Y-1725000D03*
G01X0215626Y-1775000D03*
G01X0215626Y-1825000D03*
G01X0553126Y-1875000D03*
G01X0553126Y-1925000D03*
G01X0215626Y-1875000D03*
G01X0215626Y-1925000D03*
G01X1109374Y-1443748D03*
G01X1109374Y-1493748D03*
G01X1109374Y-1543748D03*
G01X1109374Y-1593748D03*
G01X1109374Y-1643748D03*
G01X1109374Y-1693748D03*
G01X1109374Y-1743748D03*
G01X0862500Y-1443748D03*
G01X0862500Y-1493748D03*
G01X0862500Y-1543748D03*
G01X0862500Y-1593748D03*
G01X0862500Y-1643748D03*
G01X0862500Y-1693748D03*
G01X0862500Y-1743748D03*
G01X1109374Y-1040626D03*
G01X1109374Y-1090626D03*
G01X1109374Y-1140626D03*
G01X1109374Y-1190626D03*
G01X1109374Y-1240626D03*
G01X1109374Y-1290626D03*
G01X1109374Y-1340626D03*
G01X0862500Y-1040626D03*
G01X0862500Y-1090626D03*
G01X0862500Y-1140626D03*
G01X0862500Y-1190626D03*
G01X0862500Y-1240626D03*
G01X0862500Y-1290626D03*
G01X0862500Y-1340626D03*
G01X1809374Y1840626D03*
G01X1809374Y1790626D03*
G01X1809374Y1740626D03*
G01X1809374Y1690626D03*
G01X1809374Y1640626D03*
G01X1809374Y1590626D03*
G01X1809374Y1540626D03*
G01X1562500Y1840626D03*
G01X1562500Y1790626D03*
G01X1562500Y1740626D03*
G01X1562500Y1690626D03*
G01X1562500Y1640626D03*
G01X1562500Y1590626D03*
G01X1562500Y1540626D03*
G01X1812500Y2384374D03*
G01X1812500Y2334374D03*
G01X1812500Y2284374D03*
G01X1812500Y2234374D03*
G01X1812500Y2184374D03*
G01X1812500Y2134374D03*
G01X1812500Y2084374D03*
G01X1565626Y2384374D03*
G01X1565626Y2334374D03*
G01X1565626Y2284374D03*
G01X1565626Y2234374D03*
G01X1565626Y2184374D03*
G01X1565626Y2134374D03*
G01X1565626Y2084374D03*
G54D18*
G01X1623437Y2492189D03*
G01X1757811Y2492185D03*
G54D20*
G01X1812500Y2946874D03*
G01X1812500Y2896874D03*
G01X1812500Y2846874D03*
G01X1812500Y2796874D03*
G01X1812500Y2746874D03*
G01X1812500Y2696874D03*
G01X1812500Y2646874D03*
G01X1812500Y2596874D03*
G01X1568748Y2946874D03*
G01X1568748Y2896874D03*
G01X1568748Y2846874D03*
G01X1568748Y2796874D03*
G01X1568748Y2746874D03*
G01X1568748Y2696874D03*
G01X1568748Y2646874D03*
G01X1568748Y2596874D03*
G54D18*
G01X1521874Y1053126D03*
G01X1656252Y1053126D03*
G54D12*
G01X1931252Y-146874D03*
G01X2065630Y-146874D03*
G54D21*
G01X4151563Y-1925000D03*
G01X4151563Y-1950000D03*
G01X4151563Y-1975000D03*
G01X4151563Y-2000000D03*
G01X4151563Y-2025000D03*
G01X4151563Y-2050000D03*
G01X4151563Y-2075000D03*
G01X4151563Y-2100000D03*
G01X4151563Y-2125000D03*
G01X4151563Y-2150000D03*
G01X4151563Y-2175000D03*
G01X4151563Y-2200000D03*
G01X4151563Y-2225000D03*
G01X4151563Y-2250000D03*
G01X4151563Y-2275000D03*
G01X4151563Y-2300000D03*
G01X4151563Y-2325000D03*
G01X4151563Y-2350000D03*
G01X4151563Y-2375000D03*
G01X4151563Y-2400000D03*
G01X4151563Y-2425000D03*
G01X4151563Y-2450000D03*
G01X4151563Y-2475000D03*
G01X4151563Y-2500000D03*
G01X4493748Y-1925000D03*
G01X4493748Y-1950000D03*
G01X4493748Y-1975000D03*
G01X4493748Y-2000000D03*
G01X4493752Y-2025000D03*
G01X4493752Y-2050000D03*
G01X4493752Y-2075000D03*
G01X4493752Y-2100000D03*
G01X4493748Y-2125000D03*
G01X4493748Y-2150000D03*
G01X4493748Y-2175000D03*
G01X4493748Y-2200000D03*
G01X4493752Y-2225000D03*
G01X4493752Y-2250000D03*
G01X4493752Y-2275000D03*
G01X4493752Y-2300000D03*
G01X4493748Y-2325000D03*
G01X4493748Y-2350000D03*
G01X4493748Y-2375000D03*
G01X4493748Y-2400000D03*
G01X4493752Y-2425000D03*
G01X4493752Y-2450000D03*
G01X4493752Y-2475000D03*
G01X4493752Y-2500000D03*
G01X4151563Y-2706252D03*
G01X4151563Y-2731252D03*
G01X4151563Y-2756252D03*
G01X4151563Y-2781252D03*
G01X4151563Y-2806252D03*
G01X4151563Y-2831252D03*
G01X4151563Y-2856252D03*
G01X4151563Y-2881252D03*
G01X4151563Y-2906252D03*
G01X4151563Y-2931252D03*
G01X4151563Y-2956252D03*
G01X4151563Y-2981252D03*
G01X4151563Y-3006252D03*
G01X4151563Y-3031252D03*
G01X4151563Y-3056252D03*
G01X4151563Y-3081252D03*
G01X4151563Y-3106252D03*
G01X4151563Y-3131252D03*
G01X4151563Y-3156252D03*
G01X4151563Y-3181252D03*
G01X4151563Y-3206252D03*
G01X4151563Y-3231252D03*
G01X4151563Y-3256252D03*
G01X4151563Y-3281252D03*
G01X4493748Y-2706252D03*
G01X4493748Y-2731252D03*
G01X4493748Y-2756252D03*
G01X4493748Y-2781252D03*
G01X4493752Y-2806252D03*
G01X4493752Y-2831252D03*
G01X4493752Y-2856252D03*
G01X4493752Y-2881252D03*
G01X4493748Y-2906252D03*
G01X4493748Y-2931252D03*
G01X4493748Y-2956252D03*
G01X4493748Y-2981252D03*
G01X4493752Y-3006252D03*
G01X4493752Y-3031252D03*
G01X4493752Y-3056252D03*
G01X4493752Y-3081252D03*
G01X4493748Y-3106252D03*
G01X4493748Y-3131252D03*
G01X4493748Y-3156252D03*
G01X4493748Y-3181252D03*
G01X4493752Y-3206252D03*
G01X4493752Y-3231252D03*
G01X4493752Y-3256252D03*
G01X4493752Y-3281252D03*
G54D22*
G01X0317189Y-5164063D03*
G01X0485937Y-5164063D03*
G01X6004685Y-5145315D03*
G01X6173437Y-5145315D03*
G54D24*
G01X1918748Y-3196850D03*
G01X1968748Y-3196850D03*
G01X2018748Y-3196850D03*
G01X2068748Y-3196850D03*
G01X2068748Y-2975000D03*
G01X2018748Y-2975000D03*
G01X1968748Y-2975000D03*
G01X1918748Y-2975000D03*
G54D23*
G01X2475000Y-3406252D03*
G01X2475000Y-3575000D03*
G01X0256252Y-093748D03*
G01X0256252Y-262500D03*
G01X0456252Y-093748D03*
G01X0456252Y-262500D03*
G54D22*
G01X1184374Y0984378D03*
G01X1015622Y0984378D03*
G01X4671874Y0159378D03*
G01X4503126Y0159378D03*
G01X5271874Y0159378D03*
G01X5103126Y0159378D03*
G54D25*
G01X0450000Y0887500D03*
G01X0450000Y0712500D03*
G01X0450000Y0593748D03*
G01X0450000Y0418748D03*
G54D26*
G01X1675000Y0912496D03*
G01X1500000Y0912496D03*
G01X1193748Y1368748D03*
G01X1018748Y1368748D03*
G01X1193748Y1168748D03*
G01X1018748Y1168748D03*
G01X0431248Y-2218752D03*
G01X0256248Y-2218752D03*
G54D27*
G01X0231252Y0437500D03*
G01X0231252Y0800000D03*
G54D28*
G01X0225004Y3337500D03*
G01X0587504Y3337500D03*
G54D29*
G01X1287496Y-718748D03*
G01X1287496Y-468748D03*
G01X0506248Y1062504D03*
G01X0506248Y1312504D03*
G54D30*
G01X1587500Y3168748D03*
G01X1793748Y3168748D03*
G01X2025000Y3168748D03*
G01X2231252Y3168748D03*
G01X2818748Y2893748D03*
G01X3025000Y2893748D03*
G01X3281252Y3343748D03*
G01X3487500Y3343748D03*
G01X3281252Y3150000D03*
G01X3487500Y3150000D03*
G01X2031252Y1750000D03*
G01X2237500Y1750000D03*
G01X2031252Y1531252D03*
G01X2237500Y1531252D03*
G01X2406252Y1750000D03*
G01X2612500Y1750000D03*
G01X2406252Y1531252D03*
G01X2612500Y1531252D03*
G54D31*
G01X6542189Y-748031D03*
G01X6542189Y-773622D03*
G01X6542189Y-799213D03*
G01X6542189Y-824803D03*
G01X6542189Y-850394D03*
G01X6542189Y-875984D03*
G01X6542189Y-901575D03*
G01X6542189Y-927165D03*
G01X6542189Y-952756D03*
G01X6542189Y-978346D03*
G01X6542189Y-1003937D03*
G01X6542189Y-1029528D03*
G01X6542189Y-1055118D03*
G01X6542189Y-1080709D03*
G01X6542189Y-1106299D03*
G01X6542189Y-1131890D03*
G01X6542189Y-1157480D03*
G01X6542189Y-1183071D03*
G01X6542189Y-1208661D03*
G01X6542189Y-1234252D03*
G01X5635937Y-748031D03*
G01X5635937Y-773622D03*
G01X5635937Y-799213D03*
G01X5635937Y-824803D03*
G01X5635937Y-850394D03*
G01X5635937Y-875984D03*
G01X5635937Y-901575D03*
G01X5635937Y-927165D03*
G01X5635937Y-952756D03*
G01X5635937Y-978346D03*
G01X5635937Y-1003937D03*
G01X5635937Y-1029528D03*
G01X5635937Y-1055118D03*
G01X5635937Y-1080709D03*
G01X5635937Y-1106299D03*
G01X5635937Y-1131890D03*
G01X5635937Y-1157480D03*
G01X5635937Y-1183071D03*
G01X5635937Y-1208661D03*
G01X5635937Y-1234252D03*
G54D32*
G01X6204047Y-659890D03*
G01X6178457Y-659890D03*
G01X6152866Y-659890D03*
G01X6127276Y-659890D03*
G01X6101685Y-659890D03*
G01X6076094Y-659890D03*
G01X6050504Y-659890D03*
G01X6024913Y-659890D03*
G01X5999323Y-659890D03*
G01X5973732Y-659890D03*
G01X5948142Y-659890D03*
G01X5922551Y-659890D03*
G01X5896961Y-659890D03*
G01X5871370Y-659890D03*
G01X5845780Y-659890D03*
G01X5820189Y-659890D03*
G01X5794598Y-659890D03*
G01X5769008Y-659890D03*
G01X5743417Y-659890D03*
G01X5717827Y-659890D03*
G01X6459941Y-659890D03*
G01X6434350Y-659890D03*
G01X6408764Y-659890D03*
G01X6383169Y-659890D03*
G01X6357579Y-659890D03*
G01X6331992Y-659890D03*
G01X6306402Y-659890D03*
G01X6280807Y-659890D03*
G01X6255217Y-659890D03*
G01X6229626Y-659890D03*
G01X6204047Y-1325520D03*
G01X6178457Y-1325520D03*
G01X6152866Y-1325520D03*
G01X6127276Y-1325520D03*
G01X6101685Y-1325520D03*
G01X6076094Y-1325520D03*
G01X6050504Y-1325520D03*
G01X6024913Y-1325520D03*
G01X5999323Y-1325520D03*
G01X5973732Y-1325520D03*
G01X5948142Y-1325520D03*
G01X5922551Y-1325520D03*
G01X5896961Y-1325520D03*
G01X5871370Y-1325520D03*
G01X5845780Y-1325520D03*
G01X5820189Y-1325520D03*
G01X5794598Y-1325520D03*
G01X5769008Y-1325520D03*
G01X5743417Y-1325520D03*
G01X5717827Y-1325520D03*
G01X6459941Y-1325520D03*
G01X6434350Y-1325520D03*
G01X6408764Y-1325520D03*
G01X6383169Y-1325520D03*
G01X6357579Y-1325520D03*
G01X6331992Y-1325520D03*
G01X6306402Y-1325520D03*
G01X6280807Y-1325520D03*
G01X6255217Y-1325520D03*
G01X6229626Y-1325520D03*
G01X5777890Y1299441D03*
G01X5752299Y1299441D03*
G01X5726709Y1299441D03*
G01X5701118Y1299441D03*
G01X5675528Y1299441D03*
G01X5649937Y1299441D03*
G01X5624346Y1299441D03*
G01X5598756Y1299441D03*
G01X5573165Y1299441D03*
G01X5547575Y1299441D03*
G01X5521984Y1299441D03*
G01X5496394Y1299441D03*
G01X5470803Y1299441D03*
G01X5445213Y1299441D03*
G01X5419622Y1299441D03*
G01X5394031Y1299441D03*
G01X5368441Y1299441D03*
G01X5342850Y1299441D03*
G01X5317260Y1299441D03*
G01X5291669Y1299441D03*
G01X6033787Y1299441D03*
G01X6008197Y1299441D03*
G01X5982606Y1299441D03*
G01X5957016Y1299441D03*
G01X5931425Y1299441D03*
G01X5905835Y1299441D03*
G01X5880244Y1299441D03*
G01X5854654Y1299441D03*
G01X5829063Y1299441D03*
G01X5803472Y1299441D03*
G01X6289681Y1299441D03*
G01X6264091Y1299441D03*
G01X6238500Y1299441D03*
G01X6212909Y1299441D03*
G01X6187319Y1299441D03*
G01X6161728Y1299441D03*
G01X6136138Y1299441D03*
G01X6110547Y1299441D03*
G01X6084957Y1299441D03*
G01X6059366Y1299441D03*
G01X5777890Y2529130D03*
G01X5752299Y2529130D03*
G01X5726709Y2529130D03*
G01X5701118Y2529130D03*
G01X5675528Y2529130D03*
G01X5649937Y2529130D03*
G01X5624346Y2529130D03*
G01X5598756Y2529130D03*
G01X5573165Y2529130D03*
G01X5547575Y2529130D03*
G01X5521984Y2529130D03*
G01X5496394Y2529130D03*
G01X5470803Y2529130D03*
G01X5445213Y2529130D03*
G01X5419622Y2529130D03*
G01X5394031Y2529130D03*
G01X5368441Y2529130D03*
G01X5342850Y2529130D03*
G01X5317260Y2529130D03*
G01X5291669Y2529130D03*
G01X6033787Y2529130D03*
G01X6008197Y2529130D03*
G01X5982606Y2529130D03*
G01X5957016Y2529130D03*
G01X5931425Y2529130D03*
G01X5905835Y2529130D03*
G01X5880244Y2529130D03*
G01X5854654Y2529130D03*
G01X5829063Y2529130D03*
G01X5803472Y2529130D03*
G01X6289681Y2529130D03*
G01X6264091Y2529130D03*
G01X6238500Y2529130D03*
G01X6212909Y2529130D03*
G01X6187319Y2529130D03*
G01X6161728Y2529130D03*
G01X6136138Y2529130D03*
G01X6110547Y2529130D03*
G01X6084957Y2529130D03*
G01X6059366Y2529130D03*
G54D31*
G01X5179740Y1926291D03*
G01X5179740Y1951882D03*
G01X5179740Y1977472D03*
G01X5179740Y2003063D03*
G01X5179740Y2028654D03*
G01X5179740Y2054244D03*
G01X5179740Y2079835D03*
G01X5179740Y2105425D03*
G01X5179740Y2131016D03*
G01X5179740Y2156606D03*
G01X5179740Y2182197D03*
G01X5179740Y2207787D03*
G01X5179740Y2233378D03*
G01X5179740Y2258969D03*
G01X5179740Y2284559D03*
G01X5179740Y2310150D03*
G01X5179740Y2335740D03*
G01X5179740Y2361331D03*
G01X5179740Y2386921D03*
G01X5179740Y2412512D03*
G01X5179740Y1670394D03*
G01X5179740Y1695984D03*
G01X5179740Y1721575D03*
G01X5179740Y1747169D03*
G01X5179740Y1772760D03*
G01X5179740Y1798346D03*
G01X5179740Y1823937D03*
G01X5179740Y1849531D03*
G01X5179740Y1875122D03*
G01X5179740Y1900713D03*
G01X5179740Y1414500D03*
G01X5179740Y1440091D03*
G01X5179740Y1465681D03*
G01X5179740Y1491272D03*
G01X5179740Y1516862D03*
G01X5179740Y1542453D03*
G01X5179740Y1568043D03*
G01X5179740Y1593634D03*
G01X5179740Y1619224D03*
G01X5179740Y1644815D03*
G01X6404740Y1927854D03*
G01X6404740Y1953445D03*
G01X6404740Y1979035D03*
G01X6404740Y2004626D03*
G01X6404740Y2030217D03*
G01X6404740Y2055807D03*
G01X6404740Y2081398D03*
G01X6404740Y2106988D03*
G01X6404740Y2132579D03*
G01X6404740Y2158169D03*
G01X6404740Y2183760D03*
G01X6404740Y2209350D03*
G01X6404740Y2234941D03*
G01X6404740Y2260531D03*
G01X6404740Y2286122D03*
G01X6404740Y2311713D03*
G01X6404740Y2337303D03*
G01X6404740Y2362894D03*
G01X6404740Y2388484D03*
G01X6404740Y2414075D03*
G01X6404740Y1671961D03*
G01X6404740Y1697551D03*
G01X6404740Y1723142D03*
G01X6404740Y1748732D03*
G01X6404740Y1774323D03*
G01X6404740Y1799913D03*
G01X6404740Y1825504D03*
G01X6404740Y1851094D03*
G01X6404740Y1876685D03*
G01X6404740Y1902276D03*
G01X6404740Y1416063D03*
G01X6404740Y1441654D03*
G01X6404740Y1467244D03*
G01X6404740Y1492835D03*
G01X6404740Y1518425D03*
G01X6404740Y1544016D03*
G01X6404740Y1569606D03*
G01X6404740Y1595197D03*
G01X6404740Y1620787D03*
G01X6404740Y1646378D03*
M02*
