%FSLAX34Y34*%
%MOMM*%
%LNSMDMASK_TOP*%
G71*
G01*
%ADD10R,1.100X1.700*%
%ADD11R,2.100X1.700*%
%ADD12R,1.700X2.100*%
%ADD13R,0.540X2.100*%
%ADD14R,2.100X0.540*%
%ADD15R,3.500X1.400*%
%ADD16R,1.400X3.500*%
%ADD17R,1.000X1.000*%
%ADD18R,1.700X1.100*%
%ADD19R,0.700X2.600*%
%ADD20R,2.600X0.700*%
%ADD21R,2.300X0.300*%
%ADD22R,3.100X1.400*%
%ADD23R,1.400X3.100*%
%ADD24R,0.700X2.100*%
%ADD25R,3.000X1.700*%
%ADD26R,1.700X3.000*%
%ADD27R,3.100X2.200*%
%ADD28R,2.200X3.100*%
%ADD29R,3.200X2.300*%
%ADD30R,1.700X2.700*%
%ADD31R,2.250X0.300*%
%ADD32R,0.300X2.250*%
%LPD*%
X2039938Y82550D02*
G54D10*
D03*
X2039938Y116681D02*
G54D10*
D03*
X1881981Y-1086769D02*
G54D11*
D03*
X1881982Y-1120901D02*
G54D11*
D03*
X327025Y-222375D02*
G54D11*
D03*
X327026Y-256507D02*
G54D11*
D03*
X1459707Y46038D02*
G54D12*
D03*
X1425575Y46038D02*
G54D12*
D03*
X1790700Y-227014D02*
G54D11*
D03*
X1790700Y-192881D02*
G54D11*
D03*
X2085182Y-262732D02*
G54D11*
D03*
X2085181Y-228600D02*
G54D11*
D03*
X1983582Y-496888D02*
G54D11*
D03*
X1983581Y-462756D02*
G54D11*
D03*
X1587500Y-546101D02*
G54D11*
D03*
X1587500Y-511969D02*
G54D11*
D03*
X1587500Y-609601D02*
G54D11*
D03*
X1587500Y-575469D02*
G54D11*
D03*
X1729582Y-681038D02*
G54D11*
D03*
X1729581Y-646906D02*
G54D11*
D03*
X1968500Y-672307D02*
G54D11*
D03*
X1968500Y-638175D02*
G54D11*
D03*
X1208088Y-638176D02*
G54D11*
D03*
X1208088Y-604044D02*
G54D11*
D03*
X1801812Y-673894D02*
G54D12*
D03*
X1835945Y-673893D02*
G54D12*
D03*
X1774031Y-941388D02*
G54D12*
D03*
X1808164Y-941387D02*
G54D12*
D03*
X1693069Y-941388D02*
G54D12*
D03*
X1727201Y-941387D02*
G54D12*
D03*
X1478756Y-926306D02*
G54D12*
D03*
X1512888Y-926306D02*
G54D12*
D03*
X1300162Y-926306D02*
G54D12*
D03*
X1334295Y-926306D02*
G54D12*
D03*
X1545431Y-696912D02*
G54D12*
D03*
X1579564Y-696912D02*
G54D12*
D03*
X1453356Y-697706D02*
G54D12*
D03*
X1487488Y-697706D02*
G54D12*
D03*
X1368425Y-696912D02*
G54D12*
D03*
X1402557Y-696912D02*
G54D12*
D03*
X1277144Y-697706D02*
G54D12*
D03*
X1311276Y-697706D02*
G54D12*
D03*
X1300162Y-468312D02*
G54D12*
D03*
X1334295Y-468312D02*
G54D12*
D03*
X2905919Y-177800D02*
G54D12*
D03*
X2940051Y-177800D02*
G54D12*
D03*
X3086894Y-188119D02*
G54D12*
D03*
X3121026Y-188118D02*
G54D12*
D03*
X3178969Y-436562D02*
G54D12*
D03*
X3213101Y-436562D02*
G54D12*
D03*
X2870200Y-410369D02*
G54D12*
D03*
X2904332Y-410368D02*
G54D12*
D03*
X2954338Y-33338D02*
G54D11*
D03*
X2954338Y-67470D02*
G54D11*
D03*
X2534444Y318294D02*
G54D11*
D03*
X2534444Y284162D02*
G54D11*
D03*
X2514600Y513556D02*
G54D11*
D03*
X2514600Y479424D02*
G54D11*
D03*
X3078164Y723107D02*
G54D12*
D03*
X3044031Y723106D02*
G54D12*
D03*
X1623219Y692943D02*
G54D11*
D03*
X1623219Y727075D02*
G54D11*
D03*
X1270000Y527843D02*
G54D11*
D03*
X1270000Y561975D02*
G54D11*
D03*
X2297906Y-420969D02*
G54D13*
D03*
X2310606Y-420969D02*
G54D13*
D03*
X2323306Y-420969D02*
G54D13*
D03*
X2336006Y-420969D02*
G54D13*
D03*
X2348706Y-420969D02*
G54D13*
D03*
X2361406Y-420969D02*
G54D13*
D03*
X2374106Y-420969D02*
G54D13*
D03*
X2386806Y-420969D02*
G54D13*
D03*
X2399506Y-420969D02*
G54D13*
D03*
X2412206Y-420969D02*
G54D13*
D03*
X2424906Y-420969D02*
G54D13*
D03*
X2442906Y-402969D02*
G54D14*
D03*
X2442906Y-390269D02*
G54D14*
D03*
X2442906Y-377569D02*
G54D14*
D03*
X2442906Y-364869D02*
G54D14*
D03*
X2442906Y-352169D02*
G54D14*
D03*
X2442906Y-339469D02*
G54D14*
D03*
X2442906Y-326769D02*
G54D14*
D03*
X2442906Y-314069D02*
G54D14*
D03*
X2442906Y-301369D02*
G54D14*
D03*
X2442906Y-288669D02*
G54D14*
D03*
X2442906Y-275969D02*
G54D14*
D03*
X2442906Y-263269D02*
G54D14*
D03*
X2442906Y-250569D02*
G54D14*
D03*
X2442906Y-237869D02*
G54D14*
D03*
X2442906Y-225169D02*
G54D14*
D03*
X2442906Y-212469D02*
G54D14*
D03*
X2442906Y-199769D02*
G54D14*
D03*
X2442906Y-187069D02*
G54D14*
D03*
X2442906Y-174369D02*
G54D14*
D03*
X2442906Y-161669D02*
G54D14*
D03*
X2442906Y-148969D02*
G54D14*
D03*
X2424906Y-130969D02*
G54D13*
D03*
X2412206Y-130969D02*
G54D13*
D03*
X2399506Y-130969D02*
G54D13*
D03*
X2386806Y-130969D02*
G54D13*
D03*
X2374106Y-130969D02*
G54D13*
D03*
X2361406Y-130969D02*
G54D13*
D03*
X2348706Y-130969D02*
G54D13*
D03*
X2336006Y-130969D02*
G54D13*
D03*
X2323306Y-130969D02*
G54D13*
D03*
X2310606Y-130969D02*
G54D13*
D03*
X2297906Y-130969D02*
G54D13*
D03*
X2285206Y-130969D02*
G54D13*
D03*
X2272506Y-130969D02*
G54D13*
D03*
X2259806Y-130969D02*
G54D13*
D03*
X2247106Y-130969D02*
G54D13*
D03*
X2234406Y-130969D02*
G54D13*
D03*
X2221706Y-130969D02*
G54D13*
D03*
X2209006Y-130969D02*
G54D13*
D03*
X2196306Y-130969D02*
G54D13*
D03*
X2183606Y-130969D02*
G54D13*
D03*
X2170906Y-130969D02*
G54D13*
D03*
X2152906Y-148969D02*
G54D14*
D03*
X2152906Y-161669D02*
G54D14*
D03*
X2152906Y-174369D02*
G54D14*
D03*
X2152906Y-187069D02*
G54D14*
D03*
X2152906Y-199769D02*
G54D14*
D03*
X2152906Y-212469D02*
G54D14*
D03*
X2152906Y-225169D02*
G54D14*
D03*
X2152906Y-237869D02*
G54D14*
D03*
X2152906Y-250569D02*
G54D14*
D03*
X2152906Y-263269D02*
G54D14*
D03*
X2152906Y-275969D02*
G54D14*
D03*
X2152906Y-288669D02*
G54D14*
D03*
X2152906Y-301369D02*
G54D14*
D03*
X2152906Y-314069D02*
G54D14*
D03*
X2152906Y-326769D02*
G54D14*
D03*
X2152906Y-339469D02*
G54D14*
D03*
X2152906Y-352169D02*
G54D14*
D03*
X2152906Y-364869D02*
G54D14*
D03*
X2152906Y-377569D02*
G54D14*
D03*
X2152906Y-390269D02*
G54D14*
D03*
X2152906Y-402969D02*
G54D14*
D03*
X2170906Y-420969D02*
G54D13*
D03*
X2183606Y-420969D02*
G54D13*
D03*
X2196306Y-420969D02*
G54D13*
D03*
X2209006Y-420969D02*
G54D13*
D03*
X2221706Y-420969D02*
G54D13*
D03*
X2234406Y-420969D02*
G54D13*
D03*
X2247106Y-420969D02*
G54D13*
D03*
X2259806Y-420969D02*
G54D13*
D03*
X2272506Y-420969D02*
G54D13*
D03*
X2285206Y-420969D02*
G54D13*
D03*
X2743200Y-65369D02*
G54D13*
D03*
X2755900Y-65369D02*
G54D13*
D03*
X2768600Y-65369D02*
G54D13*
D03*
X2781300Y-65369D02*
G54D13*
D03*
X2794000Y-65369D02*
G54D13*
D03*
X2806700Y-65369D02*
G54D13*
D03*
X2819400Y-65369D02*
G54D13*
D03*
X2832100Y-65369D02*
G54D13*
D03*
X2844800Y-65369D02*
G54D13*
D03*
X2857500Y-65369D02*
G54D13*
D03*
X2870200Y-65369D02*
G54D13*
D03*
X2888200Y-47369D02*
G54D14*
D03*
X2888200Y-34669D02*
G54D14*
D03*
X2888200Y-21969D02*
G54D14*
D03*
X2888200Y-9269D02*
G54D14*
D03*
X2888200Y3431D02*
G54D14*
D03*
X2888200Y16131D02*
G54D14*
D03*
X2888200Y28831D02*
G54D14*
D03*
X2888200Y41531D02*
G54D14*
D03*
X2888200Y54231D02*
G54D14*
D03*
X2888200Y66931D02*
G54D14*
D03*
X2888200Y79631D02*
G54D14*
D03*
X2888200Y92331D02*
G54D14*
D03*
X2888200Y105031D02*
G54D14*
D03*
X2888200Y117731D02*
G54D14*
D03*
X2888200Y130431D02*
G54D14*
D03*
X2888200Y143131D02*
G54D14*
D03*
X2888200Y155831D02*
G54D14*
D03*
X2888200Y168531D02*
G54D14*
D03*
X2888200Y181231D02*
G54D14*
D03*
X2888200Y193931D02*
G54D14*
D03*
X2888200Y206631D02*
G54D14*
D03*
X2870200Y224631D02*
G54D13*
D03*
X2857500Y224631D02*
G54D13*
D03*
X2844800Y224631D02*
G54D13*
D03*
X2832100Y224631D02*
G54D13*
D03*
X2819400Y224631D02*
G54D13*
D03*
X2806700Y224631D02*
G54D13*
D03*
X2794000Y224631D02*
G54D13*
D03*
X2781300Y224631D02*
G54D13*
D03*
X2768600Y224631D02*
G54D13*
D03*
X2755900Y224631D02*
G54D13*
D03*
X2743200Y224631D02*
G54D13*
D03*
X2730500Y224631D02*
G54D13*
D03*
X2679700Y224631D02*
G54D13*
D03*
X2667000Y224631D02*
G54D13*
D03*
X2654300Y224631D02*
G54D13*
D03*
X2641600Y224631D02*
G54D13*
D03*
X2628900Y224631D02*
G54D13*
D03*
X2616200Y224631D02*
G54D13*
D03*
X2598200Y206631D02*
G54D14*
D03*
X2598200Y193931D02*
G54D14*
D03*
X2598200Y181231D02*
G54D14*
D03*
X2598200Y168531D02*
G54D14*
D03*
X2598200Y155831D02*
G54D14*
D03*
X2598200Y143131D02*
G54D14*
D03*
X2598200Y130431D02*
G54D14*
D03*
X2598200Y117731D02*
G54D14*
D03*
X2598200Y105031D02*
G54D14*
D03*
X2598200Y92331D02*
G54D14*
D03*
X2598200Y79631D02*
G54D14*
D03*
X2598200Y66931D02*
G54D14*
D03*
X2598200Y54231D02*
G54D14*
D03*
X2598200Y41531D02*
G54D14*
D03*
X2598200Y28831D02*
G54D14*
D03*
X2598200Y16131D02*
G54D14*
D03*
X2598200Y3431D02*
G54D14*
D03*
X2598200Y-9269D02*
G54D14*
D03*
X2598200Y-21969D02*
G54D14*
D03*
X2598200Y-34669D02*
G54D14*
D03*
X2598200Y-47369D02*
G54D14*
D03*
X2616200Y-65369D02*
G54D13*
D03*
X2628900Y-65369D02*
G54D13*
D03*
X2641600Y-65369D02*
G54D13*
D03*
X2654300Y-65369D02*
G54D13*
D03*
X2667000Y-65369D02*
G54D13*
D03*
X2679700Y-65369D02*
G54D13*
D03*
X2692400Y-65369D02*
G54D13*
D03*
X2705100Y-65369D02*
G54D13*
D03*
X2717800Y-65369D02*
G54D13*
D03*
X2730500Y-65369D02*
G54D13*
D03*
X2165350Y461169D02*
G54D14*
D03*
X2165350Y448469D02*
G54D14*
D03*
X2165350Y435769D02*
G54D14*
D03*
X2165350Y423069D02*
G54D14*
D03*
X2165350Y410369D02*
G54D14*
D03*
X2165350Y397669D02*
G54D14*
D03*
X2165350Y384969D02*
G54D14*
D03*
X2165350Y372269D02*
G54D14*
D03*
X2165350Y359569D02*
G54D14*
D03*
X2165350Y346869D02*
G54D14*
D03*
X2165350Y334169D02*
G54D14*
D03*
X2183350Y316169D02*
G54D13*
D03*
X2196050Y316169D02*
G54D13*
D03*
X2208750Y316169D02*
G54D13*
D03*
X2221450Y316169D02*
G54D13*
D03*
X2234150Y316169D02*
G54D13*
D03*
X2246850Y316169D02*
G54D13*
D03*
X2259550Y316169D02*
G54D13*
D03*
X2272250Y316169D02*
G54D13*
D03*
X2284950Y316169D02*
G54D13*
D03*
X2297650Y316169D02*
G54D13*
D03*
X2310350Y316169D02*
G54D13*
D03*
X2323050Y316169D02*
G54D13*
D03*
X2335750Y316169D02*
G54D13*
D03*
X2348450Y316169D02*
G54D13*
D03*
X2361150Y316169D02*
G54D13*
D03*
X2373850Y316169D02*
G54D13*
D03*
X2386550Y316169D02*
G54D13*
D03*
X2399250Y316169D02*
G54D13*
D03*
X2411950Y316169D02*
G54D13*
D03*
X2424650Y316169D02*
G54D13*
D03*
X2437350Y316169D02*
G54D13*
D03*
X2455350Y334169D02*
G54D14*
D03*
X2455350Y346869D02*
G54D14*
D03*
X2455350Y359569D02*
G54D14*
D03*
X2455350Y372269D02*
G54D14*
D03*
X2455350Y384969D02*
G54D14*
D03*
X2455350Y397669D02*
G54D14*
D03*
X2455350Y410369D02*
G54D14*
D03*
X2455350Y423069D02*
G54D14*
D03*
X2455350Y435769D02*
G54D14*
D03*
X2455350Y448469D02*
G54D14*
D03*
X2455350Y461169D02*
G54D14*
D03*
X2455350Y473869D02*
G54D14*
D03*
X2455350Y486569D02*
G54D14*
D03*
X2455350Y499269D02*
G54D14*
D03*
X2455350Y511969D02*
G54D14*
D03*
X2455350Y524669D02*
G54D14*
D03*
X2455350Y537369D02*
G54D14*
D03*
X2455350Y550069D02*
G54D14*
D03*
X2455350Y562769D02*
G54D14*
D03*
X2455350Y575469D02*
G54D14*
D03*
X2455350Y588169D02*
G54D14*
D03*
X2437350Y606169D02*
G54D13*
D03*
X2424650Y606169D02*
G54D13*
D03*
X2411950Y606169D02*
G54D13*
D03*
X2399250Y606169D02*
G54D13*
D03*
X2386550Y606169D02*
G54D13*
D03*
X2373850Y606169D02*
G54D13*
D03*
X2361150Y606169D02*
G54D13*
D03*
X2348450Y606169D02*
G54D13*
D03*
X2335750Y606169D02*
G54D13*
D03*
X2323050Y606169D02*
G54D13*
D03*
X2310350Y606169D02*
G54D13*
D03*
X2297650Y606169D02*
G54D13*
D03*
X2284950Y606169D02*
G54D13*
D03*
X2272250Y606169D02*
G54D13*
D03*
X2259550Y606169D02*
G54D13*
D03*
X2246850Y606169D02*
G54D13*
D03*
X2234150Y606169D02*
G54D13*
D03*
X2221450Y606169D02*
G54D13*
D03*
X2208750Y606169D02*
G54D13*
D03*
X2196050Y606169D02*
G54D13*
D03*
X2183350Y606169D02*
G54D13*
D03*
X2165350Y588169D02*
G54D14*
D03*
X2165350Y575469D02*
G54D14*
D03*
X2165350Y562769D02*
G54D14*
D03*
X2165350Y550069D02*
G54D14*
D03*
X2165350Y537369D02*
G54D14*
D03*
X2165350Y524669D02*
G54D14*
D03*
X2165350Y511969D02*
G54D14*
D03*
X2165350Y499269D02*
G54D14*
D03*
X2165350Y486569D02*
G54D14*
D03*
X2165350Y473869D02*
G54D14*
D03*
X631825Y325438D02*
G54D13*
D03*
X619125Y325438D02*
G54D13*
D03*
X606425Y325438D02*
G54D13*
D03*
X593725Y325438D02*
G54D13*
D03*
X581025Y325438D02*
G54D13*
D03*
X568325Y325438D02*
G54D13*
D03*
X555625Y325438D02*
G54D13*
D03*
X542925Y325438D02*
G54D13*
D03*
X530225Y325438D02*
G54D13*
D03*
X517525Y325438D02*
G54D13*
D03*
X504825Y325438D02*
G54D13*
D03*
X486825Y307438D02*
G54D14*
D03*
X486825Y294738D02*
G54D14*
D03*
X486825Y282038D02*
G54D14*
D03*
X486825Y269338D02*
G54D14*
D03*
X486825Y256638D02*
G54D14*
D03*
X486825Y243938D02*
G54D14*
D03*
X486825Y231238D02*
G54D14*
D03*
X486825Y218538D02*
G54D14*
D03*
X486825Y205838D02*
G54D14*
D03*
X486825Y193138D02*
G54D14*
D03*
X486825Y180438D02*
G54D14*
D03*
X486825Y167738D02*
G54D14*
D03*
X486825Y155038D02*
G54D14*
D03*
X486825Y142338D02*
G54D14*
D03*
X486825Y129638D02*
G54D14*
D03*
X486825Y116938D02*
G54D14*
D03*
X486825Y104238D02*
G54D14*
D03*
X486825Y91538D02*
G54D14*
D03*
X486825Y78838D02*
G54D14*
D03*
X486825Y66138D02*
G54D14*
D03*
X486825Y53438D02*
G54D14*
D03*
X504825Y35438D02*
G54D13*
D03*
X517525Y35438D02*
G54D13*
D03*
X530225Y35438D02*
G54D13*
D03*
X542925Y35438D02*
G54D13*
D03*
X555625Y35438D02*
G54D13*
D03*
X568325Y35438D02*
G54D13*
D03*
X581025Y35438D02*
G54D13*
D03*
X593725Y35438D02*
G54D13*
D03*
X606425Y35438D02*
G54D13*
D03*
X619125Y35438D02*
G54D13*
D03*
X631825Y35438D02*
G54D13*
D03*
X644525Y35438D02*
G54D13*
D03*
X657225Y35438D02*
G54D13*
D03*
X669925Y35438D02*
G54D13*
D03*
X682625Y35438D02*
G54D13*
D03*
X695325Y35438D02*
G54D13*
D03*
X708025Y35438D02*
G54D13*
D03*
X720725Y35438D02*
G54D13*
D03*
X733425Y35438D02*
G54D13*
D03*
X746125Y35438D02*
G54D13*
D03*
X758825Y35438D02*
G54D13*
D03*
X776825Y53438D02*
G54D14*
D03*
X776825Y66138D02*
G54D14*
D03*
X776825Y78838D02*
G54D14*
D03*
X776825Y91538D02*
G54D14*
D03*
X776825Y104238D02*
G54D14*
D03*
X776825Y116938D02*
G54D14*
D03*
X776825Y129638D02*
G54D14*
D03*
X776825Y142338D02*
G54D14*
D03*
X776825Y155038D02*
G54D14*
D03*
X776825Y167738D02*
G54D14*
D03*
X776825Y180438D02*
G54D14*
D03*
X776825Y193138D02*
G54D14*
D03*
X776825Y205838D02*
G54D14*
D03*
X776825Y218538D02*
G54D14*
D03*
X776825Y231238D02*
G54D14*
D03*
X776825Y243938D02*
G54D14*
D03*
X776825Y256638D02*
G54D14*
D03*
X776825Y269338D02*
G54D14*
D03*
X776825Y282038D02*
G54D14*
D03*
X776825Y294738D02*
G54D14*
D03*
X776825Y307438D02*
G54D14*
D03*
X758825Y325438D02*
G54D13*
D03*
X746125Y325438D02*
G54D13*
D03*
X733425Y325438D02*
G54D13*
D03*
X720725Y325438D02*
G54D13*
D03*
X708025Y325438D02*
G54D13*
D03*
X695325Y325438D02*
G54D13*
D03*
X682625Y325438D02*
G54D13*
D03*
X669925Y325438D02*
G54D13*
D03*
X657225Y325438D02*
G54D13*
D03*
X644525Y325438D02*
G54D13*
D03*
X554831Y-422556D02*
G54D13*
D03*
X567531Y-422556D02*
G54D13*
D03*
X580231Y-422556D02*
G54D13*
D03*
X592931Y-422556D02*
G54D13*
D03*
X605631Y-422556D02*
G54D13*
D03*
X618331Y-422556D02*
G54D13*
D03*
X631031Y-422556D02*
G54D13*
D03*
X643731Y-422556D02*
G54D13*
D03*
X656431Y-422556D02*
G54D13*
D03*
X669131Y-422556D02*
G54D13*
D03*
X681831Y-422556D02*
G54D13*
D03*
X699831Y-404556D02*
G54D14*
D03*
X699831Y-391856D02*
G54D14*
D03*
X699831Y-379156D02*
G54D14*
D03*
X699831Y-366456D02*
G54D14*
D03*
X699831Y-353756D02*
G54D14*
D03*
X699831Y-341056D02*
G54D14*
D03*
X699831Y-328356D02*
G54D14*
D03*
X699831Y-315656D02*
G54D14*
D03*
X699831Y-302956D02*
G54D14*
D03*
X699831Y-290256D02*
G54D14*
D03*
X699831Y-277556D02*
G54D14*
D03*
X699831Y-264856D02*
G54D14*
D03*
X699831Y-252156D02*
G54D14*
D03*
X699831Y-239456D02*
G54D14*
D03*
X699831Y-226756D02*
G54D14*
D03*
X699831Y-214056D02*
G54D14*
D03*
X699831Y-201356D02*
G54D14*
D03*
X699831Y-188656D02*
G54D14*
D03*
X699831Y-175956D02*
G54D14*
D03*
X699831Y-163256D02*
G54D14*
D03*
X699831Y-150556D02*
G54D14*
D03*
X681831Y-132556D02*
G54D13*
D03*
X669131Y-132556D02*
G54D13*
D03*
X656431Y-132556D02*
G54D13*
D03*
X643731Y-132556D02*
G54D13*
D03*
X631031Y-132556D02*
G54D13*
D03*
X618331Y-132556D02*
G54D13*
D03*
X605631Y-132556D02*
G54D13*
D03*
X592931Y-132556D02*
G54D13*
D03*
X580231Y-132556D02*
G54D13*
D03*
X567531Y-132556D02*
G54D13*
D03*
X554831Y-132556D02*
G54D13*
D03*
X542131Y-132556D02*
G54D13*
D03*
X529431Y-132556D02*
G54D13*
D03*
X516731Y-132556D02*
G54D13*
D03*
X504031Y-132556D02*
G54D13*
D03*
X491331Y-132556D02*
G54D13*
D03*
X478631Y-132556D02*
G54D13*
D03*
X465931Y-132556D02*
G54D13*
D03*
X453231Y-132556D02*
G54D13*
D03*
X440531Y-132556D02*
G54D13*
D03*
X427831Y-132556D02*
G54D13*
D03*
X409831Y-150556D02*
G54D14*
D03*
X409831Y-163256D02*
G54D14*
D03*
X409831Y-175956D02*
G54D14*
D03*
X409831Y-188656D02*
G54D14*
D03*
X409831Y-201356D02*
G54D14*
D03*
X409831Y-214056D02*
G54D14*
D03*
X409831Y-226756D02*
G54D14*
D03*
X409831Y-239456D02*
G54D14*
D03*
X409831Y-252156D02*
G54D14*
D03*
X409831Y-264856D02*
G54D14*
D03*
X409831Y-277556D02*
G54D14*
D03*
X409831Y-290256D02*
G54D14*
D03*
X409831Y-302956D02*
G54D14*
D03*
X409831Y-315656D02*
G54D14*
D03*
X409831Y-328356D02*
G54D14*
D03*
X409831Y-341056D02*
G54D14*
D03*
X409831Y-353756D02*
G54D14*
D03*
X409831Y-366456D02*
G54D14*
D03*
X409831Y-379156D02*
G54D14*
D03*
X409831Y-391856D02*
G54D14*
D03*
X409831Y-404556D02*
G54D14*
D03*
X427831Y-422556D02*
G54D13*
D03*
X440531Y-422556D02*
G54D13*
D03*
X453231Y-422556D02*
G54D13*
D03*
X465931Y-422556D02*
G54D13*
D03*
X478631Y-422556D02*
G54D13*
D03*
X491331Y-422556D02*
G54D13*
D03*
X504031Y-422556D02*
G54D13*
D03*
X516731Y-422556D02*
G54D13*
D03*
X529431Y-422556D02*
G54D13*
D03*
X542131Y-422556D02*
G54D13*
D03*
X302419Y173038D02*
G54D13*
D03*
X289719Y173038D02*
G54D13*
D03*
X277019Y173038D02*
G54D13*
D03*
X264319Y173038D02*
G54D13*
D03*
X251619Y173038D02*
G54D13*
D03*
X238919Y173038D02*
G54D13*
D03*
X226219Y173038D02*
G54D13*
D03*
X208419Y155238D02*
G54D14*
D03*
X208419Y142538D02*
G54D14*
D03*
X208419Y129838D02*
G54D14*
D03*
X208419Y117138D02*
G54D14*
D03*
X208419Y104438D02*
G54D14*
D03*
X208419Y91738D02*
G54D14*
D03*
X208419Y79038D02*
G54D14*
D03*
X208419Y66338D02*
G54D14*
D03*
X208419Y53638D02*
G54D14*
D03*
X208419Y40938D02*
G54D14*
D03*
X208419Y28238D02*
G54D14*
D03*
X208419Y15538D02*
G54D14*
D03*
X208419Y2838D02*
G54D14*
D03*
X226219Y-14962D02*
G54D13*
D03*
X238919Y-14962D02*
G54D13*
D03*
X251619Y-14962D02*
G54D13*
D03*
X264319Y-14962D02*
G54D13*
D03*
X277019Y-14962D02*
G54D13*
D03*
X289719Y-14962D02*
G54D13*
D03*
X302419Y-14962D02*
G54D13*
D03*
X315119Y-14962D02*
G54D13*
D03*
X327819Y-14962D02*
G54D13*
D03*
X340519Y-14962D02*
G54D13*
D03*
X353219Y-14962D02*
G54D13*
D03*
X365919Y-14962D02*
G54D13*
D03*
X378619Y-14962D02*
G54D13*
D03*
X396419Y2838D02*
G54D14*
D03*
X396419Y15538D02*
G54D14*
D03*
X396419Y28238D02*
G54D14*
D03*
X396419Y40938D02*
G54D14*
D03*
X396419Y53638D02*
G54D14*
D03*
X396419Y66338D02*
G54D14*
D03*
X396419Y79038D02*
G54D14*
D03*
X396419Y91738D02*
G54D14*
D03*
X396419Y104438D02*
G54D14*
D03*
X396419Y117138D02*
G54D14*
D03*
X396419Y129838D02*
G54D14*
D03*
X396419Y142538D02*
G54D14*
D03*
X396419Y155238D02*
G54D14*
D03*
X378619Y173038D02*
G54D13*
D03*
X365919Y173038D02*
G54D13*
D03*
X353219Y173038D02*
G54D13*
D03*
X340519Y173038D02*
G54D13*
D03*
X327819Y173038D02*
G54D13*
D03*
X315119Y173038D02*
G54D13*
D03*
X525462Y586581D02*
G54D14*
D03*
X525462Y573881D02*
G54D14*
D03*
X525462Y561181D02*
G54D14*
D03*
X525462Y548481D02*
G54D14*
D03*
X525462Y535781D02*
G54D14*
D03*
X525462Y523081D02*
G54D14*
D03*
X542962Y505581D02*
G54D13*
D03*
X555662Y505581D02*
G54D13*
D03*
X568362Y505581D02*
G54D13*
D03*
X581062Y505581D02*
G54D13*
D03*
X593762Y505581D02*
G54D13*
D03*
X606462Y505581D02*
G54D13*
D03*
X619162Y505581D02*
G54D13*
D03*
X631862Y505581D02*
G54D13*
D03*
X644562Y505581D02*
G54D13*
D03*
X657262Y505581D02*
G54D13*
D03*
X669962Y505581D02*
G54D13*
D03*
X687462Y523081D02*
G54D14*
D03*
X687462Y535781D02*
G54D14*
D03*
X687462Y548481D02*
G54D14*
D03*
X687462Y561181D02*
G54D14*
D03*
X687462Y573881D02*
G54D14*
D03*
X687462Y586581D02*
G54D14*
D03*
X687462Y599281D02*
G54D14*
D03*
X687462Y611981D02*
G54D14*
D03*
X687462Y624681D02*
G54D14*
D03*
X687462Y637381D02*
G54D14*
D03*
X687462Y650081D02*
G54D14*
D03*
X669962Y667581D02*
G54D13*
D03*
X657262Y667581D02*
G54D13*
D03*
X644562Y667581D02*
G54D13*
D03*
X631862Y667581D02*
G54D13*
D03*
X619162Y667581D02*
G54D13*
D03*
X606462Y667581D02*
G54D13*
D03*
X593762Y667581D02*
G54D13*
D03*
X581062Y667581D02*
G54D13*
D03*
X568362Y667581D02*
G54D13*
D03*
X555662Y667581D02*
G54D13*
D03*
X542962Y667581D02*
G54D13*
D03*
X525462Y650081D02*
G54D14*
D03*
X525462Y637381D02*
G54D14*
D03*
X525462Y624681D02*
G54D14*
D03*
X525462Y611981D02*
G54D14*
D03*
X525462Y599281D02*
G54D14*
D03*
X860425Y668338D02*
G54D13*
D03*
X847725Y668338D02*
G54D13*
D03*
X835025Y668338D02*
G54D13*
D03*
X822325Y668338D02*
G54D13*
D03*
X809625Y668338D02*
G54D13*
D03*
X796925Y668338D02*
G54D13*
D03*
X779425Y650838D02*
G54D14*
D03*
X779425Y638138D02*
G54D14*
D03*
X779425Y625438D02*
G54D14*
D03*
X779425Y612738D02*
G54D14*
D03*
X779425Y600038D02*
G54D14*
D03*
X779425Y587338D02*
G54D14*
D03*
X779425Y574638D02*
G54D14*
D03*
X779425Y561938D02*
G54D14*
D03*
X779425Y549238D02*
G54D14*
D03*
X779425Y536538D02*
G54D14*
D03*
X779425Y523838D02*
G54D14*
D03*
X796925Y506338D02*
G54D13*
D03*
X809625Y506338D02*
G54D13*
D03*
X822325Y506338D02*
G54D13*
D03*
X835025Y506338D02*
G54D13*
D03*
X847725Y506338D02*
G54D13*
D03*
X860425Y506338D02*
G54D13*
D03*
X873125Y506338D02*
G54D13*
D03*
X885825Y506338D02*
G54D13*
D03*
X898525Y506338D02*
G54D13*
D03*
X911225Y506338D02*
G54D13*
D03*
X923925Y506338D02*
G54D13*
D03*
X941425Y523838D02*
G54D14*
D03*
X941425Y536538D02*
G54D14*
D03*
X941425Y549238D02*
G54D14*
D03*
X941425Y561938D02*
G54D14*
D03*
X941425Y574638D02*
G54D14*
D03*
X941425Y587338D02*
G54D14*
D03*
X941425Y600038D02*
G54D14*
D03*
X941425Y612738D02*
G54D14*
D03*
X941425Y625438D02*
G54D14*
D03*
X941425Y638138D02*
G54D14*
D03*
X941425Y650838D02*
G54D14*
D03*
X923925Y668338D02*
G54D13*
D03*
X911225Y668338D02*
G54D13*
D03*
X898525Y668338D02*
G54D13*
D03*
X885825Y668338D02*
G54D13*
D03*
X873125Y668338D02*
G54D13*
D03*
X1908175Y120650D02*
G54D14*
D03*
X1908175Y107950D02*
G54D14*
D03*
X1908175Y95250D02*
G54D14*
D03*
X1925775Y77650D02*
G54D13*
D03*
X1938475Y77650D02*
G54D13*
D03*
X1951175Y77650D02*
G54D13*
D03*
X1963875Y77650D02*
G54D13*
D03*
X1976575Y77650D02*
G54D13*
D03*
X1994175Y95250D02*
G54D14*
D03*
X1994175Y107950D02*
G54D14*
D03*
X1994175Y120650D02*
G54D14*
D03*
X1994175Y133350D02*
G54D14*
D03*
X1994175Y146050D02*
G54D14*
D03*
X1976575Y163650D02*
G54D13*
D03*
X1963875Y163650D02*
G54D13*
D03*
X1951175Y163650D02*
G54D13*
D03*
X1938475Y163650D02*
G54D13*
D03*
X1925775Y163650D02*
G54D13*
D03*
X1908175Y146050D02*
G54D14*
D03*
X1908175Y133350D02*
G54D14*
D03*
X1730375Y87312D02*
G54D14*
D03*
X1730375Y74612D02*
G54D14*
D03*
X1730375Y61912D02*
G54D14*
D03*
X1747975Y44312D02*
G54D13*
D03*
X1760675Y44312D02*
G54D13*
D03*
X1773375Y44312D02*
G54D13*
D03*
X1786075Y44312D02*
G54D13*
D03*
X1798775Y44312D02*
G54D13*
D03*
X1816375Y61912D02*
G54D14*
D03*
X1816375Y74612D02*
G54D14*
D03*
X1816375Y87312D02*
G54D14*
D03*
X1816375Y100012D02*
G54D14*
D03*
X1816375Y112712D02*
G54D14*
D03*
X1798775Y130312D02*
G54D13*
D03*
X1786075Y130312D02*
G54D13*
D03*
X1773375Y130312D02*
G54D13*
D03*
X1760675Y130312D02*
G54D13*
D03*
X1747975Y130312D02*
G54D13*
D03*
X1730375Y112712D02*
G54D14*
D03*
X1730375Y100012D02*
G54D14*
D03*
X843794Y-824744D02*
G54D14*
D03*
X843794Y-812044D02*
G54D14*
D03*
X843794Y-799344D02*
G54D14*
D03*
X843794Y-786644D02*
G54D14*
D03*
X843794Y-773944D02*
G54D14*
D03*
X843794Y-761244D02*
G54D14*
D03*
X826294Y-743744D02*
G54D13*
D03*
X813594Y-743744D02*
G54D13*
D03*
X800894Y-743744D02*
G54D13*
D03*
X788194Y-743744D02*
G54D13*
D03*
X775494Y-743744D02*
G54D13*
D03*
X762794Y-743744D02*
G54D13*
D03*
X750094Y-743744D02*
G54D13*
D03*
X737394Y-743744D02*
G54D13*
D03*
X724694Y-743744D02*
G54D13*
D03*
X711994Y-743744D02*
G54D13*
D03*
X699294Y-743744D02*
G54D13*
D03*
X681794Y-761244D02*
G54D14*
D03*
X681794Y-773944D02*
G54D14*
D03*
X681794Y-786644D02*
G54D14*
D03*
X681794Y-799344D02*
G54D14*
D03*
X681794Y-812044D02*
G54D14*
D03*
X681794Y-824744D02*
G54D14*
D03*
X681794Y-837444D02*
G54D14*
D03*
X681794Y-850144D02*
G54D14*
D03*
X681794Y-862844D02*
G54D14*
D03*
X681794Y-875544D02*
G54D14*
D03*
X681794Y-888244D02*
G54D14*
D03*
X699294Y-905744D02*
G54D13*
D03*
X711994Y-905744D02*
G54D13*
D03*
X724694Y-905744D02*
G54D13*
D03*
X737394Y-905744D02*
G54D13*
D03*
X750094Y-905744D02*
G54D13*
D03*
X762794Y-905744D02*
G54D13*
D03*
X775494Y-905744D02*
G54D13*
D03*
X788194Y-905744D02*
G54D13*
D03*
X800894Y-905744D02*
G54D13*
D03*
X813594Y-905744D02*
G54D13*
D03*
X826294Y-905744D02*
G54D13*
D03*
X843794Y-888244D02*
G54D14*
D03*
X843794Y-875544D02*
G54D14*
D03*
X843794Y-862844D02*
G54D14*
D03*
X843794Y-850144D02*
G54D14*
D03*
X843794Y-837444D02*
G54D14*
D03*
X1751013Y-1104107D02*
G54D15*
D03*
X1697832Y-1104107D02*
G54D15*
D03*
X1751012Y-1307306D02*
G54D15*
D03*
X1697831Y-1307306D02*
G54D15*
D03*
X1750219Y-1511301D02*
G54D15*
D03*
X1697038Y-1511301D02*
G54D15*
D03*
X1750219Y-1714500D02*
G54D15*
D03*
X1697038Y-1714500D02*
G54D15*
D03*
X1787525Y-1927225D02*
G54D15*
D03*
X1734344Y-1927225D02*
G54D15*
D03*
X2482850Y-906463D02*
G54D15*
D03*
X2429669Y-906463D02*
G54D15*
D03*
X326232Y-1309688D02*
G54D15*
D03*
X273050Y-1309688D02*
G54D15*
D03*
X122238Y-320676D02*
G54D15*
D03*
X69057Y-320676D02*
G54D15*
D03*
X310357Y792956D02*
G54D15*
D03*
X257176Y792956D02*
G54D15*
D03*
X777082Y799306D02*
G54D15*
D03*
X723900Y799306D02*
G54D15*
D03*
X567532Y742949D02*
G54D15*
D03*
X514350Y742949D02*
G54D15*
D03*
X1951832Y-365920D02*
G54D15*
D03*
X1898650Y-365920D02*
G54D15*
D03*
X1870075Y-253481D02*
G54D13*
D03*
X1882775Y-253481D02*
G54D13*
D03*
X1895475Y-253481D02*
G54D13*
D03*
X1913075Y-235881D02*
G54D14*
D03*
X1913075Y-223181D02*
G54D14*
D03*
X1913075Y-210481D02*
G54D14*
D03*
X1913075Y-197781D02*
G54D14*
D03*
X1913075Y-185081D02*
G54D14*
D03*
X1895475Y-167481D02*
G54D13*
D03*
X1882775Y-167481D02*
G54D13*
D03*
X1870075Y-167481D02*
G54D13*
D03*
X1857375Y-167481D02*
G54D13*
D03*
X1844675Y-167481D02*
G54D13*
D03*
X1827075Y-185081D02*
G54D14*
D03*
X1827075Y-197781D02*
G54D14*
D03*
X1827075Y-210481D02*
G54D14*
D03*
X1827075Y-223181D02*
G54D14*
D03*
X1827075Y-235881D02*
G54D14*
D03*
X1844675Y-253481D02*
G54D13*
D03*
X1857375Y-253481D02*
G54D13*
D03*
X2407444Y882650D02*
G54D14*
D03*
X2407444Y869950D02*
G54D14*
D03*
X2407444Y857250D02*
G54D14*
D03*
X2407444Y844550D02*
G54D14*
D03*
X2425344Y826650D02*
G54D13*
D03*
X2438044Y826650D02*
G54D13*
D03*
X2450744Y826650D02*
G54D13*
D03*
X2463444Y826650D02*
G54D13*
D03*
X2476144Y826650D02*
G54D13*
D03*
X2488844Y826650D02*
G54D13*
D03*
X2501544Y826650D02*
G54D13*
D03*
X2519444Y844550D02*
G54D14*
D03*
X2519444Y857250D02*
G54D14*
D03*
X2519444Y869950D02*
G54D14*
D03*
X2519444Y882650D02*
G54D14*
D03*
X2519444Y895350D02*
G54D14*
D03*
X2519444Y908050D02*
G54D14*
D03*
X2519444Y920750D02*
G54D14*
D03*
X2501544Y938650D02*
G54D13*
D03*
X2488844Y938650D02*
G54D13*
D03*
X2476144Y938650D02*
G54D13*
D03*
X2463444Y938650D02*
G54D13*
D03*
X2450744Y938650D02*
G54D13*
D03*
X2438044Y938650D02*
G54D13*
D03*
X2425344Y938650D02*
G54D13*
D03*
X2407444Y920750D02*
G54D14*
D03*
X2407444Y908050D02*
G54D14*
D03*
X2407444Y895350D02*
G54D14*
D03*
X2813844Y791369D02*
G54D14*
D03*
X2813844Y778669D02*
G54D14*
D03*
X2813844Y765969D02*
G54D14*
D03*
X2813844Y753269D02*
G54D14*
D03*
X2831744Y735369D02*
G54D13*
D03*
X2844444Y735369D02*
G54D13*
D03*
X2857144Y735369D02*
G54D13*
D03*
X2869844Y735369D02*
G54D13*
D03*
X2882544Y735369D02*
G54D13*
D03*
X2895244Y735369D02*
G54D13*
D03*
X2907944Y735369D02*
G54D13*
D03*
X2925844Y753269D02*
G54D14*
D03*
X2925844Y765969D02*
G54D14*
D03*
X2925844Y778669D02*
G54D14*
D03*
X2925844Y791369D02*
G54D14*
D03*
X2925844Y804069D02*
G54D14*
D03*
X2925844Y816769D02*
G54D14*
D03*
X2925844Y829469D02*
G54D14*
D03*
X2907944Y847369D02*
G54D13*
D03*
X2895244Y847369D02*
G54D13*
D03*
X2882544Y847369D02*
G54D13*
D03*
X2869844Y847369D02*
G54D13*
D03*
X2857144Y847369D02*
G54D13*
D03*
X2844444Y847369D02*
G54D13*
D03*
X2831744Y847369D02*
G54D13*
D03*
X2813844Y829469D02*
G54D14*
D03*
X2813844Y816769D02*
G54D14*
D03*
X2813844Y804069D02*
G54D14*
D03*
X2792413Y919956D02*
G54D15*
D03*
X2739232Y919956D02*
G54D15*
D03*
X390525Y-896938D02*
G54D16*
D03*
X390525Y-843756D02*
G54D16*
D03*
X559594Y-912812D02*
G54D16*
D03*
X559594Y-859631D02*
G54D16*
D03*
X1312862Y-293688D02*
G54D16*
D03*
X1312862Y-240506D02*
G54D16*
D03*
X3109912Y-1285081D02*
G54D17*
D03*
X3109912Y-1304081D02*
G54D17*
D03*
X3087712Y-1294581D02*
G54D17*
D03*
X3165475Y-1284288D02*
G54D17*
D03*
X3165475Y-1303288D02*
G54D17*
D03*
X3143275Y-1293788D02*
G54D17*
D03*
X3109912Y-1325562D02*
G54D17*
D03*
X3109912Y-1344562D02*
G54D17*
D03*
X3087712Y-1335062D02*
G54D17*
D03*
X3155156Y-1325562D02*
G54D17*
D03*
X3155156Y-1344562D02*
G54D17*
D03*
X3132956Y-1335062D02*
G54D17*
D03*
X3241675Y-1573212D02*
G54D17*
D03*
X3241675Y-1592212D02*
G54D17*
D03*
X3219475Y-1582712D02*
G54D17*
D03*
X3193256Y-1573212D02*
G54D17*
D03*
X3193256Y-1592212D02*
G54D17*
D03*
X3171056Y-1582712D02*
G54D17*
D03*
X3032125Y-900112D02*
G54D17*
D03*
X3032125Y-919112D02*
G54D17*
D03*
X3009925Y-909612D02*
G54D17*
D03*
X413544Y349250D02*
G54D17*
D03*
X413544Y330250D02*
G54D17*
D03*
X391344Y339750D02*
G54D17*
D03*
X413544Y311944D02*
G54D17*
D03*
X413544Y292944D02*
G54D17*
D03*
X391344Y302444D02*
G54D17*
D03*
X1445419Y94975D02*
G54D13*
D03*
X1458119Y94975D02*
G54D13*
D03*
X1470819Y94975D02*
G54D13*
D03*
X1488419Y112575D02*
G54D14*
D03*
X1488419Y125275D02*
G54D14*
D03*
X1488419Y137975D02*
G54D14*
D03*
X1488419Y150675D02*
G54D14*
D03*
X1488419Y163375D02*
G54D14*
D03*
X1470819Y180975D02*
G54D13*
D03*
X1458119Y180975D02*
G54D13*
D03*
X1445419Y180975D02*
G54D13*
D03*
X1432719Y180975D02*
G54D13*
D03*
X1420019Y180975D02*
G54D13*
D03*
X1402419Y163375D02*
G54D14*
D03*
X1402419Y150675D02*
G54D14*
D03*
X1402419Y137975D02*
G54D14*
D03*
X1402419Y125275D02*
G54D14*
D03*
X1402419Y112575D02*
G54D14*
D03*
X1420019Y94975D02*
G54D13*
D03*
X1432719Y94975D02*
G54D13*
D03*
X3000375Y800894D02*
G54D17*
D03*
X3000375Y781894D02*
G54D17*
D03*
X2978175Y791394D02*
G54D17*
D03*
X2325688Y76200D02*
G54D16*
D03*
X2325688Y129381D02*
G54D16*
D03*
X1011238Y922338D02*
G54D10*
D03*
X1011238Y888206D02*
G54D10*
D03*
X1036638Y922338D02*
G54D10*
D03*
X1036638Y888206D02*
G54D10*
D03*
X1062038Y922338D02*
G54D10*
D03*
X1062038Y888206D02*
G54D10*
D03*
X1087438Y922338D02*
G54D10*
D03*
X1087438Y888206D02*
G54D10*
D03*
X1112838Y922338D02*
G54D10*
D03*
X1112838Y888206D02*
G54D10*
D03*
X1138238Y888206D02*
G54D10*
D03*
X1138238Y922338D02*
G54D10*
D03*
X1163638Y888206D02*
G54D10*
D03*
X1163638Y922338D02*
G54D10*
D03*
X1189038Y888206D02*
G54D10*
D03*
X1189038Y922338D02*
G54D10*
D03*
X1214438Y888206D02*
G54D10*
D03*
X1214438Y922338D02*
G54D10*
D03*
X1239838Y888206D02*
G54D10*
D03*
X1239838Y922338D02*
G54D10*
D03*
X1265238Y888206D02*
G54D10*
D03*
X1265238Y922338D02*
G54D10*
D03*
X1290638Y888206D02*
G54D10*
D03*
X1290638Y922338D02*
G54D10*
D03*
X1316038Y888206D02*
G54D10*
D03*
X1316038Y922338D02*
G54D10*
D03*
X1341438Y888206D02*
G54D10*
D03*
X1341438Y922338D02*
G54D10*
D03*
X1366838Y888206D02*
G54D10*
D03*
X1366838Y922338D02*
G54D10*
D03*
X1392238Y888206D02*
G54D10*
D03*
X1392238Y922338D02*
G54D10*
D03*
X1417638Y888206D02*
G54D10*
D03*
X1417638Y922338D02*
G54D10*
D03*
X1443038Y888206D02*
G54D10*
D03*
X1443038Y922338D02*
G54D10*
D03*
X1468438Y888206D02*
G54D10*
D03*
X1468438Y922338D02*
G54D10*
D03*
X1493838Y888206D02*
G54D10*
D03*
X1493838Y922338D02*
G54D10*
D03*
X1519238Y888206D02*
G54D10*
D03*
X1519238Y922338D02*
G54D10*
D03*
X1544638Y888206D02*
G54D10*
D03*
X1544638Y922338D02*
G54D10*
D03*
X1570038Y888206D02*
G54D10*
D03*
X1570038Y922338D02*
G54D10*
D03*
X1697038Y922338D02*
G54D10*
D03*
X1697038Y888206D02*
G54D10*
D03*
X1722438Y922338D02*
G54D10*
D03*
X1722438Y888206D02*
G54D10*
D03*
X1747838Y922338D02*
G54D10*
D03*
X1747838Y888206D02*
G54D10*
D03*
X1773238Y922338D02*
G54D10*
D03*
X1773238Y888206D02*
G54D10*
D03*
X1798638Y922338D02*
G54D10*
D03*
X1798638Y888206D02*
G54D10*
D03*
X1824038Y888206D02*
G54D10*
D03*
X1824038Y922338D02*
G54D10*
D03*
X1849438Y888206D02*
G54D10*
D03*
X1849438Y922338D02*
G54D10*
D03*
X1874838Y888206D02*
G54D10*
D03*
X1874838Y922338D02*
G54D10*
D03*
X1900238Y888206D02*
G54D10*
D03*
X1900238Y922338D02*
G54D10*
D03*
X1925638Y888206D02*
G54D10*
D03*
X1925638Y922338D02*
G54D10*
D03*
X1951038Y888206D02*
G54D10*
D03*
X1951038Y922338D02*
G54D10*
D03*
X1976438Y888206D02*
G54D10*
D03*
X1976438Y922338D02*
G54D10*
D03*
X2001838Y888206D02*
G54D10*
D03*
X2001838Y922338D02*
G54D10*
D03*
X2027238Y888206D02*
G54D10*
D03*
X2027238Y922338D02*
G54D10*
D03*
X2052638Y888206D02*
G54D10*
D03*
X2052638Y922338D02*
G54D10*
D03*
X2078038Y888206D02*
G54D10*
D03*
X2078038Y922338D02*
G54D10*
D03*
X2103438Y888206D02*
G54D10*
D03*
X2103438Y922338D02*
G54D10*
D03*
X2128838Y888206D02*
G54D10*
D03*
X2128838Y922338D02*
G54D10*
D03*
X2154238Y888206D02*
G54D10*
D03*
X2154238Y922338D02*
G54D10*
D03*
X2179638Y888206D02*
G54D10*
D03*
X2179638Y922338D02*
G54D10*
D03*
X2281238Y888206D02*
G54D10*
D03*
X2281238Y922338D02*
G54D10*
D03*
X2230438Y888206D02*
G54D10*
D03*
X2230438Y922338D02*
G54D10*
D03*
X2255838Y888206D02*
G54D10*
D03*
X2255838Y922338D02*
G54D10*
D03*
X145653Y802084D02*
G54D18*
D03*
X111521Y802084D02*
G54D18*
D03*
X145653Y776684D02*
G54D18*
D03*
X111521Y776684D02*
G54D18*
D03*
X145653Y751284D02*
G54D18*
D03*
X111521Y751284D02*
G54D18*
D03*
X145653Y725884D02*
G54D18*
D03*
X111521Y725884D02*
G54D18*
D03*
X145653Y700484D02*
G54D18*
D03*
X111521Y700484D02*
G54D18*
D03*
X111521Y675084D02*
G54D18*
D03*
X145653Y675084D02*
G54D18*
D03*
X111521Y649684D02*
G54D18*
D03*
X145653Y649684D02*
G54D18*
D03*
X111521Y624284D02*
G54D18*
D03*
X145653Y624284D02*
G54D18*
D03*
X111521Y598884D02*
G54D18*
D03*
X145653Y598884D02*
G54D18*
D03*
X111521Y573484D02*
G54D18*
D03*
X145653Y573484D02*
G54D18*
D03*
X111521Y548084D02*
G54D18*
D03*
X145653Y548084D02*
G54D18*
D03*
X111521Y522684D02*
G54D18*
D03*
X145653Y522684D02*
G54D18*
D03*
X111521Y497284D02*
G54D18*
D03*
X145653Y497284D02*
G54D18*
D03*
X111521Y471884D02*
G54D18*
D03*
X145653Y471884D02*
G54D18*
D03*
X111521Y446484D02*
G54D18*
D03*
X145653Y446484D02*
G54D18*
D03*
X111521Y421084D02*
G54D18*
D03*
X145653Y421084D02*
G54D18*
D03*
X111521Y395684D02*
G54D18*
D03*
X145653Y395684D02*
G54D18*
D03*
X111521Y370284D02*
G54D18*
D03*
X145653Y370284D02*
G54D18*
D03*
X298053Y738584D02*
G54D18*
D03*
X263921Y738584D02*
G54D18*
D03*
X298053Y713184D02*
G54D18*
D03*
X263921Y713184D02*
G54D18*
D03*
X263921Y687784D02*
G54D18*
D03*
X298053Y687784D02*
G54D18*
D03*
X263921Y662384D02*
G54D18*
D03*
X298053Y662384D02*
G54D18*
D03*
X263921Y636984D02*
G54D18*
D03*
X298053Y636984D02*
G54D18*
D03*
X263921Y611584D02*
G54D18*
D03*
X298053Y611584D02*
G54D18*
D03*
X263921Y586184D02*
G54D18*
D03*
X298053Y586184D02*
G54D18*
D03*
X263921Y560784D02*
G54D18*
D03*
X298053Y560784D02*
G54D18*
D03*
X263921Y535384D02*
G54D18*
D03*
X298053Y535384D02*
G54D18*
D03*
X263921Y509984D02*
G54D18*
D03*
X298053Y509984D02*
G54D18*
D03*
X263921Y484584D02*
G54D18*
D03*
X298053Y484584D02*
G54D18*
D03*
X263921Y459184D02*
G54D18*
D03*
X298053Y459184D02*
G54D18*
D03*
X263921Y433784D02*
G54D18*
D03*
X298053Y433784D02*
G54D18*
D03*
X263921Y408384D02*
G54D18*
D03*
X298053Y408384D02*
G54D18*
D03*
X263921Y382984D02*
G54D18*
D03*
X298053Y382984D02*
G54D18*
D03*
X3043634Y829866D02*
G54D18*
D03*
X3077765Y829866D02*
G54D18*
D03*
X3043634Y804466D02*
G54D18*
D03*
X3077765Y804466D02*
G54D18*
D03*
X3043634Y779066D02*
G54D18*
D03*
X3077765Y779066D02*
G54D18*
D03*
X3043634Y753666D02*
G54D18*
D03*
X3077765Y753666D02*
G54D18*
D03*
X2255045Y168276D02*
G54D12*
D03*
X2220912Y168275D02*
G54D12*
D03*
X2221309Y138510D02*
G54D18*
D03*
X2255440Y138510D02*
G54D18*
D03*
X2221309Y113110D02*
G54D18*
D03*
X2255440Y113110D02*
G54D18*
D03*
X2221309Y87710D02*
G54D18*
D03*
X2255440Y87710D02*
G54D18*
D03*
X2221309Y62310D02*
G54D18*
D03*
X2255440Y62310D02*
G54D18*
D03*
X2057003Y594122D02*
G54D18*
D03*
X2091134Y594122D02*
G54D18*
D03*
X2057003Y568722D02*
G54D18*
D03*
X2091134Y568722D02*
G54D18*
D03*
X2057003Y543322D02*
G54D18*
D03*
X2091134Y543322D02*
G54D18*
D03*
X2057003Y517922D02*
G54D18*
D03*
X2091134Y517922D02*
G54D18*
D03*
X2057003Y492522D02*
G54D18*
D03*
X2091134Y492522D02*
G54D18*
D03*
X2057003Y467122D02*
G54D18*
D03*
X2091134Y467122D02*
G54D18*
D03*
X157956Y-854869D02*
G54D10*
D03*
X157956Y-820738D02*
G54D10*
D03*
X183356Y-854869D02*
G54D10*
D03*
X183356Y-820738D02*
G54D10*
D03*
X208756Y-854869D02*
G54D10*
D03*
X208756Y-820738D02*
G54D10*
D03*
X234156Y-854869D02*
G54D10*
D03*
X234156Y-820738D02*
G54D10*
D03*
X157956Y-919162D02*
G54D10*
D03*
X157956Y-885031D02*
G54D10*
D03*
X183356Y-919162D02*
G54D10*
D03*
X183356Y-885031D02*
G54D10*
D03*
X208756Y-919162D02*
G54D10*
D03*
X208756Y-885031D02*
G54D10*
D03*
X234156Y-919162D02*
G54D10*
D03*
X234156Y-885031D02*
G54D10*
D03*
X1092994Y-930275D02*
G54D10*
D03*
X1092994Y-896144D02*
G54D10*
D03*
X1118394Y-930275D02*
G54D10*
D03*
X1118394Y-896144D02*
G54D10*
D03*
X1143794Y-930275D02*
G54D10*
D03*
X1143794Y-896144D02*
G54D10*
D03*
X1169194Y-930275D02*
G54D10*
D03*
X1169194Y-896144D02*
G54D10*
D03*
X1194594Y-930275D02*
G54D10*
D03*
X1194594Y-896144D02*
G54D10*
D03*
X889000Y-930275D02*
G54D10*
D03*
X889000Y-896144D02*
G54D10*
D03*
X914400Y-930275D02*
G54D10*
D03*
X914400Y-896144D02*
G54D10*
D03*
X873919Y-696119D02*
G54D10*
D03*
X873919Y-661988D02*
G54D10*
D03*
X1208088Y-534988D02*
G54D10*
D03*
X1208088Y-500856D02*
G54D10*
D03*
X767159Y-99616D02*
G54D18*
D03*
X801290Y-99616D02*
G54D18*
D03*
X767159Y-125016D02*
G54D18*
D03*
X801290Y-125016D02*
G54D18*
D03*
X767159Y-150416D02*
G54D18*
D03*
X801290Y-150416D02*
G54D18*
D03*
X767159Y-175816D02*
G54D18*
D03*
X801290Y-175816D02*
G54D18*
D03*
X767159Y-201216D02*
G54D18*
D03*
X801290Y-201216D02*
G54D18*
D03*
X767159Y-226616D02*
G54D18*
D03*
X801290Y-226616D02*
G54D18*
D03*
X767159Y-252016D02*
G54D18*
D03*
X801290Y-252016D02*
G54D18*
D03*
X233759Y-170260D02*
G54D18*
D03*
X267890Y-170260D02*
G54D18*
D03*
X233759Y-195660D02*
G54D18*
D03*
X267890Y-195660D02*
G54D18*
D03*
X894159Y61516D02*
G54D18*
D03*
X928290Y61516D02*
G54D18*
D03*
X894159Y36116D02*
G54D18*
D03*
X928290Y36116D02*
G54D18*
D03*
X1021159Y62310D02*
G54D18*
D03*
X1055290Y62310D02*
G54D18*
D03*
X1021159Y36910D02*
G54D18*
D03*
X1055290Y36910D02*
G54D18*
D03*
X1425178Y15478D02*
G54D18*
D03*
X1459309Y15478D02*
G54D18*
D03*
X1531540Y158353D02*
G54D18*
D03*
X1565672Y158353D02*
G54D18*
D03*
X1531540Y132953D02*
G54D18*
D03*
X1565672Y132953D02*
G54D18*
D03*
X1531540Y107553D02*
G54D18*
D03*
X1565672Y107553D02*
G54D18*
D03*
G36*
X1670899Y113275D02*
X1681899Y113275D01*
X1681899Y96275D01*
X1670899Y96275D01*
X1670899Y113275D01*
G37*
G36*
X1670899Y79143D02*
X1681899Y79144D01*
X1681899Y62144D01*
X1670899Y62143D01*
X1670899Y79143D01*
G37*
G36*
X1645499Y113275D02*
X1656499Y113275D01*
X1656499Y96275D01*
X1645499Y96275D01*
X1645499Y113275D01*
G37*
X1650999Y70644D02*
G54D10*
D03*
X2719388Y-323850D02*
G54D10*
D03*
X2719388Y-289719D02*
G54D10*
D03*
X2744788Y-323850D02*
G54D10*
D03*
X2744788Y-289719D02*
G54D10*
D03*
X2693988Y-415131D02*
G54D10*
D03*
X2693988Y-381000D02*
G54D10*
D03*
X2719388Y-415131D02*
G54D10*
D03*
X2719388Y-381000D02*
G54D10*
D03*
X2744788Y-415131D02*
G54D10*
D03*
X2744788Y-381000D02*
G54D10*
D03*
X2531666Y-314722D02*
G54D11*
D03*
X2531666Y-348854D02*
G54D11*
D03*
X2501106Y-349250D02*
G54D10*
D03*
X2501106Y-315119D02*
G54D10*
D03*
X2561431Y-349250D02*
G54D10*
D03*
X2561431Y-315119D02*
G54D10*
D03*
X3158728Y-128984D02*
G54D18*
D03*
X3192858Y-128984D02*
G54D18*
D03*
X3157934Y23416D02*
G54D18*
D03*
X3192065Y23416D02*
G54D18*
D03*
X3049588Y52388D02*
G54D10*
D03*
X3049588Y86519D02*
G54D10*
D03*
X3049588Y-38894D02*
G54D10*
D03*
X3049588Y-4762D02*
G54D10*
D03*
X994172Y-446484D02*
G54D18*
D03*
X1028303Y-446484D02*
G54D18*
D03*
X1071165Y-447278D02*
G54D18*
D03*
X1105296Y-447278D02*
G54D18*
D03*
X1140222Y-447278D02*
G54D18*
D03*
X1174353Y-447278D02*
G54D18*
D03*
X867965Y-633810D02*
G54D18*
D03*
X902096Y-633810D02*
G54D18*
D03*
X932259Y-633016D02*
G54D18*
D03*
X966390Y-633016D02*
G54D18*
D03*
X933846Y-659210D02*
G54D18*
D03*
X967978Y-659210D02*
G54D18*
D03*
X1590278Y-728266D02*
G54D18*
D03*
X1624409Y-728266D02*
G54D18*
D03*
X1590278Y-753666D02*
G54D18*
D03*
X1624409Y-753666D02*
G54D18*
D03*
X1590278Y-779066D02*
G54D18*
D03*
X1624409Y-779066D02*
G54D18*
D03*
X1590278Y-804466D02*
G54D18*
D03*
X1624409Y-804466D02*
G54D18*
D03*
X458788Y-912019D02*
G54D10*
D03*
X458788Y-877888D02*
G54D10*
D03*
X95250Y-1231106D02*
G54D12*
D03*
X129382Y-1231106D02*
G54D12*
D03*
X96044Y-1266825D02*
G54D12*
D03*
X130176Y-1266824D02*
G54D12*
D03*
X1062832Y-929482D02*
G54D11*
D03*
X1062831Y-895350D02*
G54D11*
D03*
X1225550Y-930276D02*
G54D11*
D03*
X1225550Y-896144D02*
G54D11*
D03*
X559594Y-800101D02*
G54D11*
D03*
X559594Y-765969D02*
G54D11*
D03*
X1550656Y-893762D02*
G54D14*
D03*
X1550656Y-881062D02*
G54D14*
D03*
X1550656Y-868362D02*
G54D14*
D03*
X1550656Y-855662D02*
G54D14*
D03*
X1550656Y-842962D02*
G54D14*
D03*
X1550656Y-830262D02*
G54D14*
D03*
X1550656Y-817562D02*
G54D14*
D03*
X1550656Y-804862D02*
G54D14*
D03*
X1550656Y-792162D02*
G54D14*
D03*
X1550656Y-779462D02*
G54D14*
D03*
X1550656Y-766762D02*
G54D14*
D03*
X1550656Y-754062D02*
G54D14*
D03*
X1550656Y-741362D02*
G54D14*
D03*
X1550656Y-728662D02*
G54D14*
D03*
X1440656Y-728662D02*
G54D14*
D03*
X1440656Y-741362D02*
G54D14*
D03*
X1440656Y-754062D02*
G54D14*
D03*
X1440656Y-766762D02*
G54D14*
D03*
X1440656Y-779462D02*
G54D14*
D03*
X1440656Y-792162D02*
G54D14*
D03*
X1440656Y-804862D02*
G54D14*
D03*
X1440656Y-817562D02*
G54D14*
D03*
X1440656Y-830262D02*
G54D14*
D03*
X1440656Y-842962D02*
G54D14*
D03*
X1440656Y-855662D02*
G54D14*
D03*
X1440656Y-868362D02*
G54D14*
D03*
X1440656Y-881062D02*
G54D14*
D03*
X1440656Y-893762D02*
G54D14*
D03*
X1372062Y-893762D02*
G54D14*
D03*
X1372062Y-881062D02*
G54D14*
D03*
X1372062Y-868362D02*
G54D14*
D03*
X1372062Y-855662D02*
G54D14*
D03*
X1372062Y-842962D02*
G54D14*
D03*
X1372062Y-830262D02*
G54D14*
D03*
X1372062Y-817562D02*
G54D14*
D03*
X1372062Y-804862D02*
G54D14*
D03*
X1372062Y-792162D02*
G54D14*
D03*
X1372062Y-779462D02*
G54D14*
D03*
X1372062Y-766762D02*
G54D14*
D03*
X1372062Y-754062D02*
G54D14*
D03*
X1372062Y-741362D02*
G54D14*
D03*
X1372062Y-728662D02*
G54D14*
D03*
X1262062Y-728662D02*
G54D14*
D03*
X1262062Y-741362D02*
G54D14*
D03*
X1262062Y-754062D02*
G54D14*
D03*
X1262062Y-766762D02*
G54D14*
D03*
X1262062Y-779462D02*
G54D14*
D03*
X1262062Y-792162D02*
G54D14*
D03*
X1262062Y-804862D02*
G54D14*
D03*
X1262062Y-817562D02*
G54D14*
D03*
X1262062Y-830262D02*
G54D14*
D03*
X1262062Y-842962D02*
G54D14*
D03*
X1262062Y-855662D02*
G54D14*
D03*
X1262062Y-868362D02*
G54D14*
D03*
X1262062Y-881062D02*
G54D14*
D03*
X1262062Y-893762D02*
G54D14*
D03*
X1550656Y-665162D02*
G54D14*
D03*
X1550656Y-652462D02*
G54D14*
D03*
X1550656Y-639762D02*
G54D14*
D03*
X1550656Y-627062D02*
G54D14*
D03*
X1550656Y-614362D02*
G54D14*
D03*
X1550656Y-601662D02*
G54D14*
D03*
X1550656Y-588962D02*
G54D14*
D03*
X1550656Y-576262D02*
G54D14*
D03*
X1550656Y-563562D02*
G54D14*
D03*
X1550656Y-550862D02*
G54D14*
D03*
X1550656Y-538162D02*
G54D14*
D03*
X1550656Y-525462D02*
G54D14*
D03*
X1550656Y-512762D02*
G54D14*
D03*
X1550656Y-500062D02*
G54D14*
D03*
X1440656Y-500062D02*
G54D14*
D03*
X1440656Y-512762D02*
G54D14*
D03*
X1440656Y-525462D02*
G54D14*
D03*
X1440656Y-538162D02*
G54D14*
D03*
X1440656Y-550862D02*
G54D14*
D03*
X1440656Y-563562D02*
G54D14*
D03*
X1440656Y-576262D02*
G54D14*
D03*
X1440656Y-588962D02*
G54D14*
D03*
X1440656Y-601662D02*
G54D14*
D03*
X1440656Y-614362D02*
G54D14*
D03*
X1440656Y-627062D02*
G54D14*
D03*
X1440656Y-639762D02*
G54D14*
D03*
X1440656Y-652462D02*
G54D14*
D03*
X1440656Y-665162D02*
G54D14*
D03*
X1372062Y-665162D02*
G54D14*
D03*
X1372062Y-652462D02*
G54D14*
D03*
X1372062Y-639762D02*
G54D14*
D03*
X1372062Y-627062D02*
G54D14*
D03*
X1372062Y-614362D02*
G54D14*
D03*
X1372062Y-601662D02*
G54D14*
D03*
X1372062Y-588962D02*
G54D14*
D03*
X1372062Y-576262D02*
G54D14*
D03*
X1372062Y-563562D02*
G54D14*
D03*
X1372062Y-550862D02*
G54D14*
D03*
X1372062Y-538162D02*
G54D14*
D03*
X1372062Y-525462D02*
G54D14*
D03*
X1372062Y-512762D02*
G54D14*
D03*
X1372062Y-500062D02*
G54D14*
D03*
X1262062Y-500062D02*
G54D14*
D03*
X1262062Y-512762D02*
G54D14*
D03*
X1262062Y-525462D02*
G54D14*
D03*
X1262062Y-538162D02*
G54D14*
D03*
X1262062Y-550862D02*
G54D14*
D03*
X1262062Y-563562D02*
G54D14*
D03*
X1262062Y-576262D02*
G54D14*
D03*
X1262062Y-588962D02*
G54D14*
D03*
X1262062Y-601662D02*
G54D14*
D03*
X1262062Y-614362D02*
G54D14*
D03*
X1262062Y-627062D02*
G54D14*
D03*
X1262062Y-639762D02*
G54D14*
D03*
X1262062Y-652462D02*
G54D14*
D03*
X1262062Y-665162D02*
G54D14*
D03*
X826294Y440531D02*
G54D19*
D03*
X838994Y440531D02*
G54D19*
D03*
X851694Y440531D02*
G54D19*
D03*
X864394Y440531D02*
G54D19*
D03*
X877094Y440531D02*
G54D19*
D03*
X889794Y440531D02*
G54D19*
D03*
X902494Y440531D02*
G54D19*
D03*
X915194Y440531D02*
G54D19*
D03*
X826294Y378619D02*
G54D19*
D03*
X838994Y378619D02*
G54D19*
D03*
X851694Y378619D02*
G54D19*
D03*
X864394Y378619D02*
G54D19*
D03*
X877094Y378619D02*
G54D19*
D03*
X889794Y378619D02*
G54D19*
D03*
X902494Y378619D02*
G54D19*
D03*
X915194Y378619D02*
G54D19*
D03*
X1069975Y169069D02*
G54D20*
D03*
X1069975Y156369D02*
G54D20*
D03*
X1069975Y143669D02*
G54D20*
D03*
X1069975Y130969D02*
G54D20*
D03*
X1069975Y118269D02*
G54D20*
D03*
X1069975Y105569D02*
G54D20*
D03*
X1069975Y92869D02*
G54D20*
D03*
X1007269Y169069D02*
G54D20*
D03*
X1007269Y156369D02*
G54D20*
D03*
X1007269Y143669D02*
G54D20*
D03*
X1007269Y130969D02*
G54D20*
D03*
X1007269Y118269D02*
G54D20*
D03*
X1007269Y105569D02*
G54D20*
D03*
X1007269Y92869D02*
G54D20*
D03*
X942181Y168275D02*
G54D20*
D03*
X942181Y155575D02*
G54D20*
D03*
X942181Y142875D02*
G54D20*
D03*
X942181Y130175D02*
G54D20*
D03*
X942181Y117475D02*
G54D20*
D03*
X942181Y104775D02*
G54D20*
D03*
X942181Y92075D02*
G54D20*
D03*
X879475Y168275D02*
G54D20*
D03*
X879475Y155575D02*
G54D20*
D03*
X879475Y142875D02*
G54D20*
D03*
X879475Y130175D02*
G54D20*
D03*
X879475Y117475D02*
G54D20*
D03*
X879475Y104775D02*
G54D20*
D03*
X879475Y92075D02*
G54D20*
D03*
X1223169Y434975D02*
G54D20*
D03*
X1223169Y422275D02*
G54D20*
D03*
X1223169Y409575D02*
G54D20*
D03*
X1223169Y396875D02*
G54D20*
D03*
X1223169Y384175D02*
G54D20*
D03*
X1223169Y371475D02*
G54D20*
D03*
X1223169Y358775D02*
G54D20*
D03*
X1160462Y434975D02*
G54D20*
D03*
X1160462Y422275D02*
G54D20*
D03*
X1160462Y409575D02*
G54D20*
D03*
X1160462Y396875D02*
G54D20*
D03*
X1160462Y384175D02*
G54D20*
D03*
X1160462Y371475D02*
G54D20*
D03*
X1160462Y358775D02*
G54D20*
D03*
X1208881Y174625D02*
G54D20*
D03*
X1208881Y161925D02*
G54D20*
D03*
X1208881Y149225D02*
G54D20*
D03*
X1208881Y136525D02*
G54D20*
D03*
X1208881Y123825D02*
G54D20*
D03*
X1208881Y111125D02*
G54D20*
D03*
X1208881Y98425D02*
G54D20*
D03*
X1208881Y85725D02*
G54D20*
D03*
X1123156Y174625D02*
G54D20*
D03*
X1123156Y161925D02*
G54D20*
D03*
X1123156Y149225D02*
G54D20*
D03*
X1123156Y136525D02*
G54D20*
D03*
X1123156Y123825D02*
G54D20*
D03*
X1123156Y111125D02*
G54D20*
D03*
X1123156Y98425D02*
G54D20*
D03*
X1123156Y85725D02*
G54D20*
D03*
X1361281Y173831D02*
G54D20*
D03*
X1361281Y161131D02*
G54D20*
D03*
X1361281Y148431D02*
G54D20*
D03*
X1361281Y135731D02*
G54D20*
D03*
X1361281Y123031D02*
G54D20*
D03*
X1361281Y110331D02*
G54D20*
D03*
X1361281Y97631D02*
G54D20*
D03*
X1361281Y84931D02*
G54D20*
D03*
X1275556Y173831D02*
G54D20*
D03*
X1275556Y161131D02*
G54D20*
D03*
X1275556Y148431D02*
G54D20*
D03*
X1275556Y135731D02*
G54D20*
D03*
X1275556Y123031D02*
G54D20*
D03*
X1275556Y110331D02*
G54D20*
D03*
X1275556Y97631D02*
G54D20*
D03*
X1275556Y84931D02*
G54D20*
D03*
X1730375Y-721518D02*
G54D20*
D03*
X1730375Y-734218D02*
G54D20*
D03*
X1730375Y-746918D02*
G54D20*
D03*
X1730375Y-759618D02*
G54D20*
D03*
X1730375Y-772318D02*
G54D20*
D03*
X1730375Y-785018D02*
G54D20*
D03*
X1730375Y-797718D02*
G54D20*
D03*
X1667669Y-721518D02*
G54D20*
D03*
X1667669Y-734218D02*
G54D20*
D03*
X1667669Y-746918D02*
G54D20*
D03*
X1667669Y-759618D02*
G54D20*
D03*
X1667669Y-772318D02*
G54D20*
D03*
X1667669Y-785018D02*
G54D20*
D03*
X1667669Y-797718D02*
G54D20*
D03*
X1730375Y-835818D02*
G54D20*
D03*
X1730375Y-848518D02*
G54D20*
D03*
X1730375Y-861218D02*
G54D20*
D03*
X1730375Y-873918D02*
G54D20*
D03*
X1730375Y-886618D02*
G54D20*
D03*
X1730375Y-899318D02*
G54D20*
D03*
X1730375Y-912018D02*
G54D20*
D03*
X1667669Y-835818D02*
G54D20*
D03*
X1667669Y-848518D02*
G54D20*
D03*
X1667669Y-861218D02*
G54D20*
D03*
X1667669Y-873918D02*
G54D20*
D03*
X1667669Y-886618D02*
G54D20*
D03*
X1667669Y-899318D02*
G54D20*
D03*
X1667669Y-912018D02*
G54D20*
D03*
X2160588Y137319D02*
G54D20*
D03*
X2160588Y124619D02*
G54D20*
D03*
X2160588Y111919D02*
G54D20*
D03*
X2160588Y99219D02*
G54D20*
D03*
X2160588Y86519D02*
G54D20*
D03*
X2160588Y73819D02*
G54D20*
D03*
X2160588Y61119D02*
G54D20*
D03*
X2097882Y137319D02*
G54D20*
D03*
X2097882Y124619D02*
G54D20*
D03*
X2097882Y111919D02*
G54D20*
D03*
X2097882Y99219D02*
G54D20*
D03*
X2097882Y86519D02*
G54D20*
D03*
X2097882Y73819D02*
G54D20*
D03*
X2097882Y61119D02*
G54D20*
D03*
X1985169Y474662D02*
G54D20*
D03*
X1985169Y461962D02*
G54D20*
D03*
X1985169Y449262D02*
G54D20*
D03*
X1985169Y436562D02*
G54D20*
D03*
X1985169Y423862D02*
G54D20*
D03*
X1985169Y411162D02*
G54D20*
D03*
X1985169Y398462D02*
G54D20*
D03*
X1922463Y474662D02*
G54D20*
D03*
X1922463Y461962D02*
G54D20*
D03*
X1922463Y449262D02*
G54D20*
D03*
X1922463Y436562D02*
G54D20*
D03*
X1922463Y423862D02*
G54D20*
D03*
X1922463Y411162D02*
G54D20*
D03*
X1922463Y398462D02*
G54D20*
D03*
X1985963Y601662D02*
G54D20*
D03*
X1985963Y588962D02*
G54D20*
D03*
X1985963Y576262D02*
G54D20*
D03*
X1985963Y563562D02*
G54D20*
D03*
X1985963Y550862D02*
G54D20*
D03*
X1985963Y538162D02*
G54D20*
D03*
X1985963Y525462D02*
G54D20*
D03*
X1923256Y601662D02*
G54D20*
D03*
X1923256Y588962D02*
G54D20*
D03*
X1923256Y576262D02*
G54D20*
D03*
X1923256Y563562D02*
G54D20*
D03*
X1923256Y550862D02*
G54D20*
D03*
X1923256Y538162D02*
G54D20*
D03*
X1923256Y525462D02*
G54D20*
D03*
X1229519Y652462D02*
G54D20*
D03*
X1229519Y639762D02*
G54D20*
D03*
X1229519Y627062D02*
G54D20*
D03*
X1229519Y614362D02*
G54D20*
D03*
X1229519Y601662D02*
G54D20*
D03*
X1229519Y588962D02*
G54D20*
D03*
X1229519Y576262D02*
G54D20*
D03*
X1229519Y563562D02*
G54D20*
D03*
X1143794Y652462D02*
G54D20*
D03*
X1143794Y639762D02*
G54D20*
D03*
X1143794Y627062D02*
G54D20*
D03*
X1143794Y614362D02*
G54D20*
D03*
X1143794Y601662D02*
G54D20*
D03*
X1143794Y588962D02*
G54D20*
D03*
X1143794Y576262D02*
G54D20*
D03*
X1143794Y563562D02*
G54D20*
D03*
X1229519Y550862D02*
G54D20*
D03*
X1229519Y538162D02*
G54D20*
D03*
X1143794Y550862D02*
G54D20*
D03*
X1143794Y538162D02*
G54D20*
D03*
X140494Y-374650D02*
G54D20*
D03*
X140494Y-387350D02*
G54D20*
D03*
X140494Y-400050D02*
G54D20*
D03*
X140494Y-412750D02*
G54D20*
D03*
X140494Y-425450D02*
G54D20*
D03*
X140494Y-438150D02*
G54D20*
D03*
X140494Y-450850D02*
G54D20*
D03*
X140494Y-463550D02*
G54D20*
D03*
X54769Y-374650D02*
G54D20*
D03*
X54769Y-387350D02*
G54D20*
D03*
X54769Y-400050D02*
G54D20*
D03*
X54769Y-412750D02*
G54D20*
D03*
X54769Y-425450D02*
G54D20*
D03*
X54769Y-438150D02*
G54D20*
D03*
X54769Y-450850D02*
G54D20*
D03*
X54769Y-463550D02*
G54D20*
D03*
X140494Y-476250D02*
G54D20*
D03*
X140494Y-488950D02*
G54D20*
D03*
X54769Y-476250D02*
G54D20*
D03*
X54769Y-488950D02*
G54D20*
D03*
X3205956Y-7938D02*
G54D20*
D03*
X3205956Y-20638D02*
G54D20*
D03*
X3205956Y-33338D02*
G54D20*
D03*
X3205956Y-46038D02*
G54D20*
D03*
X3205956Y-58738D02*
G54D20*
D03*
X3205956Y-71438D02*
G54D20*
D03*
X3205956Y-84138D02*
G54D20*
D03*
X3205956Y-96838D02*
G54D20*
D03*
X3144044Y-7938D02*
G54D20*
D03*
X3144044Y-20638D02*
G54D20*
D03*
X3144044Y-33338D02*
G54D20*
D03*
X3144044Y-46038D02*
G54D20*
D03*
X3144044Y-58738D02*
G54D20*
D03*
X3144044Y-71438D02*
G54D20*
D03*
X3144044Y-84138D02*
G54D20*
D03*
X3144044Y-96838D02*
G54D20*
D03*
X3030538Y-335756D02*
G54D16*
D03*
X3030538Y-282575D02*
G54D16*
D03*
X281781Y-366712D02*
G54D20*
D03*
X281781Y-379412D02*
G54D20*
D03*
X281781Y-392112D02*
G54D20*
D03*
X281781Y-404812D02*
G54D20*
D03*
X281781Y-417512D02*
G54D20*
D03*
X281781Y-430212D02*
G54D20*
D03*
X281781Y-442912D02*
G54D20*
D03*
X219075Y-366712D02*
G54D20*
D03*
X219075Y-379412D02*
G54D20*
D03*
X219075Y-392112D02*
G54D20*
D03*
X219075Y-404812D02*
G54D20*
D03*
X219075Y-417512D02*
G54D20*
D03*
X219075Y-430212D02*
G54D20*
D03*
X219075Y-442912D02*
G54D20*
D03*
X281781Y-264319D02*
G54D20*
D03*
X281781Y-277019D02*
G54D20*
D03*
X281781Y-289719D02*
G54D20*
D03*
X281781Y-302419D02*
G54D20*
D03*
X281781Y-315119D02*
G54D20*
D03*
X281781Y-327819D02*
G54D20*
D03*
X281781Y-340519D02*
G54D20*
D03*
X219075Y-264319D02*
G54D20*
D03*
X219075Y-277019D02*
G54D20*
D03*
X219075Y-289719D02*
G54D20*
D03*
X219075Y-302419D02*
G54D20*
D03*
X219075Y-315119D02*
G54D20*
D03*
X219075Y-327819D02*
G54D20*
D03*
X219075Y-340519D02*
G54D20*
D03*
X459581Y467519D02*
G54D20*
D03*
X459581Y454819D02*
G54D20*
D03*
X459581Y442119D02*
G54D20*
D03*
X459581Y429419D02*
G54D20*
D03*
X459581Y416719D02*
G54D20*
D03*
X459581Y404019D02*
G54D20*
D03*
X459581Y391319D02*
G54D20*
D03*
X396875Y467519D02*
G54D20*
D03*
X396875Y454819D02*
G54D20*
D03*
X396875Y442119D02*
G54D20*
D03*
X396875Y429419D02*
G54D20*
D03*
X396875Y416719D02*
G54D20*
D03*
X396875Y404019D02*
G54D20*
D03*
X396875Y391319D02*
G54D20*
D03*
X460375Y605631D02*
G54D20*
D03*
X460375Y592931D02*
G54D20*
D03*
X460375Y580231D02*
G54D20*
D03*
X460375Y567531D02*
G54D20*
D03*
X460375Y554831D02*
G54D20*
D03*
X460375Y542131D02*
G54D20*
D03*
X460375Y529431D02*
G54D20*
D03*
X397669Y605631D02*
G54D20*
D03*
X397669Y592931D02*
G54D20*
D03*
X397669Y580231D02*
G54D20*
D03*
X397669Y567531D02*
G54D20*
D03*
X397669Y554831D02*
G54D20*
D03*
X397669Y542131D02*
G54D20*
D03*
X397669Y529431D02*
G54D20*
D03*
X412353Y633016D02*
G54D18*
D03*
X446484Y633015D02*
G54D18*
D03*
X460375Y748506D02*
G54D20*
D03*
X460375Y735806D02*
G54D20*
D03*
X460375Y723106D02*
G54D20*
D03*
X460375Y710406D02*
G54D20*
D03*
X460375Y697706D02*
G54D20*
D03*
X460375Y685006D02*
G54D20*
D03*
X460375Y672306D02*
G54D20*
D03*
X460375Y659606D02*
G54D20*
D03*
X398462Y748506D02*
G54D20*
D03*
X398462Y735806D02*
G54D20*
D03*
X398462Y723106D02*
G54D20*
D03*
X398462Y710406D02*
G54D20*
D03*
X398462Y697706D02*
G54D20*
D03*
X398462Y685006D02*
G54D20*
D03*
X398462Y672306D02*
G54D20*
D03*
X398462Y659606D02*
G54D20*
D03*
X3092450Y949325D02*
G54D20*
D03*
X3092450Y936625D02*
G54D20*
D03*
X3092450Y923925D02*
G54D20*
D03*
X3092450Y911225D02*
G54D20*
D03*
X3092450Y898525D02*
G54D20*
D03*
X3092450Y885825D02*
G54D20*
D03*
X3092450Y873125D02*
G54D20*
D03*
X3092450Y860425D02*
G54D20*
D03*
X3030538Y949325D02*
G54D20*
D03*
X3030538Y936625D02*
G54D20*
D03*
X3030538Y923925D02*
G54D20*
D03*
X3030538Y911225D02*
G54D20*
D03*
X3030538Y898525D02*
G54D20*
D03*
X3030538Y885825D02*
G54D20*
D03*
X3030538Y873125D02*
G54D20*
D03*
X3030538Y860425D02*
G54D20*
D03*
X2663031Y933450D02*
G54D20*
D03*
X2663031Y920750D02*
G54D20*
D03*
X2663031Y908050D02*
G54D20*
D03*
X2663031Y895350D02*
G54D20*
D03*
X2663031Y882650D02*
G54D20*
D03*
X2663031Y869950D02*
G54D20*
D03*
X2663031Y857250D02*
G54D20*
D03*
X2600325Y933450D02*
G54D20*
D03*
X2600325Y920750D02*
G54D20*
D03*
X2600325Y908050D02*
G54D20*
D03*
X2600325Y895350D02*
G54D20*
D03*
X2600325Y882650D02*
G54D20*
D03*
X2600325Y869950D02*
G54D20*
D03*
X2600325Y857250D02*
G54D20*
D03*
X386556Y267494D02*
G54D18*
D03*
X420688Y267494D02*
G54D18*
D03*
X490538Y-37306D02*
G54D12*
D03*
X524670Y-37306D02*
G54D12*
D03*
X1644650Y-458397D02*
G54D21*
D03*
X1644650Y-464747D02*
G54D21*
D03*
X1644650Y-471097D02*
G54D21*
D03*
X1644650Y-477447D02*
G54D21*
D03*
X1644650Y-483797D02*
G54D21*
D03*
X1644650Y-490147D02*
G54D21*
D03*
X1644650Y-496497D02*
G54D21*
D03*
X1644650Y-502847D02*
G54D21*
D03*
X1644650Y-509197D02*
G54D21*
D03*
X1644650Y-515547D02*
G54D21*
D03*
X1644650Y-521897D02*
G54D21*
D03*
X1644650Y-528247D02*
G54D21*
D03*
X1644650Y-534597D02*
G54D21*
D03*
X1644650Y-540947D02*
G54D21*
D03*
X1644650Y-547297D02*
G54D21*
D03*
X1644650Y-553647D02*
G54D21*
D03*
X1644650Y-559997D02*
G54D21*
D03*
X1644650Y-566347D02*
G54D21*
D03*
X1644650Y-572697D02*
G54D21*
D03*
X1644650Y-579047D02*
G54D21*
D03*
X1644650Y-585397D02*
G54D21*
D03*
X1644650Y-591747D02*
G54D21*
D03*
X1644650Y-598097D02*
G54D21*
D03*
X1644650Y-604447D02*
G54D21*
D03*
X1731566Y-458397D02*
G54D21*
D03*
X1731566Y-464747D02*
G54D21*
D03*
X1731566Y-471097D02*
G54D21*
D03*
X1731566Y-477447D02*
G54D21*
D03*
X1731566Y-483797D02*
G54D21*
D03*
X1731566Y-490147D02*
G54D21*
D03*
X1731566Y-496497D02*
G54D21*
D03*
X1731566Y-502847D02*
G54D21*
D03*
X1731566Y-509197D02*
G54D21*
D03*
X1731566Y-515547D02*
G54D21*
D03*
X1731566Y-521897D02*
G54D21*
D03*
X1731566Y-528247D02*
G54D21*
D03*
X1731566Y-534597D02*
G54D21*
D03*
X1731566Y-540947D02*
G54D21*
D03*
X1731566Y-547297D02*
G54D21*
D03*
X1731566Y-553647D02*
G54D21*
D03*
X1731566Y-559997D02*
G54D21*
D03*
X1731566Y-566347D02*
G54D21*
D03*
X1731566Y-572697D02*
G54D21*
D03*
X1731566Y-579047D02*
G54D21*
D03*
X1731566Y-585397D02*
G54D21*
D03*
X1731566Y-591747D02*
G54D21*
D03*
X1731566Y-598097D02*
G54D21*
D03*
X1731566Y-604447D02*
G54D21*
D03*
X1054497Y-488950D02*
G54D21*
D03*
X1054497Y-495300D02*
G54D21*
D03*
X1054497Y-501650D02*
G54D21*
D03*
X1054497Y-508000D02*
G54D21*
D03*
X1054497Y-514350D02*
G54D21*
D03*
X1054497Y-520700D02*
G54D21*
D03*
X1054497Y-527050D02*
G54D21*
D03*
X1054497Y-533400D02*
G54D21*
D03*
X1054497Y-539750D02*
G54D21*
D03*
X1054497Y-546100D02*
G54D21*
D03*
X1054497Y-552450D02*
G54D21*
D03*
X1054497Y-558800D02*
G54D21*
D03*
X1054497Y-565150D02*
G54D21*
D03*
X1054497Y-571500D02*
G54D21*
D03*
X1054497Y-577850D02*
G54D21*
D03*
X1054497Y-584200D02*
G54D21*
D03*
X1054497Y-590550D02*
G54D21*
D03*
X1054497Y-596900D02*
G54D21*
D03*
X1054497Y-603250D02*
G54D21*
D03*
X1054497Y-609600D02*
G54D21*
D03*
X1054497Y-615950D02*
G54D21*
D03*
X1054497Y-622300D02*
G54D21*
D03*
X1054497Y-628650D02*
G54D21*
D03*
X1054497Y-635000D02*
G54D21*
D03*
X1141412Y-488950D02*
G54D21*
D03*
X1141412Y-495300D02*
G54D21*
D03*
X1141412Y-501650D02*
G54D21*
D03*
X1141412Y-508000D02*
G54D21*
D03*
X1141413Y-514350D02*
G54D21*
D03*
X1141413Y-520700D02*
G54D21*
D03*
X1141413Y-527050D02*
G54D21*
D03*
X1141413Y-533400D02*
G54D21*
D03*
X1141412Y-539750D02*
G54D21*
D03*
X1141412Y-546100D02*
G54D21*
D03*
X1141412Y-552450D02*
G54D21*
D03*
X1141412Y-558800D02*
G54D21*
D03*
X1141413Y-565150D02*
G54D21*
D03*
X1141413Y-571500D02*
G54D21*
D03*
X1141413Y-577850D02*
G54D21*
D03*
X1141413Y-584200D02*
G54D21*
D03*
X1141412Y-590550D02*
G54D21*
D03*
X1141412Y-596900D02*
G54D21*
D03*
X1141412Y-603250D02*
G54D21*
D03*
X1141412Y-609600D02*
G54D21*
D03*
X1141413Y-615950D02*
G54D21*
D03*
X1141413Y-622300D02*
G54D21*
D03*
X1141413Y-628650D02*
G54D21*
D03*
X1141413Y-635000D02*
G54D21*
D03*
X1054497Y-687388D02*
G54D21*
D03*
X1054497Y-693738D02*
G54D21*
D03*
X1054497Y-700088D02*
G54D21*
D03*
X1054497Y-706438D02*
G54D21*
D03*
X1054497Y-712788D02*
G54D21*
D03*
X1054497Y-719138D02*
G54D21*
D03*
X1054497Y-725488D02*
G54D21*
D03*
X1054497Y-731838D02*
G54D21*
D03*
X1054497Y-738188D02*
G54D21*
D03*
X1054497Y-744538D02*
G54D21*
D03*
X1054497Y-750888D02*
G54D21*
D03*
X1054497Y-757238D02*
G54D21*
D03*
X1054497Y-763588D02*
G54D21*
D03*
X1054497Y-769938D02*
G54D21*
D03*
X1054497Y-776288D02*
G54D21*
D03*
X1054497Y-782638D02*
G54D21*
D03*
X1054497Y-788988D02*
G54D21*
D03*
X1054497Y-795338D02*
G54D21*
D03*
X1054497Y-801688D02*
G54D21*
D03*
X1054497Y-808038D02*
G54D21*
D03*
X1054497Y-814388D02*
G54D21*
D03*
X1054497Y-820738D02*
G54D21*
D03*
X1054497Y-827088D02*
G54D21*
D03*
X1054497Y-833438D02*
G54D21*
D03*
X1141412Y-687388D02*
G54D21*
D03*
X1141412Y-693738D02*
G54D21*
D03*
X1141412Y-700088D02*
G54D21*
D03*
X1141412Y-706438D02*
G54D21*
D03*
X1141413Y-712788D02*
G54D21*
D03*
X1141413Y-719138D02*
G54D21*
D03*
X1141413Y-725488D02*
G54D21*
D03*
X1141413Y-731838D02*
G54D21*
D03*
X1141412Y-738188D02*
G54D21*
D03*
X1141412Y-744538D02*
G54D21*
D03*
X1141412Y-750888D02*
G54D21*
D03*
X1141412Y-757238D02*
G54D21*
D03*
X1141413Y-763588D02*
G54D21*
D03*
X1141413Y-769938D02*
G54D21*
D03*
X1141413Y-776288D02*
G54D21*
D03*
X1141413Y-782638D02*
G54D21*
D03*
X1141412Y-788988D02*
G54D21*
D03*
X1141412Y-795338D02*
G54D21*
D03*
X1141412Y-801688D02*
G54D21*
D03*
X1141412Y-808038D02*
G54D21*
D03*
X1141413Y-814388D02*
G54D21*
D03*
X1141413Y-820738D02*
G54D21*
D03*
X1141413Y-827088D02*
G54D21*
D03*
X1141413Y-833438D02*
G54D21*
D03*
X2845594Y-228600D02*
G54D21*
D03*
X2845594Y-234950D02*
G54D21*
D03*
X2845594Y-241300D02*
G54D21*
D03*
X2845594Y-247650D02*
G54D21*
D03*
X2845594Y-254000D02*
G54D21*
D03*
X2845594Y-260350D02*
G54D21*
D03*
X2845594Y-266700D02*
G54D21*
D03*
X2845594Y-273050D02*
G54D21*
D03*
X2845594Y-279400D02*
G54D21*
D03*
X2845594Y-285750D02*
G54D21*
D03*
X2845594Y-292100D02*
G54D21*
D03*
X2845594Y-298450D02*
G54D21*
D03*
X2845594Y-304800D02*
G54D21*
D03*
X2845594Y-311150D02*
G54D21*
D03*
X2845594Y-317500D02*
G54D21*
D03*
X2845594Y-323850D02*
G54D21*
D03*
X2845594Y-330200D02*
G54D21*
D03*
X2845594Y-336550D02*
G54D21*
D03*
X2845594Y-342900D02*
G54D21*
D03*
X2845594Y-349250D02*
G54D21*
D03*
X2845594Y-355600D02*
G54D21*
D03*
X2845594Y-361950D02*
G54D21*
D03*
X2845594Y-368300D02*
G54D21*
D03*
X2845594Y-374650D02*
G54D21*
D03*
X2932509Y-228600D02*
G54D21*
D03*
X2932509Y-234950D02*
G54D21*
D03*
X2932509Y-241300D02*
G54D21*
D03*
X2932509Y-247650D02*
G54D21*
D03*
X2932510Y-254000D02*
G54D21*
D03*
X2932510Y-260350D02*
G54D21*
D03*
X2932510Y-266700D02*
G54D21*
D03*
X2932510Y-273050D02*
G54D21*
D03*
X2932509Y-279400D02*
G54D21*
D03*
X2932509Y-285750D02*
G54D21*
D03*
X2932509Y-292100D02*
G54D21*
D03*
X2932509Y-298450D02*
G54D21*
D03*
X2932510Y-304800D02*
G54D21*
D03*
X2932510Y-311150D02*
G54D21*
D03*
X2932510Y-317500D02*
G54D21*
D03*
X2932510Y-323850D02*
G54D21*
D03*
X2932509Y-330200D02*
G54D21*
D03*
X2932509Y-336550D02*
G54D21*
D03*
X2932509Y-342900D02*
G54D21*
D03*
X2932509Y-349250D02*
G54D21*
D03*
X2932510Y-355600D02*
G54D21*
D03*
X2932510Y-361950D02*
G54D21*
D03*
X2932510Y-368300D02*
G54D21*
D03*
X2932510Y-374650D02*
G54D21*
D03*
X3133328Y262334D02*
G54D21*
D03*
X3133328Y255984D02*
G54D21*
D03*
X3133328Y249634D02*
G54D21*
D03*
X3133328Y243284D02*
G54D21*
D03*
X3133328Y236934D02*
G54D21*
D03*
X3133328Y230584D02*
G54D21*
D03*
X3133328Y224234D02*
G54D21*
D03*
X3133328Y217884D02*
G54D21*
D03*
X3133328Y211534D02*
G54D21*
D03*
X3133328Y205184D02*
G54D21*
D03*
X3133328Y198834D02*
G54D21*
D03*
X3133328Y192484D02*
G54D21*
D03*
X3133328Y186134D02*
G54D21*
D03*
X3133328Y179784D02*
G54D21*
D03*
X3133328Y173434D02*
G54D21*
D03*
X3133328Y167084D02*
G54D21*
D03*
X3133328Y160734D02*
G54D21*
D03*
X3133328Y154384D02*
G54D21*
D03*
X3133328Y148034D02*
G54D21*
D03*
X3133328Y141684D02*
G54D21*
D03*
X3133328Y135334D02*
G54D21*
D03*
X3133328Y128984D02*
G54D21*
D03*
X3133328Y122634D02*
G54D21*
D03*
X3133328Y116284D02*
G54D21*
D03*
X3220244Y262334D02*
G54D21*
D03*
X3220244Y255984D02*
G54D21*
D03*
X3220244Y249634D02*
G54D21*
D03*
X3220244Y243284D02*
G54D21*
D03*
X3220244Y236934D02*
G54D21*
D03*
X3220244Y230584D02*
G54D21*
D03*
X3220244Y224234D02*
G54D21*
D03*
X3220244Y217884D02*
G54D21*
D03*
X3220244Y211534D02*
G54D21*
D03*
X3220244Y205184D02*
G54D21*
D03*
X3220244Y198834D02*
G54D21*
D03*
X3220244Y192484D02*
G54D21*
D03*
X3220244Y186134D02*
G54D21*
D03*
X3220244Y179784D02*
G54D21*
D03*
X3220244Y173434D02*
G54D21*
D03*
X3220244Y167084D02*
G54D21*
D03*
X3220244Y160734D02*
G54D21*
D03*
X3220244Y154384D02*
G54D21*
D03*
X3220244Y148034D02*
G54D21*
D03*
X3220244Y141684D02*
G54D21*
D03*
X3220244Y135334D02*
G54D21*
D03*
X3220244Y128984D02*
G54D21*
D03*
X3220244Y122634D02*
G54D21*
D03*
X3220244Y116284D02*
G54D21*
D03*
X3133328Y-228997D02*
G54D21*
D03*
X3133328Y-235347D02*
G54D21*
D03*
X3133328Y-241697D02*
G54D21*
D03*
X3133328Y-248047D02*
G54D21*
D03*
X3133328Y-254397D02*
G54D21*
D03*
X3133328Y-260747D02*
G54D21*
D03*
X3133328Y-267097D02*
G54D21*
D03*
X3133328Y-273447D02*
G54D21*
D03*
X3133328Y-279797D02*
G54D21*
D03*
X3133328Y-286147D02*
G54D21*
D03*
X3133328Y-292497D02*
G54D21*
D03*
X3133328Y-298847D02*
G54D21*
D03*
X3133328Y-305197D02*
G54D21*
D03*
X3133328Y-311547D02*
G54D21*
D03*
X3133328Y-317897D02*
G54D21*
D03*
X3133328Y-324247D02*
G54D21*
D03*
X3133328Y-330597D02*
G54D21*
D03*
X3133328Y-336947D02*
G54D21*
D03*
X3133328Y-343297D02*
G54D21*
D03*
X3133328Y-349647D02*
G54D21*
D03*
X3133328Y-355997D02*
G54D21*
D03*
X3133328Y-362347D02*
G54D21*
D03*
X3133328Y-368697D02*
G54D21*
D03*
X3133328Y-375047D02*
G54D21*
D03*
X3220244Y-228997D02*
G54D21*
D03*
X3220244Y-235347D02*
G54D21*
D03*
X3220244Y-241697D02*
G54D21*
D03*
X3220244Y-248047D02*
G54D21*
D03*
X3220244Y-254397D02*
G54D21*
D03*
X3220244Y-260747D02*
G54D21*
D03*
X3220244Y-267097D02*
G54D21*
D03*
X3220244Y-273447D02*
G54D21*
D03*
X3220244Y-279797D02*
G54D21*
D03*
X3220244Y-286147D02*
G54D21*
D03*
X3220244Y-292497D02*
G54D21*
D03*
X3220244Y-298847D02*
G54D21*
D03*
X3220244Y-305197D02*
G54D21*
D03*
X3220244Y-311547D02*
G54D21*
D03*
X3220244Y-317897D02*
G54D21*
D03*
X3220244Y-324247D02*
G54D21*
D03*
X3220244Y-330597D02*
G54D21*
D03*
X3220244Y-336947D02*
G54D21*
D03*
X3220244Y-343297D02*
G54D21*
D03*
X3220244Y-349647D02*
G54D21*
D03*
X3220244Y-355997D02*
G54D21*
D03*
X3220244Y-362347D02*
G54D21*
D03*
X3220244Y-368697D02*
G54D21*
D03*
X3220244Y-375047D02*
G54D21*
D03*
X1830784Y-463160D02*
G54D21*
D03*
X1830784Y-469510D02*
G54D21*
D03*
X1830784Y-475860D02*
G54D21*
D03*
X1830784Y-482210D02*
G54D21*
D03*
X1830784Y-488560D02*
G54D21*
D03*
X1830784Y-494910D02*
G54D21*
D03*
X1830784Y-501260D02*
G54D21*
D03*
X1830784Y-507610D02*
G54D21*
D03*
X1830784Y-513960D02*
G54D21*
D03*
X1830784Y-520310D02*
G54D21*
D03*
X1830784Y-526660D02*
G54D21*
D03*
X1830784Y-533010D02*
G54D21*
D03*
X1830784Y-539360D02*
G54D21*
D03*
X1830784Y-545710D02*
G54D21*
D03*
X1830784Y-552060D02*
G54D21*
D03*
X1830784Y-558410D02*
G54D21*
D03*
X1830784Y-564760D02*
G54D21*
D03*
X1830784Y-571110D02*
G54D21*
D03*
X1830784Y-577460D02*
G54D21*
D03*
X1830784Y-583810D02*
G54D21*
D03*
X1830784Y-590160D02*
G54D21*
D03*
X1830784Y-596510D02*
G54D21*
D03*
X1830784Y-602860D02*
G54D21*
D03*
X1830784Y-609210D02*
G54D21*
D03*
X1830784Y-615560D02*
G54D21*
D03*
X1830784Y-621910D02*
G54D21*
D03*
X1830784Y-628260D02*
G54D21*
D03*
X1830784Y-634610D02*
G54D21*
D03*
X1918097Y-463160D02*
G54D21*
D03*
X1918097Y-469510D02*
G54D21*
D03*
X1918097Y-475860D02*
G54D21*
D03*
X1918097Y-482210D02*
G54D21*
D03*
X1918097Y-488560D02*
G54D21*
D03*
X1918097Y-494910D02*
G54D21*
D03*
X1918097Y-501260D02*
G54D21*
D03*
X1918097Y-507610D02*
G54D21*
D03*
X1918097Y-513960D02*
G54D21*
D03*
X1918097Y-520310D02*
G54D21*
D03*
X1918097Y-526660D02*
G54D21*
D03*
X1918097Y-533010D02*
G54D21*
D03*
X1918097Y-539360D02*
G54D21*
D03*
X1918097Y-545710D02*
G54D21*
D03*
X1918097Y-552060D02*
G54D21*
D03*
X1918097Y-558410D02*
G54D21*
D03*
X1918097Y-564760D02*
G54D21*
D03*
X1918097Y-571110D02*
G54D21*
D03*
X1918097Y-577460D02*
G54D21*
D03*
X1918097Y-583810D02*
G54D21*
D03*
X1918097Y-590160D02*
G54D21*
D03*
X1918097Y-596510D02*
G54D21*
D03*
X1918097Y-602860D02*
G54D21*
D03*
X1918097Y-609210D02*
G54D21*
D03*
X1918097Y-615560D02*
G54D21*
D03*
X1918097Y-621910D02*
G54D21*
D03*
X1918097Y-628260D02*
G54D21*
D03*
X1918097Y-634610D02*
G54D21*
D03*
X1830784Y-720334D02*
G54D21*
D03*
X1830784Y-726684D02*
G54D21*
D03*
X1830784Y-733034D02*
G54D21*
D03*
X1830784Y-739384D02*
G54D21*
D03*
X1830784Y-745734D02*
G54D21*
D03*
X1830784Y-752084D02*
G54D21*
D03*
X1830784Y-758434D02*
G54D21*
D03*
X1830784Y-764784D02*
G54D21*
D03*
X1830784Y-771134D02*
G54D21*
D03*
X1830784Y-777484D02*
G54D21*
D03*
X1830784Y-783834D02*
G54D21*
D03*
X1830784Y-790184D02*
G54D21*
D03*
X1830784Y-796534D02*
G54D21*
D03*
X1830784Y-802884D02*
G54D21*
D03*
X1830784Y-809234D02*
G54D21*
D03*
X1830784Y-815584D02*
G54D21*
D03*
X1830784Y-821934D02*
G54D21*
D03*
X1830784Y-828284D02*
G54D21*
D03*
X1830784Y-834634D02*
G54D21*
D03*
X1830784Y-840984D02*
G54D21*
D03*
X1830784Y-847334D02*
G54D21*
D03*
X1830784Y-853684D02*
G54D21*
D03*
X1830784Y-860034D02*
G54D21*
D03*
X1830784Y-866384D02*
G54D21*
D03*
X1830784Y-872734D02*
G54D21*
D03*
X1830784Y-879084D02*
G54D21*
D03*
X1830784Y-885434D02*
G54D21*
D03*
X1830784Y-891784D02*
G54D21*
D03*
X1918097Y-720334D02*
G54D21*
D03*
X1918097Y-726684D02*
G54D21*
D03*
X1918097Y-733034D02*
G54D21*
D03*
X1918097Y-739384D02*
G54D21*
D03*
X1918097Y-745734D02*
G54D21*
D03*
X1918097Y-752084D02*
G54D21*
D03*
X1918097Y-758434D02*
G54D21*
D03*
X1918097Y-764784D02*
G54D21*
D03*
X1918097Y-771134D02*
G54D21*
D03*
X1918097Y-777484D02*
G54D21*
D03*
X1918097Y-783834D02*
G54D21*
D03*
X1918097Y-790184D02*
G54D21*
D03*
X1918097Y-796534D02*
G54D21*
D03*
X1918097Y-802884D02*
G54D21*
D03*
X1918097Y-809234D02*
G54D21*
D03*
X1918097Y-815584D02*
G54D21*
D03*
X1918097Y-821934D02*
G54D21*
D03*
X1918097Y-828284D02*
G54D21*
D03*
X1918097Y-834634D02*
G54D21*
D03*
X1918097Y-840984D02*
G54D21*
D03*
X1918097Y-847334D02*
G54D21*
D03*
X1918097Y-853684D02*
G54D21*
D03*
X1918097Y-860034D02*
G54D21*
D03*
X1918097Y-866384D02*
G54D21*
D03*
X1918097Y-872734D02*
G54D21*
D03*
X1918097Y-879084D02*
G54D21*
D03*
X1918097Y-885434D02*
G54D21*
D03*
X1918097Y-891784D02*
G54D21*
D03*
X80566Y-1311672D02*
G54D22*
D03*
X123428Y-1311672D02*
G54D22*
D03*
X1525190Y-1306910D02*
G54D22*
D03*
X1568053Y-1306910D02*
G54D22*
D03*
X3146425Y-1184275D02*
G54D23*
D03*
X3146425Y-1227138D02*
G54D23*
D03*
X487362Y-812000D02*
G54D24*
D03*
X500062Y-812000D02*
G54D24*
D03*
X512762Y-812000D02*
G54D24*
D03*
X525462Y-812000D02*
G54D24*
D03*
X525462Y-755650D02*
G54D24*
D03*
X512762Y-755650D02*
G54D24*
D03*
X500062Y-755650D02*
G54D24*
D03*
X487362Y-755650D02*
G54D24*
D03*
X628650Y-865188D02*
G54D23*
D03*
X628650Y-908050D02*
G54D23*
D03*
X65088Y-23812D02*
G54D23*
D03*
X65088Y-66675D02*
G54D23*
D03*
X115888Y-23812D02*
G54D23*
D03*
X115888Y-66675D02*
G54D23*
D03*
X300831Y250032D02*
G54D22*
D03*
X257968Y250032D02*
G54D22*
D03*
X1186656Y40482D02*
G54D22*
D03*
X1143794Y40482D02*
G54D22*
D03*
X1339056Y40482D02*
G54D22*
D03*
X1296194Y40482D02*
G54D22*
D03*
X114300Y225425D02*
G54D25*
D03*
X114300Y180975D02*
G54D25*
D03*
X114300Y150812D02*
G54D25*
D03*
X114300Y106362D02*
G54D25*
D03*
X425450Y231774D02*
G54D26*
D03*
X381000Y231774D02*
G54D26*
D03*
X303212Y347662D02*
G54D26*
D03*
X258762Y347662D02*
G54D26*
D03*
X303212Y296862D02*
G54D26*
D03*
X258762Y296862D02*
G54D26*
D03*
X109537Y-563563D02*
G54D26*
D03*
X65087Y-563563D02*
G54D26*
D03*
X58738Y111125D02*
G54D27*
D03*
X58738Y203200D02*
G54D27*
D03*
X57151Y847725D02*
G54D28*
D03*
X149226Y847725D02*
G54D28*
D03*
X327024Y-182562D02*
G54D29*
D03*
X327024Y-119062D02*
G54D29*
D03*
X128587Y269876D02*
G54D29*
D03*
X128587Y333376D02*
G54D29*
D03*
X403225Y804862D02*
G54D30*
D03*
X455612Y804862D02*
G54D30*
D03*
X514350Y804862D02*
G54D30*
D03*
X566738Y804862D02*
G54D30*
D03*
X715962Y735012D02*
G54D30*
D03*
X768350Y735012D02*
G54D30*
D03*
X833438Y849312D02*
G54D30*
D03*
X885825Y849312D02*
G54D30*
D03*
X833438Y800100D02*
G54D30*
D03*
X885825Y800100D02*
G54D30*
D03*
X515938Y444500D02*
G54D30*
D03*
X568325Y444500D02*
G54D30*
D03*
X515938Y388938D02*
G54D30*
D03*
X568325Y388938D02*
G54D30*
D03*
X611188Y444500D02*
G54D30*
D03*
X663575Y444500D02*
G54D30*
D03*
X611188Y388938D02*
G54D30*
D03*
X663575Y388938D02*
G54D30*
D03*
X1661716Y-190000D02*
G54D31*
D03*
X1661716Y-196500D02*
G54D31*
D03*
X1661716Y-203000D02*
G54D31*
D03*
X1661716Y-209500D02*
G54D31*
D03*
X1661716Y-216000D02*
G54D31*
D03*
X1661716Y-222500D02*
G54D31*
D03*
X1661716Y-229000D02*
G54D31*
D03*
X1661716Y-235500D02*
G54D31*
D03*
X1661716Y-242000D02*
G54D31*
D03*
X1661716Y-248500D02*
G54D31*
D03*
X1661716Y-255000D02*
G54D31*
D03*
X1661716Y-261500D02*
G54D31*
D03*
X1661716Y-268000D02*
G54D31*
D03*
X1661716Y-274500D02*
G54D31*
D03*
X1661716Y-281000D02*
G54D31*
D03*
X1661716Y-287500D02*
G54D31*
D03*
X1661716Y-294000D02*
G54D31*
D03*
X1661716Y-300500D02*
G54D31*
D03*
X1661716Y-307000D02*
G54D31*
D03*
X1661716Y-313500D02*
G54D31*
D03*
X1431528Y-190000D02*
G54D31*
D03*
X1431528Y-196500D02*
G54D31*
D03*
X1431528Y-203000D02*
G54D31*
D03*
X1431528Y-209500D02*
G54D31*
D03*
X1431528Y-216000D02*
G54D31*
D03*
X1431528Y-222500D02*
G54D31*
D03*
X1431528Y-229000D02*
G54D31*
D03*
X1431528Y-235500D02*
G54D31*
D03*
X1431528Y-242000D02*
G54D31*
D03*
X1431528Y-248500D02*
G54D31*
D03*
X1431528Y-255000D02*
G54D31*
D03*
X1431528Y-261500D02*
G54D31*
D03*
X1431528Y-268000D02*
G54D31*
D03*
X1431528Y-274500D02*
G54D31*
D03*
X1431528Y-281000D02*
G54D31*
D03*
X1431528Y-287500D02*
G54D31*
D03*
X1431528Y-294000D02*
G54D31*
D03*
X1431528Y-300500D02*
G54D31*
D03*
X1431528Y-307000D02*
G54D31*
D03*
X1431528Y-313500D02*
G54D31*
D03*
X1575828Y-167612D02*
G54D32*
D03*
X1569328Y-167612D02*
G54D32*
D03*
X1562828Y-167612D02*
G54D32*
D03*
X1556328Y-167612D02*
G54D32*
D03*
X1549828Y-167612D02*
G54D32*
D03*
X1543328Y-167612D02*
G54D32*
D03*
X1536828Y-167612D02*
G54D32*
D03*
X1530328Y-167612D02*
G54D32*
D03*
X1523828Y-167612D02*
G54D32*
D03*
X1517328Y-167612D02*
G54D32*
D03*
X1510828Y-167612D02*
G54D32*
D03*
X1504328Y-167612D02*
G54D32*
D03*
X1497828Y-167612D02*
G54D32*
D03*
X1491328Y-167612D02*
G54D32*
D03*
X1484828Y-167612D02*
G54D32*
D03*
X1478328Y-167612D02*
G54D32*
D03*
X1471828Y-167612D02*
G54D32*
D03*
X1465328Y-167612D02*
G54D32*
D03*
X1458828Y-167612D02*
G54D32*
D03*
X1452328Y-167612D02*
G54D32*
D03*
X1640825Y-167612D02*
G54D32*
D03*
X1634325Y-167612D02*
G54D32*
D03*
X1627826Y-167612D02*
G54D32*
D03*
X1621325Y-167612D02*
G54D32*
D03*
X1614825Y-167612D02*
G54D32*
D03*
X1608326Y-167612D02*
G54D32*
D03*
X1601826Y-167612D02*
G54D32*
D03*
X1595325Y-167612D02*
G54D32*
D03*
X1588825Y-167612D02*
G54D32*
D03*
X1582325Y-167612D02*
G54D32*
D03*
X1575828Y-336682D02*
G54D32*
D03*
X1569328Y-336682D02*
G54D32*
D03*
X1562828Y-336682D02*
G54D32*
D03*
X1556328Y-336682D02*
G54D32*
D03*
X1549828Y-336682D02*
G54D32*
D03*
X1543328Y-336682D02*
G54D32*
D03*
X1536828Y-336682D02*
G54D32*
D03*
X1530328Y-336682D02*
G54D32*
D03*
X1523828Y-336682D02*
G54D32*
D03*
X1517328Y-336682D02*
G54D32*
D03*
X1510828Y-336682D02*
G54D32*
D03*
X1504328Y-336682D02*
G54D32*
D03*
X1497828Y-336682D02*
G54D32*
D03*
X1491328Y-336682D02*
G54D32*
D03*
X1484828Y-336682D02*
G54D32*
D03*
X1478328Y-336682D02*
G54D32*
D03*
X1471828Y-336682D02*
G54D32*
D03*
X1465328Y-336682D02*
G54D32*
D03*
X1458828Y-336682D02*
G54D32*
D03*
X1452328Y-336682D02*
G54D32*
D03*
X1640825Y-336682D02*
G54D32*
D03*
X1634325Y-336682D02*
G54D32*
D03*
X1627826Y-336682D02*
G54D32*
D03*
X1621325Y-336682D02*
G54D32*
D03*
X1614825Y-336682D02*
G54D32*
D03*
X1608326Y-336682D02*
G54D32*
D03*
X1601826Y-336682D02*
G54D32*
D03*
X1595325Y-336682D02*
G54D32*
D03*
X1588825Y-336682D02*
G54D32*
D03*
X1582325Y-336682D02*
G54D32*
D03*
X1467584Y330058D02*
G54D32*
D03*
X1461084Y330058D02*
G54D32*
D03*
X1454584Y330058D02*
G54D32*
D03*
X1448084Y330058D02*
G54D32*
D03*
X1441584Y330058D02*
G54D32*
D03*
X1435084Y330058D02*
G54D32*
D03*
X1428584Y330058D02*
G54D32*
D03*
X1422084Y330058D02*
G54D32*
D03*
X1415584Y330058D02*
G54D32*
D03*
X1409084Y330058D02*
G54D32*
D03*
X1402584Y330058D02*
G54D32*
D03*
X1396084Y330058D02*
G54D32*
D03*
X1389584Y330058D02*
G54D32*
D03*
X1383084Y330058D02*
G54D32*
D03*
X1376584Y330058D02*
G54D32*
D03*
X1370084Y330058D02*
G54D32*
D03*
X1363584Y330058D02*
G54D32*
D03*
X1357084Y330058D02*
G54D32*
D03*
X1350584Y330058D02*
G54D32*
D03*
X1344084Y330058D02*
G54D32*
D03*
X1532582Y330058D02*
G54D32*
D03*
X1526082Y330058D02*
G54D32*
D03*
X1519582Y330058D02*
G54D32*
D03*
X1513082Y330058D02*
G54D32*
D03*
X1506582Y330058D02*
G54D32*
D03*
X1500082Y330058D02*
G54D32*
D03*
X1493582Y330058D02*
G54D32*
D03*
X1487082Y330058D02*
G54D32*
D03*
X1480582Y330058D02*
G54D32*
D03*
X1474082Y330058D02*
G54D32*
D03*
X1597579Y330058D02*
G54D32*
D03*
X1591079Y330058D02*
G54D32*
D03*
X1584579Y330058D02*
G54D32*
D03*
X1578079Y330058D02*
G54D32*
D03*
X1571579Y330058D02*
G54D32*
D03*
X1565079Y330058D02*
G54D32*
D03*
X1558579Y330058D02*
G54D32*
D03*
X1552079Y330058D02*
G54D32*
D03*
X1545579Y330058D02*
G54D32*
D03*
X1539079Y330058D02*
G54D32*
D03*
X1467584Y642399D02*
G54D32*
D03*
X1461084Y642399D02*
G54D32*
D03*
X1454584Y642399D02*
G54D32*
D03*
X1448084Y642399D02*
G54D32*
D03*
X1441584Y642399D02*
G54D32*
D03*
X1435084Y642399D02*
G54D32*
D03*
X1428584Y642399D02*
G54D32*
D03*
X1422084Y642399D02*
G54D32*
D03*
X1415584Y642399D02*
G54D32*
D03*
X1409084Y642399D02*
G54D32*
D03*
X1402584Y642399D02*
G54D32*
D03*
X1396084Y642399D02*
G54D32*
D03*
X1389584Y642399D02*
G54D32*
D03*
X1383084Y642399D02*
G54D32*
D03*
X1376584Y642399D02*
G54D32*
D03*
X1370084Y642399D02*
G54D32*
D03*
X1363584Y642399D02*
G54D32*
D03*
X1357084Y642399D02*
G54D32*
D03*
X1350584Y642399D02*
G54D32*
D03*
X1344084Y642399D02*
G54D32*
D03*
X1532582Y642399D02*
G54D32*
D03*
X1526082Y642399D02*
G54D32*
D03*
X1519582Y642399D02*
G54D32*
D03*
X1513082Y642399D02*
G54D32*
D03*
X1506582Y642399D02*
G54D32*
D03*
X1500082Y642399D02*
G54D32*
D03*
X1493582Y642399D02*
G54D32*
D03*
X1487082Y642399D02*
G54D32*
D03*
X1480582Y642399D02*
G54D32*
D03*
X1474082Y642399D02*
G54D32*
D03*
X1597579Y642399D02*
G54D32*
D03*
X1591079Y642399D02*
G54D32*
D03*
X1584579Y642399D02*
G54D32*
D03*
X1578079Y642399D02*
G54D32*
D03*
X1571579Y642399D02*
G54D32*
D03*
X1565079Y642399D02*
G54D32*
D03*
X1558579Y642399D02*
G54D32*
D03*
X1552079Y642399D02*
G54D32*
D03*
X1545579Y642399D02*
G54D32*
D03*
X1539079Y642399D02*
G54D32*
D03*
X1315654Y489278D02*
G54D31*
D03*
X1315654Y495778D02*
G54D31*
D03*
X1315654Y502278D02*
G54D31*
D03*
X1315654Y508778D02*
G54D31*
D03*
X1315654Y515278D02*
G54D31*
D03*
X1315654Y521778D02*
G54D31*
D03*
X1315654Y528278D02*
G54D31*
D03*
X1315654Y534778D02*
G54D31*
D03*
X1315654Y541278D02*
G54D31*
D03*
X1315654Y547778D02*
G54D31*
D03*
X1315654Y554278D02*
G54D31*
D03*
X1315654Y560778D02*
G54D31*
D03*
X1315654Y567278D02*
G54D31*
D03*
X1315654Y573778D02*
G54D31*
D03*
X1315654Y580278D02*
G54D31*
D03*
X1315654Y586778D02*
G54D31*
D03*
X1315654Y593278D02*
G54D31*
D03*
X1315654Y599778D02*
G54D31*
D03*
X1315654Y606278D02*
G54D31*
D03*
X1315654Y612778D02*
G54D31*
D03*
X1315654Y424280D02*
G54D31*
D03*
X1315654Y430780D02*
G54D31*
D03*
X1315654Y437280D02*
G54D31*
D03*
X1315654Y443781D02*
G54D31*
D03*
X1315654Y450281D02*
G54D31*
D03*
X1315654Y456780D02*
G54D31*
D03*
X1315654Y463280D02*
G54D31*
D03*
X1315654Y469781D02*
G54D31*
D03*
X1315654Y476281D02*
G54D31*
D03*
X1315654Y482781D02*
G54D31*
D03*
X1315654Y359283D02*
G54D31*
D03*
X1315654Y365783D02*
G54D31*
D03*
X1315654Y372283D02*
G54D31*
D03*
X1315654Y378783D02*
G54D31*
D03*
X1315654Y385283D02*
G54D31*
D03*
X1315654Y391783D02*
G54D31*
D03*
X1315654Y398283D02*
G54D31*
D03*
X1315654Y404783D02*
G54D31*
D03*
X1315654Y411283D02*
G54D31*
D03*
X1315654Y417783D02*
G54D31*
D03*
X1626804Y489675D02*
G54D31*
D03*
X1626804Y496175D02*
G54D31*
D03*
X1626804Y502675D02*
G54D31*
D03*
X1626804Y509175D02*
G54D31*
D03*
X1626804Y515675D02*
G54D31*
D03*
X1626804Y522175D02*
G54D31*
D03*
X1626804Y528675D02*
G54D31*
D03*
X1626804Y535175D02*
G54D31*
D03*
X1626804Y541675D02*
G54D31*
D03*
X1626804Y548175D02*
G54D31*
D03*
X1626804Y554675D02*
G54D31*
D03*
X1626804Y561175D02*
G54D31*
D03*
X1626804Y567675D02*
G54D31*
D03*
X1626804Y574175D02*
G54D31*
D03*
X1626804Y580675D02*
G54D31*
D03*
X1626804Y587175D02*
G54D31*
D03*
X1626804Y593675D02*
G54D31*
D03*
X1626804Y600175D02*
G54D31*
D03*
X1626804Y606675D02*
G54D31*
D03*
X1626804Y613175D02*
G54D31*
D03*
X1626804Y424678D02*
G54D31*
D03*
X1626804Y431178D02*
G54D31*
D03*
X1626804Y437678D02*
G54D31*
D03*
X1626804Y444178D02*
G54D31*
D03*
X1626804Y450678D02*
G54D31*
D03*
X1626804Y457178D02*
G54D31*
D03*
X1626804Y463678D02*
G54D31*
D03*
X1626804Y470178D02*
G54D31*
D03*
X1626804Y476678D02*
G54D31*
D03*
X1626804Y483178D02*
G54D31*
D03*
X1626804Y359680D02*
G54D31*
D03*
X1626804Y366180D02*
G54D31*
D03*
X1626804Y372680D02*
G54D31*
D03*
X1626804Y379180D02*
G54D31*
D03*
X1626804Y385680D02*
G54D31*
D03*
X1626804Y392180D02*
G54D31*
D03*
X1626804Y398680D02*
G54D31*
D03*
X1626804Y405180D02*
G54D31*
D03*
X1626804Y411680D02*
G54D31*
D03*
X1626804Y418180D02*
G54D31*
D03*
M02*
