G04 This is an RS-274x file exported by *
G04 gerbv version 2.7.0 *
G04 More information is available about gerbv at *
G04 http://gerbv.geda-project.org/ *
G04 --End of header info--*
%MOIN*%
%FSLAX36Y36*%
%IPPOS*%
G04 --Define apertures--*
%ADD10R,0.0433X0.0669*%
%ADD11R,0.0669X0.0433*%
%ADD12R,0.0827X0.0669*%
G04 --Start main section--*
G54D10*
G01X4003126Y3659374D03*
G01X4003126Y3525000D03*
G01X4103126Y3659374D03*
G01X4103126Y3525000D03*
G01X4203126Y3659374D03*
G01X4203126Y3525000D03*
G01X4403126Y3659374D03*
G01X4403126Y3525000D03*
G01X4503126Y3659374D03*
G01X4503126Y3525000D03*
G01X4603126Y3659374D03*
G01X4603126Y3525000D03*
G01X4703126Y3659374D03*
G01X4703126Y3525000D03*
G01X4803126Y3659374D03*
G01X4803126Y3525000D03*
G01X4903126Y3525000D03*
G01X4903126Y3659374D03*
G01X5003126Y3525000D03*
G01X5003126Y3659374D03*
G01X1040626Y3521874D03*
G01X1040626Y3656252D03*
G01X1790626Y3075000D03*
G01X1790626Y3209374D03*
G01X2387500Y2953126D03*
G01X2387500Y3087500D03*
G01X2728126Y3481252D03*
G01X2728126Y3615626D03*
G01X2965626Y2953126D03*
G01X2965626Y3087500D03*
G01X3387500Y3475000D03*
G01X3387500Y3609374D03*
G01X5103126Y3525000D03*
G01X5103126Y3659374D03*
G01X5203126Y3525000D03*
G01X5203126Y3659374D03*
G01X5303126Y3525000D03*
G01X5303126Y3659374D03*
G01X5403126Y3525000D03*
G01X5403126Y3659374D03*
G01X5503126Y3525000D03*
G01X5503126Y3659374D03*
G01X5603126Y3525000D03*
G01X5603126Y3659374D03*
G01X5703126Y3525000D03*
G01X5703126Y3659374D03*
G01X5803126Y3525000D03*
G01X5803126Y3659374D03*
G01X5903126Y3525000D03*
G01X5903126Y3659374D03*
G01X6003126Y3525000D03*
G01X6003126Y3659374D03*
G01X6103126Y3525000D03*
G01X6103126Y3659374D03*
G01X6203126Y3525000D03*
G01X6203126Y3659374D03*
G01X6303126Y3525000D03*
G01X6303126Y3659374D03*
G01X6403126Y3525000D03*
G01X6403126Y3659374D03*
G01X3237500Y1321874D03*
G01X3237500Y1456252D03*
G01X4190626Y2075000D03*
G01X4190626Y2209374D03*
G01X4390626Y2075000D03*
G01X4390626Y2209374D03*
G01X4190626Y1575000D03*
G01X4190626Y1709374D03*
G01X4290626Y1575000D03*
G01X4290626Y1709374D03*
G01X5390626Y1675000D03*
G01X5390626Y1809374D03*
G01X5290626Y1675000D03*
G01X5290626Y1809374D03*
G01X4900000Y1925000D03*
G01X4900000Y2059374D03*
G01X5390626Y2175000D03*
G01X5390626Y2309374D03*
G01X5290626Y2175000D03*
G01X5290626Y2309374D03*
G01X5190626Y2175000D03*
G01X5190626Y2309374D03*
G01X5000000Y2175000D03*
G01X5000000Y2309374D03*
G01X4900000Y2175000D03*
G01X4900000Y2309374D03*
G01X2875000Y-1256252D03*
G01X2875000Y-1121874D03*
G01X2775000Y-1256252D03*
G01X2775000Y-1121874D03*
G01X2675000Y-1256252D03*
G01X2675000Y-1121874D03*
G01X2575000Y-1256252D03*
G01X2575000Y-1121874D03*
G01X2475000Y-1256252D03*
G01X2475000Y-1121874D03*
G01X2875000Y-1618748D03*
G01X2875000Y-1484374D03*
G01X2775000Y-1618748D03*
G01X2775000Y-1484374D03*
G01X2675000Y-1618748D03*
G01X2675000Y-1484374D03*
G01X2575000Y-1618748D03*
G01X2575000Y-1484374D03*
G01X2475000Y-1618748D03*
G01X2475000Y-1484374D03*
G01X2993748Y-1356252D03*
G01X2993748Y-1221874D03*
G01X2684374Y-031252D03*
G01X2684374Y0103126D03*
G01X2584374Y-031252D03*
G01X2584374Y0103126D03*
G01X0371874Y0193748D03*
G01X0371874Y0328126D03*
G01X0271874Y0193748D03*
G01X0271874Y0328126D03*
G01X1256252Y0721874D03*
G01X1256252Y0856252D03*
G01X6121874Y0303126D03*
G01X6121874Y0437500D03*
G01X6021874Y0303126D03*
G01X6021874Y0437500D03*
G01X6550000Y0303126D03*
G01X6550000Y0437500D03*
G01X6450000Y0303126D03*
G01X6450000Y0437500D03*
G01X5578126Y0431252D03*
G01X5578126Y0565626D03*
G01X5478126Y0431252D03*
G01X5478126Y0565626D03*
G01X5378126Y0431252D03*
G01X5378126Y0565626D03*
G01X0390626Y-6006252D03*
G01X0390626Y-5871874D03*
G01X0490626Y-6006252D03*
G01X0490626Y-5871874D03*
G01X0590626Y-6006252D03*
G01X0590626Y-5871874D03*
G01X0831252Y-5146874D03*
G01X0831252Y-5012500D03*
G01X0931252Y-5146874D03*
G01X0931252Y-5012500D03*
G01X1131252Y-5143748D03*
G01X1131252Y-5009374D03*
G01X1131252Y-4493748D03*
G01X1131252Y-4359374D03*
G01X1962500Y-3640626D03*
G01X1962500Y-3506252D03*
G01X0731252Y-4793748D03*
G01X0731252Y-4659374D03*
G01X0831252Y-4793748D03*
G01X0831252Y-4659374D03*
G01X0931252Y-4793748D03*
G01X0931252Y-4659374D03*
G01X1031252Y-4793748D03*
G01X1031252Y-4659374D03*
G01X1131252Y-4793748D03*
G01X1131252Y-4659374D03*
G01X5009374Y-4468748D03*
G01X5009374Y-4334374D03*
G01X6168748Y-4390626D03*
G01X6168748Y-4256252D03*
G01X6268748Y-4390626D03*
G01X6268748Y-4256252D03*
G01X6368748Y-4390626D03*
G01X6368748Y-4256252D03*
G01X6468748Y-4390626D03*
G01X6468748Y-4256252D03*
G01X6621874Y-4390626D03*
G01X6621874Y-4256252D03*
G01X6640626Y-3487500D03*
G01X6640626Y-3353126D03*
G01X6228126Y-3037500D03*
G01X6228126Y-2903126D03*
G01X6328126Y-3037500D03*
G01X6328126Y-2903126D03*
G01X6550000Y-909374D03*
G01X6550000Y-775000D03*
G01X4800000Y0353126D03*
G01X4800000Y0487500D03*
M02*
